<?xml version="1.0" encoding="utf-8"?>
<!-- Generator: Adobe Illustrator 24.1.2, SVG Export Plug-In . SVG Version: 6.00 Build 0)  -->
<svg version="1.1" id="Warstwa_3" xmlns="http://www.w3.org/2000/svg" xmlns:xlink="http://www.w3.org/1999/xlink" x="0px" y="0px"
	 viewBox="0 0 430 430" style="enable-background:new 0 0 430 430;" xml:space="preserve">
<style type="text/css">
	.st0{fill:#121331;}
	.st1{fill:#08A385;}
	.st2{fill:none;stroke:#121331;stroke-width:14;stroke-linecap:round;stroke-linejoin:round;stroke-miterlimit:10;}
	.st3{fill:none;stroke:#08A385;stroke-width:12;stroke-linecap:round;stroke-linejoin:round;stroke-miterlimit:10;}
	.st4{fill:#06A385;}
	.st5{fill:none;stroke:#121331;stroke-width:12;stroke-linecap:round;stroke-linejoin:round;stroke-miterlimit:10;}
	.st6{fill:#08A789;}
	.st7{fill:#08A284;}
	.st8{fill:#08A688;}
	.st9{fill:#08A88A;}
</style>
<g>
	<g>
		<path class="st0" d="M106.27,382.29c-1,0-2-0.25-2.93-0.77c-2.89-1.62-3.91-5.28-2.29-8.17l44.07-78.39
			c1.62-2.89,5.28-3.92,8.17-2.29c2.89,1.62,3.91,5.28,2.29,8.17l-44.07,78.39C110.4,381.19,108.36,382.29,106.27,382.29z"/>
		<path class="st7" d="M167.44,313.52c-1,0-2-0.25-2.93-0.77l-34.2-19.23c-1.39-0.78-2.41-2.08-2.84-3.61s-0.23-3.17,0.55-4.56
			l21.42-38.09c1.62-2.89,5.28-3.92,8.17-2.29c2.89,1.62,3.91,5.28,2.29,8.17L141.41,286l23.74,13.35l18.47-32.86
			c1.62-2.89,5.28-3.92,8.17-2.29c2.89,1.62,3.91,5.28,2.29,8.17l-21.42,38.09C171.57,312.42,169.53,313.52,167.44,313.52z"/>
		<path class="st0" d="M312.28,84.17l-15.29-8.59c0,0,0,0-0.01,0c0,0,0,0-0.01,0l-48.19-27.09c-2.89-1.63-6.55-0.6-8.17,2.29
			c-1.62,2.89-0.6,6.55,2.29,8.17l10.06,5.66l-15.72,27.96l-10.06-5.66c-1.39-0.78-3.03-0.98-4.56-0.55
			c-1.53,0.43-2.83,1.45-3.61,2.84l-21.23,37.76c0,0,0,0,0,0c0,0,0,0,0,0l-42.83,76.18c0,0,0,0,0,0c0,0,0,0,0,0l-20.18,35.89
			c-0.78,1.39-0.98,3.03-0.55,4.56s1.45,2.83,2.84,3.61l63.49,35.69c0.93,0.52,1.94,0.77,2.93,0.77c2.1,0,4.13-1.1,5.24-3.06
			l84.24-149.84c1.62-2.89,0.6-6.55-2.29-8.17l-10.06-5.66l15.72-27.96l10.06,5.66c0.93,0.52,1.94,0.77,2.93,0.77
			c2.1,0,4.13-1.1,5.24-3.06C316.19,89.45,315.16,85.79,312.28,84.17z M201.21,269.49l-53.03-29.81l14.3-25.43l13.82,7.77
			c0.93,0.52,1.94,0.77,2.93,0.77c2.1,0,4.13-1.1,5.24-3.06c1.62-2.89,0.6-6.55-2.29-8.17l-13.82-7.77l15.53-27.62l13.82,7.77
			c0.93,0.52,1.94,0.77,2.93,0.77c2.1,0,4.13-1.1,5.24-3.06c1.62-2.89,0.6-6.55-2.29-8.17l-13.82-7.77l15.54-27.64l13.82,7.77
			c0.93,0.52,1.94,0.77,2.93,0.77c2.1,0,4.13-1.1,5.24-3.06c1.62-2.89,0.6-6.55-2.29-8.17l-13.82-7.77l15.35-27.31l10.06,5.65
			c0,0,0,0,0,0c0,0,0,0,0,0l42.96,24.15L201.21,269.49z M270.16,111.05l-22.44-12.62l15.72-27.96l22.44,12.62L270.16,111.05z"/>
	</g>
	<g>
		<path class="st0" d="M323.73,380.29h-64.61c-3.31,0-6-2.69-6-6v-69.6c0-0.69,0.12-1.38,0.36-2.04l9.02-25
			c1.12-3.12,4.57-4.73,7.68-3.61c3.12,1.13,4.73,4.56,3.61,7.68l-8.67,24.01v62.55h52.61v-62.55l-8.67-24.01
			c-1.13-3.12,0.49-6.56,3.61-7.68c3.11-1.12,6.55,0.49,7.68,3.61l9.02,25c0.24,0.65,0.36,1.34,0.36,2.04v69.6
			C329.73,377.61,327.04,380.29,323.73,380.29z"/>
		<path class="st7" d="M323,285.7h-63.15c-3.31,0-6-2.69-6-6v-26.87c0-3.31,2.69-6,6-6H323c3.31,0,6,2.69,6,6v26.87
			C329,283.01,326.31,285.7,323,285.7z M265.85,273.7H317v-14.87h-51.15V273.7z"/>
	</g>
</g>
</svg>
