<?xml version="1.0" standalone="no"?>
<!DOCTYPE svg PUBLIC "-//W3C//DTD SVG 1.1//EN" "http://www.w3.org/Graphics/SVG/1.1/DTD/svg11.dtd" >
<svg xmlns="http://www.w3.org/2000/svg" xmlns:xlink="http://www.w3.org/1999/xlink" version="1.1">
<metadata>
Created by FontForge 20170731 at Wed Dec 28 14:57:10 2016
 By Aleksey,,,
Copyright (c) 2016 by fontiran.com. All rights reserved.
</metadata>
<defs>
<font id="IRANYekanMobileFaNum-Bold" horiz-adv-x="0" >
  <font-face 
    font-family="IRANYekanMobile(FaNum)"
    font-weight="700"
    font-stretch="normal"
    units-per-em="2450"
    panose-1="2 11 5 6 3 8 4 2 2 4"
    ascent="1960"
    descent="-490"
    x-height="1162"
    cap-height="1564"
    bbox="-583 -1156 3140 2705"
    underline-thickness="100"
    underline-position="-950"
    unicode-range="U+001D-FEFF"
  />
<missing-glyph horiz-adv-x="1229" 
d="M102 -362v1806h1024v-1806h-1024zM217 -248h795v1577h-795v-1577z" />
    <glyph glyph-name="uniFDF2" unicode="&#xfedf;&#xfee0;&#xfeea;" horiz-adv-x="2277" arabic-form="isolated" 
d="M1100 -15q-111 0 -187.5 28t-127 80t-78 124.5t-39.5 161.5l-57 410l-87 -19q-96 -24 -125 -78q-30 -52 -35 -113.5t5 -124.5t29 -124.5t36 -113.5l58 -178l-238 -67l-52 168q-23 82 -45 167.5t-30.5 171.5t3 170.5t54.5 165.5q45 75 114.5 125t166.5 73h-1q20 5 58 13
t76 15.5t67.5 12.5t32.5 5l129 -84l83 -539q10 -64 30 -103.5t45.5 -61t55.5 -29t61 -7.5q69 0 109.5 16.5t61.5 41.5t27 55t6 57l-2 715l250 58v-773q0 -42 14.5 -73.5t40.5 -52.5t61 -32t76 -12h10q102 0 146 41t47 127l-50 837l248 121l50 -956q0 -36 -3.5 -75t-14.5 -79
t-32 -78.5t-56 -72.5q-31 -29 -61 -50.5t-68 -35.5t-87.5 -21t-118.5 -7h-10q-39 0 -83 7t-86.5 20.5t-81.5 33.5t-67 45q-29 -27 -60 -46.5t-69.5 -33t-86.5 -20t-110 -6.5h-2zM1311 1348q-91 0 -143 50.5t-52 141.5v93l111 19v-112q0 -43 19.5 -62.5t64.5 -19.5
q6 0 18 2.5t23.5 11t20 24.5t8.5 44v92l112 24v-116q0 -44 20 -63.5t65 -19.5q7 0 18 3t22 11.5t19 25t8 43.5q0 14 -3 32t-7.5 38t-10 39.5t-9.5 36.5l102 35q1 -5 7.5 -25t13.5 -46.5t12.5 -56t5.5 -53.5q0 -49 -16 -85.5t-42 -60.5t-58 -35.5t-64 -11.5q-91 0 -140 48
q-27 -26 -58.5 -36.5t-66.5 -10.5zM1379 2046l113 26v-286l-113 -27v287z" />
    <glyph glyph-name="uniFDFC" unicode="&#x631;&#xfef3;&#xfe8e;&#x644;" horiz-adv-x="3285" arabic-form="isolated" 
d="M744 -568q-71 0 -136 16t-122 47t-105 74.5t-84 99.5q-15 24 -30.5 56.5t-27.5 73.5t-20 91t-8 109q0 49 5 100.5t19 109.5t39 125.5t65 150.5l225 -107q-30 -62 -50.5 -113.5t-32.5 -97t-17.5 -86.5t-5.5 -83q0 -57 12.5 -106.5t37.5 -89.5l-1 1q38 -54 101.5 -88
t135.5 -34h46q105 0 171.5 22t104 62t51 97t13.5 127v1438h246v-1438q0 -555 -586 -557h-46zM3140 46q-6 -138 -51 -248.5t-124 -188t-191 -119.5t-253 -42h-124v249h124q96 0 166 20t115 64t67 114.5t22 171.5v609h249v-630zM2113 -572l-168 170l166 172l172 -172z
M1694 -573l-168 170l165 172l172 -172zM2058 -15q-110 0 -189 13.5t-133 40t-86.5 67.5t-49.5 96t-22.5 124.5t-5.5 153.5v947h249v-947q0 -80 5.5 -128t29 -74.5t71 -35t131.5 -8.5v-249zM2556 825q2 -7 8.5 -33t14.5 -63.5t16.5 -83.5t16 -92.5t12 -90.5t4.5 -77
q0 -103 -34 -178.5t-89 -124.5t-123.5 -73t-137.5 -24h-266v249h273q12 0 34.5 3.5t45 18.5t39.5 45.5t17 83.5q0 22 -3.5 53.5t-9.5 67.5t-13.5 73.5t-14.5 71t-14 61t-11 42.5z" />
    <glyph glyph-name="uniFEF5" unicode="&#xfedf;&#xfe82;" horiz-adv-x="1258" arabic-form="isolated" 
d="M120 -15v249h429q116 0 187 19.5t110 64.5t52 119t13 183v807h248v-807q0 -59 -4.5 -121t-17 -122.5t-36 -117t-60.5 -103.5q-73 -85 -194 -128t-298 -43h-429zM240 399l-65 989l247 29l66 -1018h-248zM768 1548h-490q-59 0 -99.5 -3.5t-69 -18t-47 -42t-33.5 -75.5
l-186 55q26 90 71 147t108 89q54 26 117 34.5t139 8.5h490v-195z" />
    <glyph glyph-name="uniFEF6" unicode="&#xfee0;&#xfe82;" horiz-adv-x="1340" arabic-form="final" 
d="M125 -14v249h429q116 0 187 19.5t110 64.5t52 119t13 183v806h248v-830v-205q0 -35 11 -64t30.5 -50t47 -32.5t60.5 -11.5h51v-249h-51q-99 0 -172 37.5t-129 106.5q-74 -69 -187 -106t-271 -37h-429zM240 399l-65 989l247 29l66 -1018h-248zM757 1553h-490
q-59 0 -99.5 -3.5t-69 -18t-47 -42t-33.5 -75.5l-186 55q26 90 71 147t108 89q54 26 117 34.5t139 8.5h490v-195z" />
    <glyph glyph-name="uniFEF7" unicode="&#xfedf;&#xfe84;" horiz-adv-x="1258" arabic-form="isolated" 
d="M120 -15v249h429q116 0 187 19.5t110 64.5t52 119t13 183v807h248v-807q0 -59 -4.5 -121t-17 -122.5t-36 -117t-60.5 -103.5q-73 -85 -194 -128t-298 -43h-429zM240 399l-65 989l247 29l66 -1018h-248zM-40 1445v149l124 40q-30 31 -49.5 70t-19.5 83q0 34 12 67t33 61
t49.5 49t60.5 30q17 5 34.5 7.5t34.5 2.5q36 0 63.5 -8.5t51.5 -17.5l17 -8l-30 -124q-14 3 -31 8t-34 8t-33.5 3.5t-29.5 -3.5q-14 -5 -27.5 -14t-22.5 -20.5t-12.5 -26.5t2.5 -32q8 -26 37.5 -44t82.5 -18q10 0 21.5 1t30.5 5.5t48.5 13t75.5 23.5l8 -141z" />
    <glyph glyph-name="uniFEF8" unicode="&#xfee0;&#xfe84;" horiz-adv-x="1340" arabic-form="final" 
d="M125 -14v249h429q116 0 187 19.5t110 64.5t52 119t13 183v806h248v-830v-205q0 -35 11 -64t30.5 -50t47 -32.5t60.5 -11.5h51v-249h-51q-99 0 -172 37.5t-129 106.5q-74 -69 -187 -106t-271 -37h-429zM240 399l-65 989l247 29l66 -1018h-248zM13 1467v149l124 40
q-30 31 -49.5 70t-19.5 83q0 34 12 67t33 61t49.5 49t60.5 30q17 5 34.5 7.5t34.5 2.5q36 0 63.5 -8.5t51.5 -17.5l17 -8l-30 -124q-14 3 -31 8t-34 8t-33.5 3.5t-29.5 -3.5q-14 -5 -27.5 -14t-22.5 -20.5t-12.5 -26.5t2.5 -32q8 -26 37.5 -44t82.5 -18q10 0 21.5 1
t30.5 5.5t48.5 13t75.5 23.5l8 -141z" />
    <glyph glyph-name="uniFEF9" unicode="&#xfedf;&#xfe88;" horiz-adv-x="1275" arabic-form="isolated" 
d="M120 -15v249h429q116 0 187 19.5t110 64.5t52 119t13 183v807h248v-807q0 -59 -4.5 -121t-17 -122.5t-36 -117t-60.5 -103.5q-73 -85 -194 -128t-298 -43h-429zM240 399l-65 989l247 29l66 -1018h-248zM257 -686v149l124 40q-30 31 -49.5 70t-19.5 83q0 34 12 67t33 61
t49.5 49t60.5 30q17 5 34.5 7.5t34.5 2.5q36 0 63.5 -8.5t51.5 -17.5l17 -8l-30 -124q-14 3 -31 8t-34 8t-33.5 3.5t-29.5 -3.5q-14 -5 -27.5 -14t-22.5 -20.5t-12.5 -26.5t2.5 -32q8 -26 37.5 -44t82.5 -18q10 0 21.5 1t30.5 5.5t48.5 13t75.5 23.5l8 -141z" />
    <glyph glyph-name="uniFEFA" unicode="&#xfee0;&#xfe88;" horiz-adv-x="1340" arabic-form="final" 
d="M125 -14v249h429q116 0 187 19.5t110 64.5t52 119t13 183v806h248v-830v-205q0 -35 11 -64t30.5 -50t47 -32.5t60.5 -11.5h51v-249h-51q-99 0 -172 37.5t-129 106.5q-74 -69 -187 -106t-271 -37h-429zM240 399l-65 989l247 29l66 -1018h-248zM252 -685v149l124 40
q-30 31 -49.5 70t-19.5 83q0 34 12 67t33 61t49.5 49t60.5 30q17 5 34.5 7.5t34.5 2.5q36 0 63.5 -8.5t51.5 -17.5l17 -8l-30 -124q-14 3 -31 8t-34 8t-33.5 3.5t-29.5 -3.5q-14 -5 -27.5 -14t-22.5 -20.5t-12.5 -26.5t2.5 -32q8 -26 37.5 -44t82.5 -18q10 0 21.5 1
t30.5 5.5t48.5 13t75.5 23.5l8 -141z" />
    <glyph glyph-name="uniFEFB" unicode="&#xfedf;&#xfe8e;" horiz-adv-x="1302" arabic-form="isolated" 
d="M120 -15v249h429q116 0 187 19.5t110 64.5t52 119t13 183v807h248v-807q0 -59 -4.5 -121t-17 -122.5t-36 -117t-60.5 -103.5q-73 -85 -194 -128t-298 -43h-429zM240 399l-65 989l247 29l66 -1018h-248z" />
    <glyph glyph-name="uniFEFC" unicode="&#xfee0;&#xfe8e;" horiz-adv-x="1340" arabic-form="final" 
d="M125 -14v249h429q116 0 187 19.5t110 64.5t52 119t13 183v806h248v-830v-205q0 -35 11 -64t30.5 -50t47 -32.5t60.5 -11.5h51v-249h-51q-99 0 -172 37.5t-129 106.5q-74 -69 -187 -106t-271 -37h-429zM240 399l-65 989l247 29l66 -1018h-248z" />
    <glyph glyph-name="uni06440671.isol" unicode="&#xfedf;&#xfb51;" horiz-adv-x="1258" 
d="M120 -15v249h429q116 0 187 19.5t110 64.5t52 119t13 183v807h248v-807q0 -59 -4.5 -121t-17 -122.5t-36 -117t-60.5 -103.5q-73 -85 -194 -128t-298 -43h-429zM240 399l-65 989l247 29l66 -1018h-248zM-24 1520l24 109h132l44 68l83 122q35 52 86 82.5t111 30.5
q34 0 68 -13t61 -40t43.5 -68t16.5 -97q0 -54 -18 -91t-46 -60t-62.5 -33t-67.5 -10h-475zM456 1823q-27 0 -53.5 -18t-51 -46t-47.5 -62.5t-43 -67.5h190q36 0 60 20t24 65q0 53 -20.5 81t-58.5 28z" />
    <glyph glyph-name="uni06440671.fina" unicode="&#xfee0;&#xfb51;" horiz-adv-x="1346" 
d="M125 -14v249h429q116 0 187 19.5t110 64.5t52 119t13 183v806h248v-830v-205q0 -35 11 -64t30.5 -50t47 -32.5t60.5 -11.5h51v-249h-51q-99 0 -172 37.5t-129 106.5q-74 -69 -187 -106t-271 -37h-429zM240 399l-65 989l247 29l66 -1018h-248zM-47 1532l24 109h132l44 68
l83 122q35 52 86 82.5t111 30.5q34 0 68 -13t61 -40t43.5 -68t16.5 -97q0 -54 -18 -91t-46 -60t-62.5 -33t-67.5 -10h-475zM433 1835q-27 0 -53.5 -18t-51 -46t-47.5 -62.5t-43 -67.5h190q36 0 60 20t24 65q0 53 -20.5 81t-58.5 28z" />
    <glyph glyph-name="uni0621" unicode="&#x621;" horiz-adv-x="1004" arabic-form="isolated" 
d="M107 -64l6 235l168 46q-40 33 -70.5 73t-47.5 85q-15 48 -15 99q0 70 28.5 135.5t77.5 115.5t115.5 80.5t142.5 30.5q25 0 49.5 -2.5t53.5 -8t64 -14t80 -19.5l-47 -199q-73 14 -119.5 19.5t-82.5 5.5q-69 0 -111.5 -39.5t-56.5 -103.5q8 -40 29 -69t51 -47.5t66 -27.5
t73 -9q64 0 146.5 26t172.5 61l3 -236z" />
    <glyph glyph-name="uni0622" unicode="&#x622;" horiz-adv-x="761" arabic-form="isolated" 
d="M490 -15h-249v1295h249v-1295zM790 1424h-490q-59 0 -99.5 -3.5t-69 -18t-47 -42t-33.5 -75.5l-186 55q26 90 71 147t108 89q54 26 117 34.5t139 8.5h490v-195z" />
    <glyph glyph-name="uni0623" unicode="&#x623;" horiz-adv-x="592" arabic-form="isolated" 
d="M423 -15h-249v1295h249v-1295zM10 1349v149l124 40q-30 31 -49.5 70t-19.5 83q0 34 12 67t33 61t49.5 49t60.5 30q17 5 34.5 7.5t34.5 2.5q36 0 63.5 -8.5t51.5 -17.5l17 -8l-30 -124q-14 3 -31 8t-34 8t-33.5 3.5t-29.5 -3.5q-14 -5 -27.5 -14t-22.5 -20.5t-12.5 -26.5
t2.5 -32q8 -26 37.5 -44t82.5 -18q10 0 21.5 1t30.5 5.5t48.5 13t75.5 23.5l8 -141z" />
    <glyph glyph-name="uni0624" unicode="&#x624;" horiz-adv-x="973" arabic-form="isolated" 
d="M178 -303q80 0 142.5 5.5t111 16t85 27t63.5 39.5q42 34 63.5 79t25.5 121h-154q-50 0 -102 8t-100 27.5t-90.5 50.5t-74 76.5t-50 107.5t-18.5 142q0 69 12 122.5t30.5 94.5t41.5 71.5t44 53.5q60 60 136 92.5t164 32.5q109 0 186.5 -37.5t127 -103.5t72.5 -156.5
t23 -196.5v-355q0 -149 -45 -250.5t-137 -174.5q-46 -36 -100 -62.5t-121 -44.5t-149.5 -26.5t-186.5 -8.5v249zM508 615q-85 0 -135 -53t-50 -165q0 -44 17.5 -75t45 -50.5t61.5 -28.5t68 -9h154v136q0 57 -9 97.5t-23.5 67.5t-33 43t-36 24t-33.5 10.5t-26 2.5zM164 996
v149l124 40q-30 31 -49.5 70t-19.5 83q0 34 12 67t33 61t49.5 49t60.5 30q17 5 34.5 7.5t34.5 2.5q36 0 63.5 -8.5t51.5 -17.5l17 -8l-30 -124q-14 3 -31 8t-34 8t-33.5 3.5t-29.5 -3.5q-14 -5 -27.5 -14t-22.5 -20.5t-12.5 -26.5t2.5 -32q8 -26 37.5 -44t82.5 -18
q10 0 21.5 1t30.5 5.5t48.5 13t75.5 23.5l8 -141z" />
    <glyph glyph-name="uni0625" unicode="&#x625;" horiz-adv-x="592" arabic-form="isolated" 
d="M420 -15h-249v1442h249v-1442zM48 -701v149l124 40q-30 31 -49.5 70t-19.5 83q0 34 12 67t33 61t49.5 49t60.5 30q17 5 34.5 7.5t34.5 2.5q36 0 63.5 -8.5t51.5 -17.5l17 -8l-30 -124q-14 3 -31 8t-34 8t-33.5 3.5t-29.5 -3.5q-14 -5 -27.5 -14t-22.5 -20.5t-12.5 -26.5
t2.5 -32q8 -26 37.5 -44t82.5 -18q10 0 21.5 1t30.5 5.5t48.5 13t75.5 23.5l8 -141z" />
    <glyph glyph-name="uni0626" unicode="&#x626;" horiz-adv-x="1680" arabic-form="isolated" 
d="M940 -316q91 0 157.5 11.5t109.5 40t64.5 76.5t22.5 121q-14 4 -44.5 12t-72 19t-90 24t-98.5 26.5t-98.5 26t-89.5 22.5q-26 66 -38.5 128.5t-12.5 122.5q0 114 42 215.5t120 177t190.5 119.5t253.5 44q50 0 99.5 -8t112.5 -25l-63 -240q-47 14 -82 20.5t-72 6.5
q-75 0 -139.5 -21.5t-112 -62.5t-75 -100t-27.5 -134v-12.5t1 -12.5l351 -90q96 -24 139 -81.5t43 -142.5q0 -139 -32 -239.5t-102.5 -166t-183 -97t-273.5 -31.5h-211q-82 0 -157 19t-141 54.5t-121 86t-97 114.5q-99 160 -99 375q0 66 9 131t28.5 133.5t49.5 143.5t72 162
l222 -107q-35 -74 -59.5 -135.5t-41 -116t-24 -105t-7.5 -101.5q0 -145 64 -246q46 -76 125.5 -116.5t176.5 -40.5h211v0zM91 737v149l124 40q-30 31 -49.5 70t-19.5 83q0 34 12 67t33 61t49.5 49t60.5 30q17 5 34.5 7.5t34.5 2.5q36 0 63.5 -8.5t51.5 -17.5l17 -8l-30 -124
q-14 3 -31 8t-34 8t-33.5 3.5t-29.5 -3.5q-14 -5 -27.5 -14t-22.5 -20.5t-12.5 -26.5t2.5 -32q8 -26 37.5 -44t82.5 -18q10 0 21.5 1t30.5 5.5t48.5 13t75.5 23.5l8 -141z" />
    <glyph glyph-name="uni0627" unicode="&#x627;" horiz-adv-x="592" arabic-form="isolated" 
d="M420 -15h-249v1442h249v-1442z" />
    <glyph glyph-name="uni0628" unicode="&#x628;" horiz-adv-x="2101" arabic-form="isolated" 
d="M2032 676v-327q0 -148 -90 -244q-112 -119 -326 -120h-1154q-74 0 -140 25t-117 73q-20 19 -41.5 46t-38.5 64t-28 83.5t-11 104.5q0 50 10 108.5t22.5 110.5t23.5 90t14 47l119 -38l118 -37q-9 -27 -19 -64.5t-19 -77t-15 -76.5t-6 -64q0 -48 13.5 -77.5t33 -45
t42.5 -20.5t41 -5h1145q55 0 94 10.5t58 30.5q23 26 23 75v328h248zM877 -349l180 182l184 -184l-182 -182z" />
    <glyph glyph-name="uni0629" unicode="&#x629;" horiz-adv-x="1043" arabic-form="isolated" 
d="M519 -15q-96 0 -176.5 27.5t-138.5 78t-90.5 120.5t-32.5 155q0 84 21 150.5t56.5 124t83 110t100.5 108.5l-63 71l184 167q11 -13 26 -29t30.5 -33t30.5 -33t27 -29q72 -77 140.5 -149.5t122 -145t86 -146t31.5 -152.5q-1 -88 -35 -157.5t-99 -128.5q-60 -51 -136.5 -80
t-167.5 -29zM507 706q-40 -45 -75.5 -85t-61 -80t-39 -82.5t-10.5 -92.5q3 -37 22 -63.5t47 -44t62 -25.5t67 -8q38 0 73 11t61.5 31t42.5 49t16 64q0 43 -17 84t-45.5 81t-65.5 80t-77 81zM706 1208l-168 170l166 172l172 -172zM287 1207l-168 170l165 172l172 -172z" />
    <glyph glyph-name="uni062A" unicode="&#x62a;" horiz-adv-x="2101" arabic-form="isolated" 
d="M2032 676v-327q0 -148 -90 -244q-112 -119 -326 -120h-1154q-74 0 -140 25t-117 73q-20 19 -41.5 46t-38.5 64t-28 83.5t-11 104.5q0 50 10 108.5t22.5 110.5t23.5 90t14 47l119 -38l118 -37q-9 -27 -19 -64.5t-19 -77t-15 -76.5t-6 -64q0 -48 13.5 -77.5t33 -45
t42.5 -20.5t41 -5h1145q55 0 94 10.5t58 30.5q23 26 23 75v328h248zM1269 760l-168 170l166 172l172 -172zM850 759l-168 170l165 172l172 -172z" />
    <glyph glyph-name="uni062B" unicode="&#x62b;" horiz-adv-x="2104" arabic-form="isolated" 
d="M2032 676v-327q0 -148 -90 -244q-112 -119 -326 -120h-1154q-74 0 -140 25t-117 73q-20 19 -41.5 46t-38.5 64t-28 83.5t-11 104.5q0 50 10 108.5t22.5 110.5t23.5 90t14 47l119 -38l118 -37q-9 -27 -19 -64.5t-19 -77t-15 -76.5t-6 -64q0 -48 13.5 -77.5t33 -45
t42.5 -20.5t41 -5h1145q55 0 94 10.5t58 30.5q23 26 23 75v328h248zM1035 887l-170 -172l-170 170l170 172zM1464 891l-168 -170l-175 168l172 172zM1243 1173l-160 -160l-158 158l160 160z" />
    <glyph glyph-name="uni062C" unicode="&#x62c;" horiz-adv-x="1491" arabic-form="isolated" 
d="M1377 558l-590 -243q-129 -49 -213.5 -84t-134 -69.5t-69 -73.5t-19.5 -95q0 -71 16 -121t46 -82.5t72.5 -51t95.5 -28t115 -11.5t131 -2h461v-249h-461q-159 0 -291 25.5t-227 87.5t-148 166t-53 261q0 82 21.5 147t61 117.5t94 94t120.5 75t141 61t156 53.5l401 132
q-116 40 -235.5 78.5t-234.5 75.5q-21 7 -40.5 12.5t-37.5 5.5q-23 0 -41.5 -4.5t-33.5 -16t-27.5 -32.5t-24.5 -54l-229 69q19 60 47.5 112.5t68.5 91.5t92.5 61.5t119.5 22.5q55 0 120 -20q80 -26 146.5 -51.5t132.5 -52.5q38 -15 79 -34t93 -41.5t117.5 -49.5t152.5 -58z
M686 42l180 182l184 -184l-182 -182z" />
    <glyph glyph-name="uni062D" unicode="&#x62d;" horiz-adv-x="1485" arabic-form="isolated" 
d="M1377 558l-590 -243q-129 -49 -213.5 -84t-134 -69.5t-69 -73.5t-19.5 -95q0 -71 16 -121t46 -82.5t72.5 -51t95.5 -28t115 -11.5t131 -2h461v-249h-461q-159 0 -291 25.5t-227 87.5t-148 166t-53 261q0 82 21.5 147t61 117.5t94 94t120.5 75t141 61t156 53.5l401 132
q-116 40 -235.5 78.5t-234.5 75.5q-21 7 -40.5 12.5t-37.5 5.5q-23 0 -41.5 -4.5t-33.5 -16t-27.5 -32.5t-24.5 -54l-229 69q19 60 47.5 112.5t68.5 91.5t92.5 61.5t119.5 22.5q55 0 120 -20q80 -26 146.5 -51.5t132.5 -52.5q38 -15 79 -34t93 -41.5t117.5 -49.5t152.5 -58z
" />
    <glyph glyph-name="uni062E" unicode="&#x62e;" horiz-adv-x="1465" arabic-form="isolated" 
d="M1377 558l-590 -243q-129 -49 -213.5 -84t-134 -69.5t-69 -73.5t-19.5 -95q0 -71 16 -121t46 -82.5t72.5 -51t95.5 -28t115 -11.5t131 -2h461v-249h-461q-159 0 -291 25.5t-227 87.5t-148 166t-53 261q0 82 21.5 147t61 117.5t94 94t120.5 75t141 61t156 53.5l401 132
q-116 40 -235.5 78.5t-234.5 75.5q-21 7 -40.5 12.5t-37.5 5.5q-23 0 -41.5 -4.5t-33.5 -16t-27.5 -32.5t-24.5 -54l-229 69q19 60 47.5 112.5t68.5 91.5t92.5 61.5t119.5 22.5q55 0 120 -20q80 -26 146.5 -51.5t132.5 -52.5q38 -15 79 -34t93 -41.5t117.5 -49.5t152.5 -58z
M322 1466l180 182l184 -184l-182 -182z" />
    <glyph glyph-name="uni062F" unicode="&#x62f;" horiz-adv-x="1042" arabic-form="isolated" 
d="M515 -16q-38 0 -75 4t-75 11t-78 17.5t-84 23.5l-119 36l72 240q87 -30 180.5 -53t176 -30t143 6.5t81.5 57.5q7 14 1.5 35t-21.5 44l-373 544l210 136l68 -105q0 -1 3.5 -6t14 -21t30 -45.5t51.5 -77.5t78.5 -118.5t111.5 -168.5q51 -77 62.5 -159t-20.5 -156
q-17 -40 -45.5 -73.5t-66.5 -59.5q-71 -49 -171 -67q-84 -15 -155 -15z" />
    <glyph glyph-name="uni0630" unicode="&#x630;" horiz-adv-x="1042" arabic-form="isolated" 
d="M515 -16q-38 0 -75 4t-75 11t-78 17.5t-84 23.5l-119 36l72 240q87 -30 180.5 -53t176 -30t143 6.5t81.5 57.5q7 14 1.5 35t-21.5 44l-373 544l210 136l68 -105q0 -1 3.5 -6t14 -21t30 -45.5t51.5 -77.5t78.5 -118.5t111.5 -168.5q51 -77 62.5 -159t-20.5 -156
q-17 -40 -45.5 -73.5t-66.5 -59.5q-71 -49 -171 -67q-84 -15 -155 -15zM187 1372l180 182l184 -184l-182 -182z" />
    <glyph glyph-name="uni0631" unicode="&#x631;" horiz-adv-x="735" arabic-form="isolated" 
d="M667 46q-6 -138 -51 -248.5t-124 -188t-191 -119.5t-253 -42h-124v249h124q96 0 166 20t115 64t67 114.5t22 171.5v609h249v-630z" />
    <glyph glyph-name="uni0632" unicode="&#x632;" horiz-adv-x="795" arabic-form="isolated" 
d="M667 46q-6 -138 -51 -248.5t-124 -188t-191 -119.5t-253 -42h-124v249h124q96 0 166 20t115 64t67 114.5t22 171.5v609h249v-630zM357 1109l180 182l184 -184l-182 -182z" />
    <glyph glyph-name="uni0633" unicode="&#x633;" horiz-adv-x="2736" arabic-form="isolated" 
d="M2258 -15q-94 0 -169 26t-129 74q-30 -29 -63.5 -48t-69 -30.5t-71 -16.5t-68.5 -5q-52 0 -98 8t-88 36v-42q0 -275 -148.5 -407t-440.5 -132h-195q-134 0 -246 44t-193 125.5t-126.5 197t-45.5 259.5q0 66 8.5 132t26.5 135t46.5 144.5t69.5 161.5l224 -109
q-35 -72 -61.5 -133.5t-44 -117t-26 -107t-8.5 -103.5q0 -80 27.5 -149.5t77 -121t119 -81t152.5 -28.5h195q106 0 172.5 19.5t103.5 56.5t50.5 91t13.5 123v689h249v-180q0 -86 16 -138t42 -79.5t59.5 -36.5t68.5 -9q21 0 47.5 7.5t50.5 25.5t40 48.5t16 75.5v286h248v-296
q2 -76 41.5 -111.5t124.5 -35.5h-1q14 1 37.5 6.5t45.5 22t38 47t16 81.5q0 33 -8 84t-19 104.5t-22 100t-18 69.5l235 71q2 -6 8.5 -31t15 -61.5t18 -81t17 -90t12.5 -89t5 -76.5q0 -102 -33.5 -177.5t-87 -126t-121 -75.5t-136.5 -26z" />
    <glyph glyph-name="uni0634" unicode="&#x634;" horiz-adv-x="2742" arabic-form="isolated" 
d="M2258 -15q-94 0 -169 26t-129 74q-30 -29 -63.5 -48t-69 -30.5t-71 -16.5t-68.5 -5q-52 0 -98 8t-88 36v-42q0 -275 -148.5 -407t-440.5 -132h-195q-134 0 -246 44t-193 125.5t-126.5 197t-45.5 259.5q0 66 8.5 132t26.5 135t46.5 144.5t69.5 161.5l224 -109
q-35 -72 -61.5 -133.5t-44 -117t-26 -107t-8.5 -103.5q0 -80 27.5 -149.5t77 -121t119 -81t152.5 -28.5h195q106 0 172.5 19.5t103.5 56.5t50.5 91t13.5 123v689h249v-180q0 -86 16 -138t42 -79.5t59.5 -36.5t68.5 -9q21 0 47.5 7.5t50.5 25.5t40 48.5t16 75.5v286h248v-296
q2 -76 41.5 -111.5t124.5 -35.5h-1q14 1 37.5 6.5t45.5 22t38 47t16 81.5q0 33 -8 84t-19 104.5t-22 100t-18 69.5l235 71q2 -6 8.5 -31t15 -61.5t18 -81t17 -90t12.5 -89t5 -76.5q0 -102 -33.5 -177.5t-87 -126t-121 -75.5t-136.5 -26zM1909 1109l-170 -172l-170 170
l170 172zM2338 1113l-168 -170l-175 168l172 172zM2117 1395l-160 -160l-158 158l160 160z" />
    <glyph glyph-name="uni0635" unicode="&#x635;" horiz-adv-x="2793" arabic-form="isolated" 
d="M722 -552q-80 0 -155 19t-140.5 54t-121 86t-96.5 115q-48 79 -73.5 167.5t-25.5 194.5q0 66 8 129.5t26 131t46.5 141t69.5 158.5l225 -107q-35 -72 -59 -133t-39 -115t-22 -104t-7 -101q0 -71 15.5 -125.5t48.5 -105.5q46 -75 124.5 -115.5t175.5 -40.5h219
q106 0 172 20t103 58t50 93t13 124v357v327h248v-319q0 -17 5.5 -33t14.5 -29t20 -21.5t22 -11.5q74 121 150 230t160 190.5t180 129.5t210 48q78 0 154 -23t136 -76.5t96.5 -139.5t36.5 -212q0 -119 -39.5 -200.5t-101.5 -131t-139 -71t-152 -21.5h-573q-18 0 -41.5 1
t-47.5 4t-48 9.5t-43 17.5v-25q0 -278 -147 -411t-439 -133h-219zM2280 234q33 0 72.5 8.5t73.5 28.5t57 54t23 84q0 56 -18 94.5t-48.5 62.5t-69.5 34.5t-81 10.5q-59 0 -122 -31.5t-125 -83.5t-119.5 -120.5t-103.5 -141.5h461z" />
    <glyph glyph-name="uni0636" unicode="&#x636;" horiz-adv-x="2784" arabic-form="isolated" 
d="M722 -552q-80 0 -155 19t-140.5 54t-121 86t-96.5 115q-48 79 -73.5 167.5t-25.5 194.5q0 66 8 129.5t26 131t46.5 141t69.5 158.5l225 -107q-35 -72 -59 -133t-39 -115t-22 -104t-7 -101q0 -71 15.5 -125.5t48.5 -105.5q46 -75 124.5 -115.5t175.5 -40.5h219
q106 0 172 20t103 58t50 93t13 124v357v327h248v-319q0 -17 5.5 -33t14.5 -29t20 -21.5t22 -11.5q74 121 150 230t160 190.5t180 129.5t210 48q78 0 154 -23t136 -76.5t96.5 -139.5t36.5 -212q0 -119 -39.5 -200.5t-101.5 -131t-139 -71t-152 -21.5h-573q-18 0 -41.5 1
t-47.5 4t-48 9.5t-43 17.5v-25q0 -278 -147 -411t-439 -133h-219zM2280 234q33 0 72.5 8.5t73.5 28.5t57 54t23 84q0 56 -18 94.5t-48.5 62.5t-69.5 34.5t-81 10.5q-59 0 -122 -31.5t-125 -83.5t-119.5 -120.5t-103.5 -141.5h461zM2077 1229l180 182l184 -184l-182 -182z
" />
    <glyph glyph-name="uni0637" unicode="&#x637;" horiz-adv-x="1525" arabic-form="isolated" 
d="M97 -15v249h199l84 129v1064h248v-759q40 41 84 75.5t92 60t100 40t108 14.5q79 0 155 -23t136 -76t96.5 -139t36.5 -212q0 -120 -40 -201.5t-102.5 -130.5t-140 -70t-152.5 -21h-904zM1012 610q-58 0 -120 -31t-123 -83t-117 -120t-102 -142h451q5 0 24 1t45 5.5t55 15
t53 30t40 49t16 73.5q0 56 -19 94.5t-50 62.5t-71 34.5t-82 10.5z" />
    <glyph glyph-name="uni0638" unicode="&#x638;" horiz-adv-x="1532" arabic-form="isolated" 
d="M97 -15v249h199l84 129v1064h248v-759q40 41 84 75.5t92 60t100 40t108 14.5q79 0 155 -23t136 -76t96.5 -139t36.5 -212q0 -120 -40 -201.5t-102.5 -130.5t-140 -70t-152.5 -21h-904zM1012 610q-58 0 -120 -31t-123 -83t-117 -120t-102 -142h451q5 0 24 1t45 5.5t55 15
t53 30t40 49t16 73.5q0 56 -19 94.5t-50 62.5t-71 34.5t-82 10.5zM859 1287l180 182l184 -184l-182 -182z" />
    <glyph glyph-name="uni0639" unicode="&#x639;" horiz-adv-x="1387" arabic-form="isolated" 
d="M1233 -553h-480q-83 0 -165.5 15t-157.5 45.5t-139 78t-111.5 112t-74 146.5t-26.5 183q0 128 51 235.5t145 188.5q51 43 107.5 74t119.5 49q-31 38 -49.5 75.5t-28.5 72t-13 64t-3 52.5q0 88 35.5 165t95 134.5t138.5 90.5t166 33q56 0 103.5 -12t92 -33t88 -48.5
t90.5 -58.5l-111 -201q-63 36 -102.5 56.5t-66.5 31t-48 13.5t-46 3q-34 0 -69 -12t-63.5 -34.5t-46.5 -54.5t-18 -73q0 -25 19 -63.5t68 -80.5l-1 1q61 -48 162.5 -74t235.5 -26h112v-249h-590q-49 0 -108 -18.5t-110 -57.5t-85.5 -99t-34.5 -144q0 -80 27.5 -136
t70.5 -92.5t95 -57t100.5 -31t88 -12.5t57.5 -2h480v-249z" />
    <glyph glyph-name="uni063A" unicode="&#x63a;" horiz-adv-x="1368" arabic-form="isolated" 
d="M1233 -553h-480q-83 0 -165.5 15t-157.5 45.5t-139 78t-111.5 112t-74 146.5t-26.5 183q0 128 51 235.5t145 188.5q51 43 107.5 74t119.5 49q-31 38 -49.5 75.5t-28.5 72t-13 64t-3 52.5q0 88 35.5 165t95 134.5t138.5 90.5t166 33q56 0 103.5 -12t92 -33t88 -48.5
t90.5 -58.5l-111 -201q-63 36 -102.5 56.5t-66.5 31t-48 13.5t-46 3q-34 0 -69 -12t-63.5 -34.5t-46.5 -54.5t-18 -73q0 -25 19 -63.5t68 -80.5l-1 1q61 -48 162.5 -74t235.5 -26h112v-249h-590q-49 0 -108 -18.5t-110 -57.5t-85.5 -99t-34.5 -144q0 -80 27.5 -136
t70.5 -92.5t95 -57t100.5 -31t88 -12.5t57.5 -2h480v-249zM651 1590l180 182l184 -184l-182 -182z" />
    <glyph glyph-name="uni0641" unicode="&#x641;" horiz-adv-x="2104" arabic-form="isolated" 
d="M462 -15q-74 0 -140 25t-117 73q-20 19 -41.5 46t-38.5 64t-28 83.5t-11 104.5q0 50 10 108.5t22.5 110.5t23.5 90t14 47l119 -38l118 -37q-9 -27 -19 -64.5t-19 -77t-15 -76.5t-6 -64q0 -48 13.5 -77t33 -44.5t42.5 -20t41 -4.5h1005q84 0 141 9.5t92.5 24.5t53.5 33.5
t26 37.5q-133 -18 -239 -3.5t-180 60t-113.5 121.5t-39.5 182q0 84 31 158.5t86.5 130t131 87t165.5 27.5q81 -3 142 -28t106.5 -66t76 -95.5t49 -117.5t27 -131.5t9.5 -137.5l-4 -74q-8 -140 -56 -230.5t-124.5 -143t-174.5 -73t-206 -20.5h-1007zM1622 853q-36 3 -70 -5.5
t-59.5 -28.5t-41 -49.5t-15.5 -68.5q0 -87 91.5 -125.5t263.5 -10.5q-2 43 -7 91t-22 90t-50 71.5t-90 35.5zM1422 1470l180 182l184 -184l-182 -182z" />
    <glyph glyph-name="uni0642" unicode="&#x642;" horiz-adv-x="1598" arabic-form="isolated" 
d="M709 -552q-80 0 -154.5 19t-140.5 54t-121 86t-95 115q-48 78 -74.5 165.5t-26.5 192.5q0 65 6.5 129t23 132t44.5 142t70 159l223 -106q-36 -73 -59 -134t-36.5 -115.5t-18.5 -105t-5 -102.5q0 -70 16 -122.5t48 -103.5q46 -75 124.5 -115.5t175.5 -40.5h75
q110 0 198 10t150 41t95.5 87.5t33.5 149.5h-143q-50 0 -102 8.5t-100 28t-90.5 51.5t-74 78.5t-50 108.5t-18.5 142q0 93 27.5 177t81.5 147.5t134 101.5t185 38q106 0 181.5 -39.5t123.5 -107t70.5 -156.5t22.5 -188v-360q0 -112 -23.5 -197.5t-68 -148.5t-108 -105.5
t-143 -68t-173.5 -36.5t-199 -11h-85zM1111 629q-85 0 -133.5 -57t-48.5 -170q0 -45 16.5 -76.5t43.5 -52t60.5 -30t68.5 -9.5h143v141q0 93 -17.5 144t-41.5 75.5t-49.5 29.5t-41.5 5zM1290 1064l-168 170l166 172l172 -172zM871 1063l-168 170l165 172l172 -172z" />
    <glyph glyph-name="uni0643" unicode="&#x643;" horiz-adv-x="2057" arabic-form="isolated" 
d="M831 622q106 21 168 41.5t90 35.5q-34 -1 -68 -2.5t-68 -2.5q-31 0 -61.5 7.5t-54.5 24t-38.5 42t-14.5 62.5q0 34 18.5 66t50.5 63.5t76.5 63t95.5 65.5l69 -120q-93 -55 -135 -90.5t-51 -51.5q15 0 31.5 0.5t37.5 0.5t48 0.5t64 0.5q27 -1 51.5 -10t42.5 -25t28.5 -39
t10.5 -53q0 -44 -24 -74t-70 -53.5t-114.5 -43t-156.5 -43.5zM1058 231q114 0 215 4.5t181 14.5t136 26t80 39q15 15 22.5 43.5t7.5 79.5v989h249v-989q0 -36 -4 -75t-15.5 -78t-32 -77.5t-54.5 -73.5q-45 -47 -121 -76.5t-176.5 -46t-222 -22.5t-257.5 -6h-11l-598 2
q-74 0 -140 25t-117 73q-20 19 -41.5 46t-38.5 64t-28 83.5t-11 104.5q0 50 10 108.5t22.5 110.5t23.5 90t14 47l119 -38l118 -37q-9 -27 -19 -64.5t-19 -77t-15 -76.5t-6 -64q0 -48 13.5 -77.5t33 -45t42.5 -20.5t41 -5z" />
    <glyph glyph-name="uni0644" unicode="&#x644;" horiz-adv-x="1335" arabic-form="isolated" 
d="M594 -568q-71 0 -136 16t-122 47t-105 74.5t-84 99.5q-15 24 -30.5 56.5t-27.5 73.5t-20 91t-8 109q0 49 5 100.5t19 109.5t39 125.5t65 150.5l225 -107q-30 -62 -50.5 -113.5t-32.5 -97t-17.5 -86.5t-5.5 -83q0 -57 12.5 -106.5t37.5 -89.5l-1 1q38 -54 101.5 -88
t135.5 -34h46q105 0 171.5 22t104 62t51 97t13.5 127v1438h246v-1438q0 -555 -586 -557h-46z" />
    <glyph glyph-name="uni0645" unicode="&#x645;" horiz-adv-x="1382" arabic-form="isolated" 
d="M955 215q9 0 27.5 1.5t38 19.5t34 60t14.5 122q0 9 -2.5 29t-10 44.5t-20.5 50t-34 46.5t-50 34.5t-69 13.5q-18 0 -37 -2t-38.5 -11.5t-38.5 -29t-36.5 -53.5t-33 -86t-27.5 -127q39 -21 80 -41t78.5 -36t70 -25.5t54.5 -9.5zM879 885q101 0 178 -37.5t129.5 -101.5
t79.5 -149t27 -179q0 -104 -18 -177.5t-47.5 -123.5t-66 -80t-74 -45.5t-72.5 -20t-60 -4.5q-42 0 -95.5 16t-114 42t-127 60t-133.5 69q-25 13 -46.5 24t-42 21.5t-41.5 21t-45 21.5q0 -226 1 -451.5t1 -450.5h-241l-1 1036l234 142l162 -81q17 87 45 168.5t75 144.5
t118 100t175 35z" />
    <glyph glyph-name="uni0646" unicode="&#x646;" horiz-adv-x="1576" arabic-form="isolated" 
d="M700 -553q-80 0 -154 19t-139.5 54t-121 86t-96.5 115q-48 78 -74 173.5t-26 199.5q0 66 8 128t25.5 127t46 136t69.5 156l225 -107q-36 -73 -60 -131t-39 -109.5t-21.5 -99t-6.5 -99.5q0 -68 17 -130.5t47 -112.5q48 -71 126.5 -113.5t173.5 -42.5h203q106 0 172.5 22
t103.5 62.5t50.5 97.5t13.5 126v673h249v-673q0 -279 -147.5 -418t-441.5 -139h-203zM680 755l180 182l184 -184l-182 -182z" />
    <glyph glyph-name="uni0647" unicode="&#x647;" horiz-adv-x="1042" arabic-form="isolated" 
d="M519 -15q-96 0 -176.5 27.5t-138.5 78t-90.5 120.5t-32.5 155q0 84 21 150.5t56.5 124t83 110t100.5 108.5l-63 71l184 167q11 -13 26 -29t30.5 -33t30.5 -33t27 -29q72 -77 140.5 -149.5t122 -145t86 -146t31.5 -152.5q-1 -88 -35 -157.5t-99 -128.5q-60 -51 -136.5 -80
t-167.5 -29zM507 706q-40 -45 -75.5 -85t-61 -80t-39 -82.5t-10.5 -92.5q3 -37 22 -63.5t47 -44t62 -25.5t67 -8q38 0 73 11t61.5 31t42.5 49t16 64q0 43 -17 84t-45.5 81t-65.5 80t-77 81z" />
    <glyph glyph-name="uni0648" unicode="&#x648;" horiz-adv-x="1024" arabic-form="isolated" 
d="M178 -303q80 0 142.5 5.5t111 16t85 27t63.5 39.5q42 34 63.5 79t25.5 121h-154q-50 0 -102 8t-100 27.5t-90.5 50.5t-74 76.5t-50 107.5t-18.5 142q0 69 12 122.5t30.5 94.5t41.5 71.5t44 53.5q60 60 136 92.5t164 32.5q109 0 186.5 -37.5t127 -103.5t72.5 -156.5
t23 -196.5v-355q0 -149 -45 -250.5t-137 -174.5q-46 -36 -100 -62.5t-121 -44.5t-149.5 -26.5t-186.5 -8.5v249zM508 615q-85 0 -135 -53t-50 -165q0 -44 17.5 -75t45 -50.5t61.5 -28.5t68 -9h154v136q0 57 -9 97.5t-23.5 67.5t-33 43t-36 24t-33.5 10.5t-26 2.5z" />
    <glyph glyph-name="uni0649" unicode="&#x649;" horiz-adv-x="1671" arabic-form="isolated" 
d="M940 -316q91 0 157.5 11.5t109.5 40t64.5 76.5t22.5 121q-14 4 -44.5 12t-72 19t-90 24t-98.5 26.5t-98.5 26t-89.5 22.5q-26 66 -38.5 128.5t-12.5 122.5q0 114 42 215.5t120 177t190.5 119.5t253.5 44q50 0 99.5 -8t112.5 -25l-63 -240q-47 14 -82 20.5t-72 6.5
q-75 0 -139.5 -21.5t-112 -62.5t-75 -100t-27.5 -134v-12.5t1 -12.5l351 -90q96 -24 139 -81.5t43 -142.5q0 -139 -32 -239.5t-102.5 -166t-183 -97t-273.5 -31.5h-211q-82 0 -157 19t-141 54.5t-121 86t-97 114.5q-99 160 -99 375q0 66 9 131t28.5 133.5t49.5 143.5t72 162
l222 -107q-35 -74 -59.5 -135.5t-41 -116t-24 -105t-7.5 -101.5q0 -145 64 -246q46 -76 125.5 -116.5t176.5 -40.5h211v0z" />
    <glyph glyph-name="uni064A" unicode="&#x64a;" horiz-adv-x="1695" arabic-form="isolated" 
d="M940 -316q91 0 157.5 11.5t109.5 40t64.5 76.5t22.5 121q-14 4 -44.5 12t-72 19t-90 24t-98.5 26.5t-98.5 26t-89.5 22.5q-26 66 -38.5 128.5t-12.5 122.5q0 114 42 215.5t120 177t190.5 119.5t253.5 44q50 0 99.5 -8t112.5 -25l-63 -240q-47 14 -82 20.5t-72 6.5
q-75 0 -139.5 -21.5t-112 -62.5t-75 -100t-27.5 -134v-12.5t1 -12.5l351 -90q96 -24 139 -81.5t43 -142.5q0 -139 -32 -239.5t-102.5 -166t-183 -97t-273.5 -31.5h-211q-82 0 -157 19t-141 54.5t-121 86t-97 114.5q-99 160 -99 375q0 66 9 131t28.5 133.5t49.5 143.5t72 162
l222 -107q-35 -74 -59.5 -135.5t-41 -116t-24 -105t-7.5 -101.5q0 -145 64 -246q46 -76 125.5 -116.5t176.5 -40.5h211v0zM1050 -988l-168 170l166 172l172 -172zM631 -989l-168 170l165 172l172 -172z" />
    <glyph glyph-name="uni066E.init" unicode="&#x66e;" horiz-adv-x="671" 
d="M552 825q2 -7 8.5 -33t14.5 -63.5t16.5 -83.5t16 -92.5t12 -90.5t4.5 -77q0 -103 -34 -178.5t-89 -124.5t-123.5 -73t-137.5 -24h-266v249h273q12 0 34.5 3.5t45 18.5t39.5 45.5t17 83.5q0 22 -3.5 53.5t-9.5 67.5t-13.5 73.5t-14.5 71t-14 61t-11 42.5z" />
    <glyph glyph-name="uni066E.medi" unicode="&#x66e;" horiz-adv-x="782" 
d="M801 234v-249h-63q-85 0 -155 23t-118 68q-56 -47 -132.5 -69t-174.5 -22h-177v249h177q61 0 97.5 11.5t55 28.5t24 38t5.5 41v324h248v-317q0 -45 20 -70.5t45.5 -38t50.5 -15t34 -2.5h63z" />
    <glyph glyph-name="uni066E.fina" unicode="&#x66e;" horiz-adv-x="2249" 
d="M2041 676v-293q0 -35 10.5 -59.5t27 -41t36.5 -26t39 -14.5t33.5 -6.5t21.5 -1.5h62v-249h-62q-34 0 -72.5 4.5t-77 15t-74.5 28.5t-64 44q-109 -91 -296 -92h-1154q-74 0 -140 25t-117 73q-20 19 -41.5 46t-38.5 64t-28 83.5t-11 104.5q0 50 10 108.5t22.5 110.5
t23.5 90t14 47l119 -38l118 -37q-9 -27 -19 -64.5t-19 -77.5t-15 -77t-6 -64q0 -48 13.5 -77.5t33 -45t42.5 -20.5t41 -5h1145q55 0 94 10.5t58 30.5q23 26 23 75v329h248z" />
    <glyph glyph-name="uni066F.init" unicode="&#x66f;" horiz-adv-x="1036" 
d="M-36 -15v249h408q84 0 141 9.5t92.5 24.5t53.5 33.5t26 37.5q-133 -18 -239 -3.5t-180 60t-113.5 121.5t-39.5 182q0 84 31 158.5t86.5 130t131 87t165.5 27.5q80 -3 141.5 -28t107 -66t76 -95.5t49 -117.5t27 -131.5t9.5 -137.5l-4 -74q-8 -140 -56 -230.5t-124.5 -143
t-174.5 -73t-206 -20.5h-408zM525 853q-36 3 -70 -5.5t-59.5 -28.5t-41 -49.5t-15.5 -68.5q0 -87 91.5 -125.5t263.5 -10.5q-2 43 -7 91t-22 90t-50 71.5t-90 35.5z" />
    <glyph glyph-name="uni066F.medi" unicode="&#x66f;" horiz-adv-x="1078" 
d="M554 867q93 0 166.5 -34t124.5 -89.5t78 -126.5t27 -146q0 -42 -5 -73.5t-15.5 -58t-25.5 -51t-35 -52.5q18 -1 39.5 -1.5t43 -0.5h41.5h35h72v-249h-72q-64 0 -130.5 4t-130 11.5t-120.5 18t-102 23.5q-91 -26 -204 -41.5t-258 -15.5h-105v249h105q27 0 43 -0.5t29 -0.5
t27 0.5t35 2.5q-42 56 -64 111t-22 124q0 79 33 151t90.5 126.5t134.5 86.5t165 32zM367 469q0 -71 50 -121t130 -81q38 15 70 34t55.5 43.5t37 56t13.5 70.5q0 24 -12 50t-34 47.5t-53 35.5t-70 14q-44 0 -79 -12.5t-59 -33t-36.5 -47.5t-12.5 -56z" />
    <glyph glyph-name="uni066F.fina" unicode="&#x66f;" horiz-adv-x="1652" 
d="M709 -552q-89 0 -169.5 22.5t-148.5 64t-122.5 99t-92.5 128t-58.5 151t-20.5 167.5q0 65 6.5 129t23 132t44.5 142t70 159l223 -106q-36 -73 -59 -134t-36.5 -115.5t-18.5 -105t-5 -102.5q0 -80 25.5 -149.5t73 -121.5t114.5 -81.5t151 -29.5h75q110 0 198 10t150 41
t95.5 87.5t33.5 149.5h-143q-50 0 -102 8.5t-100 28t-90.5 51.5t-74 78.5t-50 108.5t-18.5 142q0 93 27.5 177t81.5 147.5t134 101.5t185 38q106 0 181.5 -39.5t123.5 -107t70.5 -156.5t22.5 -188v-141h169v-249h-170q-5 -158 -59.5 -262t-148.5 -165t-223 -85.5t-283 -24.5
h-85zM1111 629q-85 0 -133.5 -57t-48.5 -170q0 -45 16.5 -76.5t43.5 -52t60.5 -30t68.5 -9.5h143v141q0 93 -17.5 144t-41.5 75.5t-49.5 29.5t-41.5 5z" />
    <glyph glyph-name="uni0671" unicode="&#x671;" horiz-adv-x="592" arabic-form="isolated" 
d="M423 -15h-249v1295h249v-1295zM-29 1421l24 109h132l44 68l83 122q35 52 86 82.5t111 30.5q34 0 68 -13t61 -40t43.5 -68t16.5 -97q0 -54 -18 -91t-46 -60t-62.5 -33t-67.5 -10h-475zM451 1724q-27 0 -53.5 -18t-51 -46t-47.5 -62.5t-43 -67.5h190q36 0 60 20t24 65
q0 53 -20.5 81t-58.5 28z" />
    <glyph glyph-name="uni0672.fina" unicode="&#x672;" horiz-adv-x="647" 
d="M675 -15q-79 0 -141 8.5t-111 25.5t-87 42.5t-69 60.5q-32 37 -52 81.5t-30.5 91t-14 94t-3.5 91.5v800h249v-800q0 -81 9 -127.5t29 -69.5q12 -12 29 -21.5t43 -15.5t62.5 -9t86.5 -3v-249zM273 1464q-38 0 -64 7.5t-46 17t-37 17t-38 7.5q-14 0 -26.5 -13t-31.5 -50
l-98 64q17 34 34 56.5t34.5 35.5t35 18t35.5 5q20 0 40.5 -5t40 -12.5t37.5 -15t34 -13.5q-22 32 -28.5 62t-6.5 49q0 42 16.5 78t44 62.5t64 42t77.5 15.5q24 0 45.5 -5t44 -14t46.5 -23t54 -32l-56 -98q-17 11 -35.5 21.5t-36 19t-33.5 13.5t-29 5q-16 0 -32.5 -5.5
t-29.5 -16.5t-21 -27t-8 -36q0 -35 21 -57.5t54 -35.5t73 -18.5t79 -5.5h66v-113h-319z" />
    <glyph glyph-name="uni0673.fina" unicode="&#x673;" horiz-adv-x="647" 
d="M671 -15q-110 0 -189 13.5t-133 40t-86.5 67.5t-49.5 96t-22.5 124.5t-5.5 153.5v947h249v-947q0 -80 5.5 -128t29 -74.5t71 -35t131.5 -8.5v-249zM312 -565q-38 0 -64 7.5t-46 17t-37 17t-38 7.5q-14 0 -26.5 -13t-31.5 -50l-98 64q17 34 34 56.5t34.5 35.5t35 18
t35.5 5q20 0 40.5 -5t40 -12.5t37.5 -15t34 -13.5q-22 32 -28.5 62t-6.5 49q0 42 16.5 78t44 62.5t64 42t77.5 15.5q24 0 45.5 -5t44 -14t46.5 -23t54 -32l-56 -98q-17 11 -35.5 21.5t-36 19t-33.5 13.5t-29 5q-16 0 -32.5 -5.5t-29.5 -16.5t-21 -27t-8 -36q0 -35 21 -57.5
t54 -35.5t73 -18.5t79 -5.5h66v-113h-319z" />
    <glyph glyph-name="uni0675.fina" unicode="&#x675;" horiz-adv-x="647" 
d="M675 -15q-79 0 -141 8.5t-111 25.5t-87 42.5t-69 60.5q-32 37 -52 81.5t-30.5 91t-14 94t-3.5 91.5v800h249v-800q0 -81 9 -127.5t29 -69.5q12 -12 29 -21.5t43 -15.5t62.5 -9t86.5 -3v-249zM494 837v149l124 40q-30 31 -49.5 70t-19.5 83q0 34 12 67t33 61t49.5 49
t60.5 30q17 5 34.5 7.5t34.5 2.5q36 0 63.5 -8.5t51.5 -17.5l17 -8l-30 -124q-14 3 -31 8t-34 8t-33.5 3.5t-29.5 -3.5q-14 -5 -27.5 -14t-22.5 -20.5t-12.5 -26.5t2.5 -32q8 -26 37.5 -44t82.5 -18q10 0 21.5 1t30.5 5.5t48.5 13t75.5 23.5l8 -141z" />
    <glyph glyph-name="uni0676.fina" unicode="&#x676;" horiz-adv-x="1070" 
d="M178 -303q80 0 142.5 5.5t111 16t85 27t63.5 39.5q42 34 63.5 79t25.5 121h-154q-50 0 -102 8t-100 27.5t-90.5 50.5t-74 76.5t-50 107.5t-18.5 142q0 69 12 122.5t30.5 94.5t41.5 71.5t44 53.5q60 60 136 92.5t164 32.5q109 0 186.5 -37.5t127 -103.5t72.5 -156.5
t23 -196.5v-136h170v-249h-171q-4 -137 -48.5 -231t-132.5 -164q-46 -36 -100 -62.5t-121 -44.5t-149.5 -26.5t-186.5 -8.5v249zM508 615q-85 0 -135 -53t-50 -165q0 -44 17.5 -75t45 -50.5t61.5 -28.5t68 -9h154v136q0 57 -9 97.5t-23.5 67.5t-33 43t-36 24t-33.5 10.5
t-26 2.5zM631 918v149l124 40q-30 31 -49.5 70t-19.5 83q0 34 12 67t33 61t49.5 49t60.5 30q17 5 34.5 7.5t34.5 2.5q36 0 63.5 -8.5t51.5 -17.5l17 -8l-30 -124q-14 3 -31 8t-34 8t-33.5 3.5t-29.5 -3.5q-14 -5 -27.5 -14t-22.5 -20.5t-12.5 -26.5t2.5 -32q8 -26 37.5 -44
t82.5 -18q10 0 21.5 1t30.5 5.5t48.5 13t75.5 23.5l8 -141z" />
    <glyph glyph-name="uni0677.fina" unicode="&#x677;" horiz-adv-x="1070" 
d="M178 -303q80 0 142.5 5.5t111 16t85 27t63.5 39.5q42 34 63.5 79t25.5 121h-154q-50 0 -102 8t-100 27.5t-90.5 50.5t-74 76.5t-50 107.5t-18.5 142q0 69 12 122.5t30.5 94.5t41.5 71.5t44 53.5q60 60 136 92.5t164 32.5q109 0 186.5 -37.5t127 -103.5t72.5 -156.5
t23 -196.5v-136h170v-249h-171q-4 -137 -48.5 -231t-132.5 -164q-46 -36 -100 -62.5t-121 -44.5t-149.5 -26.5t-186.5 -8.5v249zM508 615q-85 0 -135 -53t-50 -165q0 -44 17.5 -75t45 -50.5t61.5 -28.5t68 -9h154v136q0 57 -9 97.5t-23.5 67.5t-33 43t-36 24t-33.5 10.5
t-26 2.5zM662 941v149l124 40q-30 31 -49.5 70t-19.5 83q0 34 12 67t33 61t49.5 49t60.5 30q17 5 34.5 7.5t34.5 2.5q36 0 63.5 -8.5t51.5 -17.5l17 -8l-30 -124q-14 3 -31 8t-34 8t-33.5 3.5t-29.5 -3.5q-14 -5 -27.5 -14t-22.5 -20.5t-12.5 -26.5t2.5 -32q8 -26 37.5 -44
t82.5 -18q10 0 21.5 1t30.5 5.5t48.5 13t75.5 23.5l8 -141zM-9 1017q33 10 70.5 22.5t75 27.5t72.5 32.5t63 38.5q-37 12 -67.5 32t-52.5 46t-34.5 55.5t-12.5 61.5q0 33 13 62q12 25 32 48t44.5 40t52.5 27t56 10q36 0 67 -17q57 -31 81 -78.5t24 -103.5q0 -54 -19.5 -110
t-53.5 -104q-33 -47 -86.5 -82.5t-109.5 -60.5t-106 -40.5t-76 -23.5zM305 1401q-23 0 -51.5 -11.5t-41.5 -35.5q-6 -11 3 -29.5t28.5 -37.5t46.5 -35t57 -20q6 15 10.5 38t4.5 47q0 31 -12.5 56t-45.5 28h1z" />
    <glyph glyph-name="uni0678.fina" unicode="&#x678;" horiz-adv-x="1797" 
d="M1533 -15q23 -33 38 -72.5t15 -71.5q0 -93 -51 -168.5t-138 -128.5t-202.5 -82t-245.5 -29h-256q-82 0 -157 19t-141 54.5t-121 86t-97 114.5q-99 160 -99 375q0 66 7.5 131t25 133.5t46 143t70.5 161.5l222 -107q-35 -74 -58 -135t-37.5 -115.5t-20.5 -105t-6 -101.5
q0 -145 64 -246q46 -76 125.5 -116.5t176.5 -40.5h256q75 0 142 14t118 39t83 57.5t37 70.5q-29 31 -73.5 52.5t-101 36t-122 22t-136.5 10.5l7 248h907v-249h-277zM904 336v149l124 40q-30 31 -49.5 70t-19.5 83q0 34 12 67t33 61t49.5 49t60.5 30q17 5 34.5 7.5t34.5 2.5
q36 0 63.5 -8.5t51.5 -17.5l17 -8l-30 -124q-14 3 -31 8t-34 8t-33.5 3.5t-29.5 -3.5q-14 -5 -27.5 -14t-22.5 -20.5t-12.5 -26.5t2.5 -32q8 -26 37.5 -44t82.5 -18q10 0 21.5 1t30.5 5.5t48.5 13t75.5 23.5l8 -141z" />
    <glyph glyph-name="uni0679" unicode="&#x679;" horiz-adv-x="2135" arabic-form="isolated" 
d="M2032 676v-327q0 -148 -90 -244q-112 -119 -326 -120h-1154q-74 0 -140 25t-117 73q-20 19 -41.5 46t-38.5 64t-28 83.5t-11 104.5q0 50 10 108.5t22.5 110.5t23.5 90t14 47l119 -38l118 -37q-9 -27 -19 -64.5t-19 -77t-15 -76.5t-6 -64q0 -48 13.5 -77.5t33 -45
t42.5 -20.5t41 -5h1145q55 0 94 10.5t58 30.5q23 26 23 75v328h248zM806 658v109h104q3 4 5.5 8.5t7 11.5t12 17.5t18.5 26.5v488h107v-343q36 38 79.5 63t95.5 25q34 0 68 -12t61 -37.5t43.5 -66t16.5 -96.5q0 -54 -18 -91t-46 -60t-62.5 -33t-67.5 -10h-424zM1235 955
q-26 0 -52 -16.5t-51 -43.5t-48 -60.5t-44 -67.5h190q36 0 62 20t26 65q0 53 -22.5 78t-60.5 25z" />
    <glyph glyph-name="uni067A.init" unicode="&#x67a;" horiz-adv-x="688" arabic-form="initial" 
d="M552 825q2 -7 8.5 -33t14.5 -63.5t16.5 -83.5t16 -92.5t12 -90.5t4.5 -77q0 -103 -34 -178.5t-89 -124.5t-123.5 -73t-137.5 -24h-266v249h273q12 0 34.5 3.5t45 18.5t39.5 45.5t17 83.5q0 22 -3.5 53.5t-9.5 67.5t-13.5 73.5t-14.5 71t-14 61t-11 42.5zM386 922
l-165 167l163 171l170 -170zM553 1478l-167 -165l-171 163l170 170z" />
    <glyph glyph-name="uni067A.medi" unicode="&#x67a;" horiz-adv-x="1048" arabic-form="medial" 
d="M1061 234v-249h-148q-85 0 -155 23t-118 68q-56 -47 -132.5 -69t-174.5 -22h-346v249h346q61 0 97.5 11.5t55 28.5t24 38t5.5 41v324h248v-317q0 -45 20 -70.5t45.5 -38t50.5 -15t34 -2.5h148zM642 846l-165 167l163 171l170 -170zM809 1402l-167 -165l-171 163l170 170z
" />
    <glyph glyph-name="uni067A.fina" unicode="&#x67a;" horiz-adv-x="2259" arabic-form="final" 
d="M2041 676v-293q0 -35 10.5 -59.5t27 -41t36.5 -26t39 -14.5t33.5 -6.5t21.5 -1.5h62v-249h-62q-34 0 -72.5 4.5t-77 15t-74.5 28.5t-64 44q-109 -91 -296 -92h-1154q-74 0 -140 25t-117 73q-20 19 -41.5 46t-38.5 64t-28 83.5t-11 104.5q0 50 10 108.5t22.5 110.5
t23.5 90t14 47l119 -38l118 -37q-9 -27 -19 -64.5t-19 -77.5t-15 -77t-6 -64q0 -48 13.5 -77.5t33 -45t42.5 -20.5t41 -5h1145q55 0 94 10.5t58 30.5q23 26 23 75v329h248zM1068 591l-165 167l163 171l170 -170zM1235 1147l-167 -165l-171 163l170 170z" />
    <glyph glyph-name="uni067B.init" unicode="&#x67b;" horiz-adv-x="712" arabic-form="initial" 
d="M552 825q2 -7 8.5 -33t14.5 -63.5t16.5 -83.5t16 -92.5t12 -90.5t4.5 -77q0 -103 -34 -178.5t-89 -124.5t-123.5 -73t-137.5 -24h-266v249h273q12 0 34.5 3.5t45 18.5t39.5 45.5t17 83.5q0 22 -3.5 53.5t-9.5 67.5t-13.5 73.5t-14.5 71t-14 61t-11 42.5zM370 -886
l-165 167l163 171l170 -170zM537 -330l-167 -165l-171 163l170 170z" />
    <glyph glyph-name="uni067B.medi" unicode="&#x67b;" horiz-adv-x="788" arabic-form="medial" 
d="M801 234v-249h-63q-85 0 -155 23t-118 68q-56 -47 -132.5 -69t-174.5 -22h-177v249h177q61 0 97.5 11.5t55 28.5t24 38t5.5 41v324h248v-317q0 -45 20 -70.5t45.5 -38t50.5 -15t34 -2.5h63zM443 -886l-165 167l163 171l170 -170zM610 -330l-167 -165l-171 163l170 170z
" />
    <glyph glyph-name="uni067B.fina" unicode="&#x67b;" horiz-adv-x="2254" arabic-form="final" 
d="M2041 676v-293q0 -35 10.5 -59.5t27 -41t36.5 -26t39 -14.5t33.5 -6.5t21.5 -1.5h62v-249h-62q-34 0 -72.5 4.5t-77 15t-74.5 28.5t-64 44q-109 -91 -296 -92h-1154q-74 0 -140 25t-117 73q-20 19 -41.5 46t-38.5 64t-28 83.5t-11 104.5q0 50 10 108.5t22.5 110.5
t23.5 90t14 47l119 -38l118 -37q-9 -27 -19 -64.5t-19 -77.5t-15 -77t-6 -64q0 -48 13.5 -77.5t33 -45t42.5 -20.5t41 -5h1145q55 0 94 10.5t58 30.5q23 26 23 75v329h248zM1053 -900l-165 167l163 171l170 -170zM1220 -344l-167 -165l-171 163l170 170z" />
    <glyph glyph-name="uni067C.init" unicode="&#x67c;" horiz-adv-x="868" 
d="M728 825q2 -7 8.5 -33t14.5 -63.5t16.5 -83.5t16 -92.5t12 -90.5t4.5 -77q0 -103 -34 -178.5t-89 -124.5t-123.5 -73t-137.5 -24h-431v249h438q12 0 34.5 3.5t45 18.5t39.5 45.5t17 83.5q0 22 -3.5 53.5t-9.5 67.5t-13.5 73.5t-14.5 71t-14 61t-11 42.5zM383 -365
q-54 0 -97 16t-74 45t-47.5 71t-16.5 95t16.5 96t47.5 73t74.5 46t96.5 16q51 0 95.5 -16t76.5 -46t50.5 -72.5t18.5 -94.5t-18 -95t-50 -73t-76.5 -46t-96.5 -15zM383 -238q22 0 41.5 6.5t34.5 19.5t23.5 31.5t8.5 42.5t-8.5 43.5t-23.5 33t-34.5 21t-41.5 7.5
q-45 0 -77.5 -28t-32.5 -77q0 -51 29.5 -75.5t80.5 -24.5zM719 1020l-168 170l166 172l172 -172zM300 1019l-168 170l165 172l172 -172z" />
    <glyph glyph-name="uni067C.medi" unicode="&#x67c;" horiz-adv-x="1052" 
d="M1061 234v-249h-148q-85 0 -155 23t-118 68q-56 -47 -132.5 -69t-174.5 -22h-346v249h346q61 0 97.5 11.5t55 28.5t24 38t5.5 41v324h248v-317q0 -45 20 -70.5t45.5 -38t50.5 -15t34 -2.5h148zM636 -300q-54 0 -97 16t-74 45t-47.5 71t-16.5 95t16.5 96t47.5 73t74.5 46
t96.5 16q51 0 95.5 -16t76.5 -46t50.5 -72.5t18.5 -94.5t-18 -95t-50 -73t-76.5 -46t-96.5 -15zM636 -173q22 0 41.5 6.5t34.5 19.5t23.5 31.5t8.5 42.5t-8.5 43.5t-23.5 33t-34.5 21t-41.5 7.5q-45 0 -77.5 -28t-32.5 -77q0 -51 29.5 -75.5t80.5 -24.5zM718 943l-168 170
l166 172l172 -172zM299 942l-168 170l165 172l172 -172z" />
    <glyph glyph-name="uni067C.fina" unicode="&#x67c;" horiz-adv-x="2254" 
d="M2041 676v-293q0 -35 10.5 -59.5t27 -41t36.5 -26t39 -14.5t33.5 -6.5t21.5 -1.5h62v-249h-62q-34 0 -72.5 4.5t-77 15t-74.5 28.5t-64 44q-109 -91 -296 -92h-1154q-74 0 -140 25t-117 73q-20 19 -41.5 46t-38.5 64t-28 83.5t-11 104.5q0 50 10 108.5t22.5 110.5
t23.5 90t14 47l119 -38l118 -37q-9 -27 -19 -64.5t-19 -77.5t-15 -77t-6 -64q0 -48 13.5 -77.5t33 -45t42.5 -20.5t41 -5h1145q55 0 94 10.5t58 30.5q23 26 23 75v329h248zM1269 760l-168 170l166 172l172 -172zM850 759l-168 170l165 172l172 -172zM1039 -371q-54 0 -97 16
t-74 45t-47.5 71t-16.5 95t16.5 96t47.5 73t74.5 46t96.5 16q51 0 95.5 -16t76.5 -46t50.5 -72.5t18.5 -94.5t-18 -95t-50 -73t-76.5 -46t-96.5 -15zM1039 -244q22 0 41.5 6.5t34.5 19.5t23.5 31.5t8.5 42.5t-8.5 43.5t-23.5 33t-34.5 21t-41.5 7.5q-45 0 -77.5 -28
t-32.5 -77q0 -51 29.5 -75.5t80.5 -24.5z" />
    <glyph glyph-name="uni067D.init" unicode="&#x67d;" horiz-adv-x="858" 
d="M728 825q2 -7 8.5 -33t14.5 -63.5t16.5 -83.5t16 -92.5t12 -90.5t4.5 -77q0 -103 -34 -178.5t-89 -124.5t-123.5 -73t-137.5 -24h-431v249h438q12 0 34.5 3.5t45 18.5t39.5 45.5t17 83.5q0 22 -3.5 53.5t-9.5 67.5t-13.5 73.5t-14.5 71t-14 61t-11 42.5zM28 1349l170 170
l170 -172l-170 -170zM445 1347l172 170l170 -172l-170 -170zM246 1067l158 158l160 -160l-158 -158z" />
    <glyph glyph-name="uni067D.medi" unicode="&#x67d;" horiz-adv-x="1048" 
d="M1061 234v-249h-148q-85 0 -155 23t-118 68q-56 -47 -132.5 -69t-174.5 -22h-346v249h346q61 0 97.5 11.5t55 28.5t24 38t5.5 41v324h248v-317q0 -45 20 -70.5t45.5 -38t50.5 -15t34 -2.5h148zM264 1263l170 170l170 -172l-170 -170zM681 1261l172 170l170 -172
l-170 -170zM482 981l158 158l160 -160l-158 -158z" />
    <glyph glyph-name="uni067D.fina" unicode="&#x67d;" horiz-adv-x="2260" 
d="M2041 676v-293q0 -35 10.5 -59.5t27 -41t36.5 -26t39 -14.5t33.5 -6.5t21.5 -1.5h62v-249h-62q-34 0 -72.5 4.5t-77 15t-74.5 28.5t-64 44q-109 -91 -296 -92h-1154q-74 0 -140 25t-117 73q-20 19 -41.5 46t-38.5 64t-28 83.5t-11 104.5q0 50 10 108.5t22.5 110.5
t23.5 90t14 47l119 -38l118 -37q-9 -27 -19 -64.5t-19 -77.5t-15 -77t-6 -64q0 -48 13.5 -77.5t33 -45t42.5 -20.5t41 -5h1145q55 0 94 10.5t58 30.5q23 26 23 75v329h248zM702 1037l170 170l170 -172l-170 -170zM1119 1035l172 170l170 -172l-170 -170zM920 755l158 158
l160 -160l-158 -158z" />
    <glyph glyph-name="uni067E" unicode="&#x67e;" horiz-adv-x="2106" arabic-form="isolated" 
d="M2032 676v-327q0 -148 -90 -244q-112 -119 -326 -120h-1154q-74 0 -140 25t-117 73q-20 19 -41.5 46t-38.5 64t-28 83.5t-11 104.5q0 50 10 108.5t22.5 110.5t23.5 90t14 47l119 -38l118 -37q-9 -27 -19 -64.5t-19 -77t-15 -76.5t-6 -64q0 -48 13.5 -77.5t33 -45
t42.5 -20.5t41 -5h1145q55 0 94 10.5t58 30.5q23 26 23 75v328h248zM707 -342l170 170l170 -172l-170 -170zM1124 -344l172 170l170 -172l-170 -170zM925 -624l158 158l160 -160l-158 -158z" />
    <glyph glyph-name="uni067F.init" unicode="&#x67f;" horiz-adv-x="849" arabic-form="initial" 
d="M728 825q2 -7 8.5 -33t14.5 -63.5t16.5 -83.5t16 -92.5t12 -90.5t4.5 -77q0 -103 -34 -178.5t-89 -124.5t-123.5 -73t-137.5 -24h-431v249h438q12 0 34.5 3.5t45 18.5t39.5 45.5t17 83.5q0 22 -3.5 53.5t-9.5 67.5t-13.5 73.5t-14.5 71t-14 61t-11 42.5zM610 941
l-152 153l150 159l157 -157zM250 941l-151 154l150 156l156 -158zM610 1273l-152 157l150 154l157 -155zM250 1275l-151 156l150 156l157 -157z" />
    <glyph glyph-name="uni067F.medi" unicode="&#x67f;" horiz-adv-x="1048" arabic-form="medial" 
d="M1061 234v-249h-148q-85 0 -155 23t-118 68q-56 -47 -132.5 -69t-174.5 -22h-346v249h346q61 0 97.5 11.5t55 28.5t24 38t5.5 41v324h248v-317q0 -45 20 -70.5t45.5 -38t50.5 -15t34 -2.5h148zM816 780l-152 153l150 159l157 -157zM456 780l-151 154l150 156l156 -158z
M816 1112l-152 157l150 154l157 -155zM456 1114l-151 156l150 156l157 -157z" />
    <glyph glyph-name="uni067F.fina" unicode="&#x67f;" horiz-adv-x="2260" arabic-form="final" 
d="M2041 676v-293q0 -35 10.5 -59.5t27 -41t36.5 -26t39 -14.5t33.5 -6.5t21.5 -1.5h62v-249h-62q-34 0 -72.5 4.5t-77 15t-74.5 28.5t-64 44q-109 -91 -296 -92h-1154q-74 0 -140 25t-117 73q-20 19 -41.5 46t-38.5 64t-28 83.5t-11 104.5q0 50 10 108.5t22.5 110.5
t23.5 90t14 47l119 -38l118 -37q-9 -27 -19 -64.5t-19 -77.5t-15 -77t-6 -64q0 -48 13.5 -77.5t33 -45t42.5 -20.5t41 -5h1145q55 0 94 10.5t58 30.5q23 26 23 75v329h248zM1241 590l-152 153l150 159l157 -157zM881 590l-151 154l150 156l156 -158zM1241 922l-152 157
l150 154l157 -155zM881 924l-151 156l150 156l157 -157z" />
    <glyph glyph-name="uni0680.init" unicode="&#x680;" horiz-adv-x="852" arabic-form="initial" 
d="M728 825q2 -7 8.5 -33t14.5 -63.5t16.5 -83.5t16 -92.5t12 -90.5t4.5 -77q0 -103 -34 -178.5t-89 -124.5t-123.5 -73t-137.5 -24h-431v249h438q12 0 34.5 3.5t45 18.5t39.5 45.5t17 83.5q0 22 -3.5 53.5t-9.5 67.5t-13.5 73.5t-14.5 71t-14 61t-11 42.5zM563 -803
l-152 153l150 159l157 -157zM203 -803l-151 154l150 156l156 -158zM563 -471l-152 157l150 154l157 -155zM203 -469l-151 156l150 156l157 -157z" />
    <glyph glyph-name="uni0680.medi" unicode="&#x680;" horiz-adv-x="1052" arabic-form="medial" 
d="M1061 234v-249h-148q-85 0 -155 23t-118 68q-56 -47 -132.5 -69t-174.5 -22h-346v249h346q61 0 97.5 11.5t55 28.5t24 38t5.5 41v324h248v-317q0 -45 20 -70.5t45.5 -38t50.5 -15t34 -2.5h148zM818 -803l-152 153l150 159l157 -157zM458 -803l-151 154l150 156l156 -158z
M818 -471l-152 157l150 154l157 -155zM458 -469l-151 156l150 156l157 -157z" />
    <glyph glyph-name="uni0680.fina" unicode="&#x680;" horiz-adv-x="2259" arabic-form="final" 
d="M2041 676v-293q0 -35 10.5 -59.5t27 -41t36.5 -26t39 -14.5t33.5 -6.5t21.5 -1.5h62v-249h-62q-34 0 -72.5 4.5t-77 15t-74.5 28.5t-64 44q-109 -91 -296 -92h-1154q-74 0 -140 25t-117 73q-20 19 -41.5 46t-38.5 64t-28 83.5t-11 104.5q0 50 10 108.5t22.5 110.5
t23.5 90t14 47l119 -38l118 -37q-9 -27 -19 -64.5t-19 -77.5t-15 -77t-6 -64q0 -48 13.5 -77.5t33 -45t42.5 -20.5t41 -5h1145q55 0 94 10.5t58 30.5q23 26 23 75v329h248zM1223 -807l-152 153l150 159l157 -157zM863 -807l-151 154l150 156l156 -158zM1223 -475l-152 157
l150 154l157 -155zM863 -473l-151 156l150 156l157 -157z" />
    <glyph glyph-name="uni0681.init" unicode="&#x681;" horiz-adv-x="1452" 
d="M1356 383q-6 -4 -52 -35t-122 -75.5t-178 -94.5t-220 -93t-247 -71.5t-259 -28.5h-303v249h303q98 0 209 20t219 51.5t205.5 70.5t169.5 77q-46 14 -99.5 30.5t-109.5 33t-111 32t-103 27.5t-86 19t-60 7q-23 0 -40.5 -5.5t-31.5 -18t-26 -32.5t-25 -48l-229 69
q19 60 46.5 112.5t67 91.5t91.5 61.5t119 22.5q26 0 74 -11t109 -29t130.5 -41t139.5 -48t136 -49t119 -43.5t89 -32.5t46 -16zM140 916v149l124 40q-30 31 -49.5 70t-19.5 83q0 34 12 67t33 61t49.5 49t60.5 30q17 5 34.5 7.5t34.5 2.5q36 0 63.5 -8.5t51.5 -17.5l17 -8
l-30 -124q-14 3 -31 8t-34 8t-33.5 3.5t-29.5 -3.5q-14 -5 -27.5 -14t-22.5 -20.5t-12.5 -26.5t2.5 -32q8 -26 37.5 -44t82.5 -18q10 0 21.5 1t30.5 5.5t48.5 13t75.5 23.5l8 -141z" />
    <glyph glyph-name="uni0681.medi" unicode="&#x681;" horiz-adv-x="1540" 
d="M1341 383q-5 -3 -32 -21.5t-73 -47.5q10 -30 31 -46.5t43 -24t41.5 -8.5t27.5 -1h183v-249h-183q-119 1 -213.5 52.5t-147.5 154.5q-77 -38 -166 -75.5t-186 -66.5t-199 -47t-204 -18h-298v249h298q98 0 209 20t219 51.5t205.5 70.5t169.5 77q-45 14 -99 30.5t-110 33
t-111 32t-103 27.5t-86 19t-60 7q-23 0 -40.5 -5.5t-31.5 -18t-26 -32.5t-25 -48l-229 69q19 60 46.5 112.5t67 91.5t91.5 61.5t119 22.5q26 0 74 -11t109 -29t130.5 -41t139.5 -48t136 -49t119 -43.5t89 -32.5t46 -16zM140 916v149l124 40q-30 31 -49.5 70t-19.5 83
q0 34 12 67t33 61t49.5 49t60.5 30q17 5 34.5 7.5t34.5 2.5q36 0 63.5 -8.5t51.5 -17.5l17 -8l-30 -124q-14 3 -31 8t-34 8t-33.5 3.5t-29.5 -3.5q-14 -5 -27.5 -14t-22.5 -20.5t-12.5 -26.5t2.5 -32q8 -26 37.5 -44t82.5 -18q10 0 21.5 1t30.5 5.5t48.5 13t75.5 23.5
l8 -141z" />
    <glyph glyph-name="uni0681.fina" unicode="&#x681;" horiz-adv-x="1584" 
d="M1358 351l-108 -45q27 -35 56 -53.5t51 -18.5h245v-249h-245q-129 0 -216.5 60t-135.5 160l-237 -97q-129 -49 -213.5 -84t-134 -69.5t-69 -73.5t-19.5 -95q0 -71 16 -121t46 -82.5t72.5 -51t95.5 -28t115 -11.5t131 -2h461v-249h-461q-159 0 -291 25.5t-227 87.5
t-148 166t-53 261q0 82 21.5 147t61 117.5t94 94t120.5 75t141 61t156 53.5l401 132q-116 40 -235.5 78.5t-234.5 75.5q-21 7 -40.5 12.5t-37.5 5.5q-23 0 -41.5 -4.5t-33.5 -16t-27.5 -32.5t-24.5 -54l-229 69q19 60 47.5 112.5t68.5 91.5t92.5 61.5t119.5 22.5
q55 0 120 -20q80 -26 146.5 -51.5t132.5 -52.5q38 -15 79 -34t93 -41.5t117.5 -49.5t152.5 -58zM201 927v149l124 40q-30 31 -49.5 70t-19.5 83q0 34 12 67t33 61t49.5 49t60.5 30q17 5 34.5 7.5t34.5 2.5q36 0 63.5 -8.5t51.5 -17.5l17 -8l-30 -124q-14 3 -31 8t-34 8
t-33.5 3.5t-29.5 -3.5q-14 -5 -27.5 -14t-22.5 -20.5t-12.5 -26.5t2.5 -32q8 -26 37.5 -44t82.5 -18q10 0 21.5 1t30.5 5.5t48.5 13t75.5 23.5l8 -141z" />
    <glyph glyph-name="uni0682.init" unicode="&#x682;" horiz-adv-x="1438" 
d="M1356 383q-6 -4 -52 -35t-122 -75.5t-178 -94.5t-220 -93t-247 -71.5t-259 -28.5h-303v249h303q98 0 209 20t219 51.5t205.5 70.5t169.5 77q-46 14 -99.5 30.5t-109.5 33t-111 32t-103 27.5t-86 19t-60 7q-23 0 -40.5 -5.5t-31.5 -18t-26 -32.5t-25 -48l-229 69
q19 60 46.5 112.5t67 91.5t91.5 61.5t119 22.5q26 0 74 -11t109 -29t130.5 -41t139.5 -48t136 -49t119 -43.5t89 -32.5t46 -16zM432 1026l-165 167l163 171l170 -170zM599 1582l-167 -165l-171 163l170 170z" />
    <glyph glyph-name="uni0682.medi" unicode="&#x682;" horiz-adv-x="1544" 
d="M1341 383q-5 -3 -32 -21.5t-73 -47.5q10 -30 31 -46.5t43 -24t41.5 -8.5t27.5 -1h183v-249h-183q-119 1 -213.5 52.5t-147.5 154.5q-77 -38 -166 -75.5t-186 -66.5t-199 -47t-204 -18h-298v249h298q98 0 209 20t219 51.5t205.5 70.5t169.5 77q-45 14 -99 30.5t-110 33
t-111 32t-103 27.5t-86 19t-60 7q-23 0 -40.5 -5.5t-31.5 -18t-26 -32.5t-25 -48l-229 69q19 60 46.5 112.5t67 91.5t91.5 61.5t119 22.5q26 0 74 -11t109 -29t130.5 -41t139.5 -48t136 -49t119 -43.5t89 -32.5t46 -16zM441 1030l-165 167l163 171l170 -170zM608 1586
l-167 -165l-171 163l170 170z" />
    <glyph glyph-name="uni0682.fina" unicode="&#x682;" horiz-adv-x="1584" 
d="M1358 351l-108 -45q27 -35 56 -53.5t51 -18.5h245v-249h-245q-129 0 -216.5 60t-135.5 160l-237 -97q-129 -49 -213.5 -84t-134 -69.5t-69 -73.5t-19.5 -95q0 -71 16 -121t46 -82.5t72.5 -51t95.5 -28t115 -11.5t131 -2h461v-249h-461q-159 0 -291 25.5t-227 87.5
t-148 166t-53 261q0 82 21.5 147t61 117.5t94 94t120.5 75t141 61t156 53.5l401 132q-116 40 -235.5 78.5t-234.5 75.5q-21 7 -40.5 12.5t-37.5 5.5q-23 0 -41.5 -4.5t-33.5 -16t-27.5 -32.5t-24.5 -54l-229 69q19 60 47.5 112.5t68.5 91.5t92.5 61.5t119.5 22.5
q55 0 120 -20q80 -26 146.5 -51.5t132.5 -52.5q38 -15 79 -34t93 -41.5t117.5 -49.5t152.5 -58zM456 1030l-165 167l163 171l170 -170zM623 1586l-167 -165l-171 163l170 170z" />
    <glyph glyph-name="uni0683.init" unicode="&#x683;" horiz-adv-x="1443" arabic-form="initial" 
d="M1361 383q-6 -4 -52 -35t-122 -75.5t-178 -94.5t-220 -93t-247 -71.5t-259 -28.5h-303v249h303q98 0 209 20t219 51.5t205.5 70.5t169.5 77q-46 14 -99.5 30.5t-109.5 33t-111 32t-103 27.5t-86 19t-60 7q-23 0 -40.5 -5.5t-31.5 -18t-26 -32.5t-25 -48l-229 69
q19 60 46.5 112.5t67 91.5t91.5 61.5t119 22.5q26 0 74 -11t109 -29t130.5 -41t139.5 -48t136 -49t119 -43.5t89 -32.5t46 -16zM933 -484l-168 170l166 172l172 -172zM514 -485l-168 170l165 172l172 -172z" />
    <glyph glyph-name="uni0683.medi" unicode="&#x683;" horiz-adv-x="1533" arabic-form="medial" 
d="M1341 383q-5 -3 -32 -21.5t-73 -47.5q10 -30 31 -46.5t43 -24t41.5 -8.5t27.5 -1h183v-249h-183q-119 1 -213.5 52.5t-147.5 154.5q-77 -38 -166 -75.5t-186 -66.5t-199 -47t-204 -18h-298v249h298q98 0 209 20t219 51.5t205.5 70.5t169.5 77q-45 14 -99 30.5t-110 33
t-111 32t-103 27.5t-86 19t-60 7q-23 0 -40.5 -5.5t-31.5 -18t-26 -32.5t-25 -48l-229 69q19 60 46.5 112.5t67 91.5t91.5 61.5t119 22.5q26 0 74 -11t109 -29t130.5 -41t139.5 -48t136 -49t119 -43.5t89 -32.5t46 -16zM933 -484l-168 170l166 172l172 -172zM514 -485
l-168 170l165 172l172 -172z" />
    <glyph glyph-name="uni0683.fina" unicode="&#x683;" horiz-adv-x="1584" arabic-form="final" 
d="M1358 351l-108 -45q27 -35 56 -53.5t51 -18.5h245v-249h-245q-129 0 -216.5 60t-135.5 160l-237 -97q-129 -49 -213.5 -84t-134 -69.5t-69 -73.5t-19.5 -95q0 -71 16 -121t46 -82.5t72.5 -51t95.5 -28t115 -11.5t131 -2h461v-249h-461q-159 0 -291 25.5t-227 87.5
t-148 166t-53 261q0 82 21.5 147t61 117.5t94 94t120.5 75t141 61t156 53.5l401 132q-116 40 -235.5 78.5t-234.5 75.5q-21 7 -40.5 12.5t-37.5 5.5q-23 0 -41.5 -4.5t-33.5 -16t-27.5 -32.5t-24.5 -54l-229 69q19 60 47.5 112.5t68.5 91.5t92.5 61.5t119.5 22.5
q55 0 120 -20q80 -26 146.5 -51.5t132.5 -52.5q38 -15 79 -34t93 -41.5t117.5 -49.5t152.5 -58zM1058 -400l-168 170l166 172l172 -172zM639 -401l-168 170l165 172l172 -172z" />
    <glyph glyph-name="uni0684.init" unicode="&#x684;" horiz-adv-x="1443" arabic-form="initial" 
d="M1356 383q-6 -4 -52 -35t-122 -75.5t-178 -94.5t-220 -93t-247 -71.5t-259 -28.5h-303v249h303q98 0 209 20t219 51.5t205.5 70.5t169.5 77q-46 14 -99.5 30.5t-109.5 33t-111 32t-103 27.5t-86 19t-60 7q-23 0 -40.5 -5.5t-31.5 -18t-26 -32.5t-25 -48l-229 69
q19 60 46.5 112.5t67 91.5t91.5 61.5t119 22.5q26 0 74 -11t109 -29t130.5 -41t139.5 -48t136 -49t119 -43.5t89 -32.5t46 -16zM669 -876l-165 167l163 171l170 -170zM836 -320l-167 -165l-171 163l170 170z" />
    <glyph glyph-name="uni0684.medi" unicode="&#x684;" horiz-adv-x="1533" arabic-form="medial" 
d="M1341 383q-5 -3 -32 -21.5t-73 -47.5q10 -30 31 -46.5t43 -24t41.5 -8.5t27.5 -1h183v-249h-183q-119 1 -213.5 52.5t-147.5 154.5q-77 -38 -166 -75.5t-186 -66.5t-199 -47t-204 -18h-298v249h298q98 0 209 20t219 51.5t205.5 70.5t169.5 77q-45 14 -99 30.5t-110 33
t-111 32t-103 27.5t-86 19t-60 7q-23 0 -40.5 -5.5t-31.5 -18t-26 -32.5t-25 -48l-229 69q19 60 46.5 112.5t67 91.5t91.5 61.5t119 22.5q26 0 74 -11t109 -29t130.5 -41t139.5 -48t136 -49t119 -43.5t89 -32.5t46 -16zM669 -876l-165 167l163 171l170 -170zM836 -320
l-167 -165l-171 163l170 170z" />
    <glyph glyph-name="uni0684.fina" unicode="&#x684;" horiz-adv-x="1575" arabic-form="final" 
d="M1006 383l-242 -99q-129 -49 -214.5 -84t-136 -69.5t-71 -73.5t-20.5 -95q0 -2 1 -19.5t2 -38.5t2 -39t1 -19q12 -127 54 -205t106 -120.5t148 -56.5t180 -14h461v-249h-461q-158 0 -286.5 30.5t-222.5 105t-150.5 198.5t-71.5 310q0 1 -1 18t-2 38t-2 38t-1 18
q0 123 48.5 209.5t131 149t191 107t229.5 82.5l401 132q-116 40 -235.5 78.5t-234.5 75.5q-21 7 -40.5 12.5t-37.5 5.5q-23 0 -41.5 -4.5t-33.5 -16t-27.5 -32.5t-24.5 -54l-229 69q19 60 47.5 112.5t68.5 91.5t92.5 61.5t119.5 22.5q55 0 120 -20q80 -26 146.5 -51.5
t132.5 -52.5q38 -15 79 -34t93 -41.5t117.5 -49.5t152.5 -58l9 -225l-103 -42zM1189 470q0 -35 10 -76.5t31 -77t52.5 -59t74.5 -23.5h245v-249h-245q-76 0 -135.5 18t-105.5 48t-78.5 69t-53.5 82t-30.5 85.5t-9.5 80.5zM835.54 -475.959l-152.342 154.086l150.495 157.776
l156.957 -156.854zM989.728 37.0449l-154.188 -152.24l-157.881 150.395l156.957 156.854z" />
    <glyph glyph-name="uni0685.init" unicode="&#x685;" horiz-adv-x="1429" 
d="M1356 383q-6 -4 -52 -35t-122 -75.5t-178 -94.5t-220 -93t-247 -71.5t-259 -28.5h-303v249h303q98 0 209 20t219 51.5t205.5 70.5t169.5 77q-46 14 -99.5 30.5t-109.5 33t-111 32t-103 27.5t-86 19t-60 7q-23 0 -40.5 -5.5t-31.5 -18t-26 -32.5t-25 -48l-229 69
q19 60 46.5 112.5t67 91.5t91.5 61.5t119 22.5q26 0 74 -11t109 -29t130.5 -41t139.5 -48t136 -49t119 -43.5t89 -32.5t46 -16zM484 1168l-170 -172l-170 170l170 172zM913 1172l-168 -170l-175 168l172 172zM692 1454l-160 -160l-158 158l160 160z" />
    <glyph glyph-name="uni0685.medi" unicode="&#x685;" horiz-adv-x="1533" 
d="M1341 383q-5 -3 -32 -21.5t-73 -47.5q10 -30 31 -46.5t43 -24t41.5 -8.5t27.5 -1h183v-249h-183q-119 1 -213.5 52.5t-147.5 154.5q-77 -38 -166 -75.5t-186 -66.5t-199 -47t-204 -18h-298v249h298q98 0 209 20t219 51.5t205.5 70.5t169.5 77q-45 14 -99 30.5t-110 33
t-111 32t-103 27.5t-86 19t-60 7q-23 0 -40.5 -5.5t-31.5 -18t-26 -32.5t-25 -48l-229 69q19 60 46.5 112.5t67 91.5t91.5 61.5t119 22.5q26 0 74 -11t109 -29t130.5 -41t139.5 -48t136 -49t119 -43.5t89 -32.5t46 -16zM484 1168l-170 -172l-170 170l170 172zM913 1172
l-168 -170l-175 168l172 172zM692 1454l-160 -160l-158 158l160 160z" />
    <glyph glyph-name="uni0685.fina" unicode="&#x685;" horiz-adv-x="1584" 
d="M1358 351l-108 -45q27 -35 56 -53.5t51 -18.5h245v-249h-245q-129 0 -216.5 60t-135.5 160l-237 -97q-129 -49 -213.5 -84t-134 -69.5t-69 -73.5t-19.5 -95q0 -71 16 -121t46 -82.5t72.5 -51t95.5 -28t115 -11.5t131 -2h461v-249h-461q-159 0 -291 25.5t-227 87.5
t-148 166t-53 261q0 82 21.5 147t61 117.5t94 94t120.5 75t141 61t156 53.5l401 132q-116 40 -235.5 78.5t-234.5 75.5q-21 7 -40.5 12.5t-37.5 5.5q-23 0 -41.5 -4.5t-33.5 -16t-27.5 -32.5t-24.5 -54l-229 69q19 60 47.5 112.5t68.5 91.5t92.5 61.5t119.5 22.5
q55 0 120 -20q80 -26 146.5 -51.5t132.5 -52.5q38 -15 79 -34t93 -41.5t117.5 -49.5t152.5 -58zM532 1238l-170 -172l-170 170l170 172zM961 1242l-168 -170l-175 168l172 172zM740 1524l-160 -160l-158 158l160 160z" />
    <glyph glyph-name="uni0686" unicode="&#x686;" horiz-adv-x="1455" arabic-form="isolated" 
d="M1351 526l-590 -243q-129 -49 -214.5 -84t-136 -69.5t-71 -73.5t-20.5 -95q0 -2 1 -19.5t2 -38.5t2 -39t1 -19q12 -127 54 -205t106 -120.5t148 -56.5t180 -14h461v-249h-461q-158 0 -286.5 30.5t-222.5 105t-150.5 198.5t-71.5 310q0 1 -1 18t-2 38t-2 38t-1 18
q0 123 48.5 209.5t131 149t191 107t229.5 82.5l401 132q-116 40 -235.5 78.5t-234.5 75.5q-21 7 -40.5 12.5t-37.5 5.5q-23 0 -41.5 -4.5t-33.5 -16t-27.5 -32.5t-24.5 -54l-229 69q19 60 47.5 112.5t68.5 91.5t92.5 61.5t119.5 22.5q55 0 120 -20q80 -26 146.5 -51.5
t132.5 -52.5q38 -15 79 -34t93 -41.5t117.5 -49.5t152.5 -58zM576.024 -35.5059l152.309 152.495l152.31 -154.29l-152.31 -152.495zM949.629 -37.3008l154.102 152.496l152.309 -154.29l-152.309 -152.495zM771.338 -288.47l141.558 141.731l143.35 -143.525
l-141.558 -141.731z" />
    <glyph glyph-name="uni0687.init" unicode="&#x687;" horiz-adv-x="1419" arabic-form="initial" 
d="M1356 383q-6 -4 -52 -35t-122 -75.5t-178 -94.5t-220 -93t-247 -71.5t-259 -28.5h-303v249h303q98 0 209 20t219 51.5t205.5 70.5t169.5 77q-46 14 -99.5 30.5t-109.5 33t-111 32t-103 27.5t-86 19t-60 7q-23 0 -40.5 -5.5t-31.5 -18t-26 -32.5t-25 -48l-229 69
q19 60 46.5 112.5t67 91.5t91.5 61.5t119 22.5q26 0 74 -11t109 -29t130.5 -41t139.5 -48t136 -49t119 -43.5t89 -32.5t46 -16zM939 -774l-152 153l150 159l157 -157zM579 -774l-151 154l150 156l156 -158zM939 -442l-152 157l150 154l157 -155zM579 -440l-151 156l150 156
l157 -157z" />
    <glyph glyph-name="uni0687.medi" unicode="&#x687;" horiz-adv-x="1533" arabic-form="medial" 
d="M1341 383q-5 -3 -32 -21.5t-73 -47.5q10 -30 31 -46.5t43 -24t41.5 -8.5t27.5 -1h183v-249h-183q-119 1 -213.5 52.5t-147.5 154.5q-77 -38 -166 -75.5t-186 -66.5t-199 -47t-204 -18h-298v249h298q98 0 209 20t219 51.5t205.5 70.5t169.5 77q-45 14 -99 30.5t-110 33
t-111 32t-103 27.5t-86 19t-60 7q-23 0 -40.5 -5.5t-31.5 -18t-26 -32.5t-25 -48l-229 69q19 60 46.5 112.5t67 91.5t91.5 61.5t119 22.5q26 0 74 -11t109 -29t130.5 -41t139.5 -48t136 -49t119 -43.5t89 -32.5t46 -16zM966 -794l-152 153l150 159l157 -157zM606 -794
l-151 154l150 156l156 -158zM966 -462l-152 157l150 154l157 -155zM606 -460l-151 156l150 156l157 -157z" />
    <glyph glyph-name="uni0687.fina" unicode="&#x687;" horiz-adv-x="1570" arabic-form="final" 
d="M1006 383l-242 -99q-129 -49 -214.5 -84t-136 -69.5t-71 -73.5t-20.5 -95q0 -2 1 -19.5t2 -38.5t2 -39t1 -19q12 -127 54 -205t106 -120.5t148 -56.5t180 -14h461v-249h-461q-158 0 -286.5 30.5t-222.5 105t-150.5 198.5t-71.5 310q0 1 -1 18t-2 38t-2 38t-1 18
q0 123 48.5 209.5t131 149t191 107t229.5 82.5l401 132q-116 40 -235.5 78.5t-234.5 75.5q-21 7 -40.5 12.5t-37.5 5.5q-23 0 -41.5 -4.5t-33.5 -16t-27.5 -32.5t-24.5 -54l-229 69q19 60 47.5 112.5t68.5 91.5t92.5 61.5t119.5 22.5q55 0 120 -20q80 -26 146.5 -51.5
t132.5 -52.5q38 -15 79 -34t93 -41.5t117.5 -49.5t152.5 -58l9 -225l-103 -42zM1189 470q0 -35 10 -76.5t31 -77t52.5 -59t74.5 -23.5h245v-249h-245q-76 0 -135.5 18t-105.5 48t-78.5 69t-53.5 82t-30.5 85.5t-9.5 80.5zM963.237 -444.533l-126.441 127.189
l124.777 132.176l130.601 -130.514zM663.771 -444.533l-125.608 128.021l124.776 129.683l129.769 -131.346zM963.237 -168.542l-126.441 130.515l124.777 128.02l130.601 -128.852zM663.771 -166.879l-125.608 129.683l124.776 129.683l130.601 -130.514z" />
    <glyph glyph-name="uni0688" unicode="&#x688;" horiz-adv-x="1042" arabic-form="isolated" 
d="M515 -16q-38 0 -75 4t-75 11t-78 17.5t-84 23.5l-119 36l72 240q87 -30 180.5 -53t176 -30t143 6.5t81.5 57.5q7 14 1.5 35t-21.5 44l-373 544l210 136l68 -105q0 -1 3.5 -6t14 -21t30 -45.5t51.5 -77.5t78.5 -118.5t111.5 -168.5q51 -77 62.5 -159t-20.5 -156
q-17 -40 -45.5 -73.5t-66.5 -59.5q-71 -49 -171 -67q-84 -15 -155 -15zM72 1208v109h104q3 4 5.5 8.5t7 11.5t12 17.5t18.5 26.5v488h107v-343q36 38 79.5 63t95.5 25q34 0 68 -12t61 -37.5t43.5 -66t16.5 -96.5q0 -54 -18 -91t-46 -60t-62.5 -33t-67.5 -10h-424zM501 1505
q-26 0 -52 -16.5t-51 -43.5t-48 -60.5t-44 -67.5h190q36 0 62 20t26 65q0 53 -22.5 78t-60.5 25z" />
    <glyph glyph-name="uni0689.fina" unicode="&#x689;" horiz-adv-x="1188" 
d="M1207 -15h-81q-133 0 -254 117q-33 -39 -78.5 -64.5t-97.5 -40.5t-105.5 -21t-102.5 -6q-38 0 -77 4.5t-88.5 15t-113.5 28t-153 44.5l72 239q61 -24 126 -42.5t127 -30t119 -15t102 2.5t76.5 22.5t42.5 44.5q5 12 5 21.5t-5.5 22.5t-17.5 31.5t-31 48.5l-355 499
l210 135l357 -541q29 -44 61 -91t64 -85.5t62 -63.5t55 -25h81v-250zM516 -366q-54 0 -97 16t-74 45t-47.5 71t-16.5 95t16.5 96t47.5 73t74.5 46t96.5 16q51 0 95.5 -16t76.5 -46t50.5 -72.5t18.5 -94.5t-18 -95t-50 -73t-76.5 -46t-96.5 -15zM516 -239q22 0 41.5 6.5
t34.5 19.5t23.5 31.5t8.5 42.5t-8.5 43.5t-23.5 33t-34.5 21t-41.5 7.5q-45 0 -77.5 -28t-32.5 -77q0 -51 29.5 -75.5t80.5 -24.5z" />
    <glyph glyph-name="uni068A.fina" unicode="&#x68a;" horiz-adv-x="1188" 
d="M1207 -15h-81q-133 0 -254 117q-33 -39 -78.5 -64.5t-97.5 -40.5t-105.5 -21t-102.5 -6q-38 0 -77 4.5t-88.5 15t-113.5 28t-153 44.5l72 239q61 -24 126 -42.5t127 -30t119 -15t102 2.5t76.5 22.5t42.5 44.5q5 12 5 21.5t-5.5 22.5t-17.5 31.5t-31 48.5l-355 499
l210 135l357 -541q29 -44 61 -91t64 -85.5t62 -63.5t55 -25h81v-250zM350 -289l180 182l184 -184l-182 -182z" />
    <glyph glyph-name="uni068B.fina" unicode="&#x68b;" horiz-adv-x="1184" 
d="M1207 -15h-81q-133 0 -254 117q-33 -39 -78.5 -64.5t-97.5 -40.5t-105.5 -21t-102.5 -6q-38 0 -77 4.5t-88.5 15t-113.5 28t-153 44.5l72 239q61 -24 126 -42.5t127 -30t119 -15t102 2.5t76.5 22.5t42.5 44.5q5 12 5 21.5t-5.5 22.5t-17.5 31.5t-31 48.5l-355 499
l210 135l357 -541q29 -44 61 -91t64 -85.5t62 -63.5t55 -25h81v-250zM64 1288v109h104q3 4 5.5 8.5t7 11.5t12 17.5t18.5 26.5v488h107v-343q36 38 79.5 63t95.5 25q34 0 68 -12t61 -37.5t43.5 -66t16.5 -96.5q0 -54 -18 -91t-46 -60t-62.5 -33t-67.5 -10h-424zM493 1585
q-26 0 -52 -16.5t-51 -43.5t-48 -60.5t-44 -67.5h190q36 0 62 20t26 65q0 53 -22.5 78t-60.5 25zM350 -289l180 182l184 -184l-182 -182z" />
    <glyph glyph-name="uni068C.fina" unicode="&#x68c;" horiz-adv-x="1184" arabic-form="final" 
d="M1207 -15h-81q-133 0 -254 117q-33 -39 -78.5 -64.5t-97.5 -40.5t-105.5 -21t-102.5 -6q-38 0 -77 4.5t-88.5 15t-113.5 28t-153 44.5l72 239q61 -24 126 -42.5t127 -30t119 -15t102 2.5t76.5 22.5t42.5 44.5q5 12 5 21.5t-5.5 22.5t-17.5 31.5t-31 48.5l-355 499
l210 135l357 -541q29 -44 61 -91t64 -85.5t62 -63.5t55 -25h81v-250zM567 1266l-168 170l166 172l172 -172zM148 1265l-168 170l165 172l172 -172z" />
    <glyph glyph-name="uni068D.fina" unicode="&#x68d;" horiz-adv-x="1188" arabic-form="final" 
d="M1207 -15h-81q-133 0 -254 117q-33 -39 -78.5 -64.5t-97.5 -40.5t-105.5 -21t-102.5 -6q-38 0 -77 4.5t-88.5 15t-113.5 28t-153 44.5l72 239q61 -24 126 -42.5t127 -30t119 -15t102 2.5t76.5 22.5t42.5 44.5q5 12 5 21.5t-5.5 22.5t-17.5 31.5t-31 48.5l-355 499
l210 135l357 -541q29 -44 61 -91t64 -85.5t62 -63.5t55 -25h81v-250zM741 -493l-168 170l166 172l172 -172zM322 -494l-168 170l165 172l172 -172z" />
    <glyph glyph-name="uni068E.fina" unicode="&#x68e;" horiz-adv-x="1184" arabic-form="final" 
d="M1207 -15h-81q-133 0 -254 117q-33 -39 -78.5 -64.5t-97.5 -40.5t-105.5 -21t-102.5 -6q-38 0 -77 4.5t-88.5 15t-113.5 28t-153 44.5l72 239q61 -24 126 -42.5t127 -30t119 -15t102 2.5t76.5 22.5t42.5 44.5q5 12 5 21.5t-5.5 22.5t-17.5 31.5t-31 48.5l-355 499
l210 135l357 -541q29 -44 61 -91t64 -85.5t62 -63.5t55 -25h81v-250zM386 1420l-170 -172l-170 170l170 172zM815 1424l-168 -170l-175 168l172 172zM594 1706l-160 -160l-158 158l160 160z" />
    <glyph glyph-name="uni068F.fina" unicode="&#x68f;" horiz-adv-x="1184" 
d="M1207 -15h-81q-133 0 -254 117q-33 -39 -78.5 -64.5t-97.5 -40.5t-105.5 -21t-102.5 -6q-38 0 -77 4.5t-88.5 15t-113.5 28t-153 44.5l72 239q61 -24 126 -42.5t127 -30t119 -15t102 2.5t76.5 22.5t42.5 44.5q5 12 5 21.5t-5.5 22.5t-17.5 31.5t-31 48.5l-355 499
l210 135l357 -541q29 -44 61 -91t64 -85.5t62 -63.5t55 -25h81v-250zM-10 1614l168 168l168 -170l-168 -168zM407 1612l170 168l168 -170l-168 -168zM208 1332l156 156l158 -158l-156 -156z" />
    <glyph glyph-name="uni0690.fina" unicode="&#x690;" horiz-adv-x="1184" 
d="M1207 -15h-81q-133 0 -254 117q-33 -39 -78.5 -64.5t-97.5 -40.5t-105.5 -21t-102.5 -6q-38 0 -77 4.5t-88.5 15t-113.5 28t-153 44.5l72 239q61 -24 126 -42.5t127 -30t119 -15t102 2.5t76.5 22.5t42.5 44.5q5 12 5 21.5t-5.5 22.5t-17.5 31.5t-31 48.5l-355 499
l210 135l357 -541q29 -44 61 -91t64 -85.5t62 -63.5t55 -25h81v-250zM570 1180l-152 153l150 159l157 -157zM210 1180l-151 154l150 156l156 -158zM570 1512l-152 157l150 154l157 -155zM210 1514l-151 156l150 156l157 -157z" />
    <glyph glyph-name="uni0691" unicode="&#x691;" horiz-adv-x="785" arabic-form="isolated" 
d="M667 46q-6 -138 -51 -248.5t-124 -188t-191 -119.5t-253 -42h-124v249h124q96 0 166 20t115 64t67 114.5t22 171.5v609h249v-630zM113 881v109h104q3 4 5.5 8.5t7 11.5t12 17.5t18.5 26.5v488h107v-343q36 38 79.5 63t95.5 25q34 0 68 -12t61 -37.5t43.5 -66t16.5 -96.5
q0 -54 -18 -91t-46 -60t-62.5 -33t-67.5 -10h-424zM542 1178q-26 0 -52 -16.5t-51 -43.5t-48 -60.5t-44 -67.5h190q36 0 62 20t26 65q0 53 -22.5 78t-60.5 25z" />
    <glyph glyph-name="uni0692.fina" unicode="&#x692;" horiz-adv-x="840" 
d="M852 -15h-38q-41 0 -77.5 5t-71.5 28q-12 -129 -59 -234t-125.5 -179.5t-187.5 -115.5t-245 -41h-125v249h125q96 0 166 20t115 64t67 114.5t22 171.5v609h249v-299q0 -46 19.5 -74t45 -43.5t49.5 -20.5t33 -5h38v-249zM823 1281l-231 -413h-131l-234 413h171l126 -253
l130 253h169z" />
    <glyph glyph-name="uni0693.fina" unicode="&#x693;" horiz-adv-x="844" 
d="M852 -15h-38q-41 0 -77.5 5t-71.5 28q-12 -129 -59 -234t-125.5 -179.5t-187.5 -115.5t-245 -41h-125v249h125q96 0 166 20t115 64t67 114.5t22 171.5v609h249v-299q0 -46 19.5 -74t45 -43.5t49.5 -20.5t33 -5h38v-249zM442 -795q-54 0 -97 16t-74 45t-47.5 71t-16.5 95
t16.5 96t47.5 73t74.5 46t96.5 16q51 0 95.5 -16t76.5 -46t50.5 -72.5t18.5 -94.5t-18 -95t-50 -73t-76.5 -46t-96.5 -15zM442 -668q22 0 41.5 6.5t34.5 19.5t23.5 31.5t8.5 42.5t-8.5 43.5t-23.5 33t-34.5 21t-41.5 7.5q-45 0 -77.5 -28t-32.5 -77q0 -51 29.5 -75.5
t80.5 -24.5z" />
    <glyph glyph-name="uni0694.fina" unicode="&#x694;" horiz-adv-x="844" 
d="M852 -15h-38q-41 0 -77.5 5t-71.5 28q-12 -129 -59 -234t-125.5 -179.5t-187.5 -115.5t-245 -41h-125v249h125q96 0 166 20t115 64t67 114.5t22 171.5v609h249v-299q0 -46 19.5 -74t45 -43.5t49.5 -20.5t33 -5h38v-249zM78 -860l180 182l184 -184l-182 -182z" />
    <glyph glyph-name="uni0695.fina" unicode="&#x695;" horiz-adv-x="840" 
d="M852 -15h-38q-41 0 -77.5 5t-71.5 28q-12 -129 -59 -234t-125.5 -179.5t-187.5 -115.5t-245 -41h-125v249h125q96 0 166 20t115 64t67 114.5t22 171.5v609h249v-299q0 -46 19.5 -74t45 -43.5t49.5 -20.5t33 -5h38v-249zM571 -679l-231 -413h-131l-234 413h171l126 -253
l130 253h169z" />
    <glyph glyph-name="uni0696.fina" unicode="&#x696;" horiz-adv-x="840" 
d="M852 -15h-38q-41 0 -77.5 5t-71.5 28q-12 -129 -59 -234t-125.5 -179.5t-187.5 -115.5t-245 -41h-125v249h125q96 0 166 20t115 64t67 114.5t22 171.5v609h249v-299q0 -46 19.5 -74t45 -43.5t49.5 -20.5t33 -5h38v-249zM6 163l180 182l184 -184l-182 -182zM8 -874
l180 182l184 -184l-182 -182z" />
    <glyph glyph-name="uni0697.fina" unicode="&#x697;" horiz-adv-x="836" 
d="M852 -15h-38q-41 0 -77.5 5t-71.5 28q-12 -129 -59 -234t-125.5 -179.5t-187.5 -115.5t-245 -41h-125v249h125q96 0 166 20t115 64t67 114.5t22 171.5v609h249v-299q0 -46 19.5 -74t45 -43.5t49.5 -20.5t33 -5h38v-249zM736 875l-168 170l166 172l172 -172zM317 874
l-168 170l165 172l172 -172z" />
    <glyph glyph-name="uni0698" unicode="&#x698;" horiz-adv-x="859" arabic-form="isolated" 
d="M667 46q-6 -138 -51 -248.5t-124 -188t-191 -119.5t-253 -42h-124v249h124q96 0 166 20t115 64t67 114.5t22 171.5v609h249v-630zM415 1078l-170 -172l-170 170l170 172zM844 1082l-168 -170l-175 168l172 172zM623 1364l-160 -160l-158 158l160 160z" />
    <glyph glyph-name="uni0699.fina" unicode="&#x699;" horiz-adv-x="840" 
d="M852 -15h-38q-41 0 -77.5 5t-71.5 28q-12 -129 -59 -234t-125.5 -179.5t-187.5 -115.5t-245 -41h-125v249h125q96 0 166 20t115 64t67 114.5t22 171.5v609h249v-299q0 -46 19.5 -74t45 -43.5t49.5 -20.5t33 -5h38v-249zM711 851l-152 153l150 159l157 -157zM351 851
l-151 154l150 156l156 -158zM711 1183l-152 157l150 154l157 -155zM351 1185l-151 156l150 156l157 -157z" />
    <glyph glyph-name="uni069A.init" unicode="&#x69a;" horiz-adv-x="1764" 
d="M745 -13q-183 0 -290 95q-55 -51 -122 -74t-138 -23h-225v249h225q12 0 34.5 4t45 19.5t39.5 46t17 84.5v4v284h249v-284q0 -82 38.5 -119.5t126.5 -37.5q12 0 34.5 4.5t45 20.5t39.5 47.5t17 84.5v284h248v-284q0 -82 39.5 -120.5t128.5 -38.5q13 0 35.5 5.5t44.5 22
t38 47.5t16 84q0 22 -3.5 53t-9 65.5t-12.5 70t-14 67.5t-13.5 58t-10.5 41l235 77q2 -7 8 -32t14.5 -62t17.5 -82t16.5 -90.5t12.5 -89t5 -76.5q0 -102 -33.5 -178.5t-87.5 -127t-122 -75.5t-137 -26q-186 0 -294 98q-55 -51 -121.5 -73.5t-136.5 -22.5zM827 1033l180 182
l184 -184l-182 -182zM822 -335l180 182l184 -184l-182 -182z" />
    <glyph glyph-name="uni069A.medi" unicode="&#x69a;" horiz-adv-x="1891" 
d="M-32 234h129q59 0 95.5 10t57 29.5t27.5 47.5t7 64v291h249v-286q0 -81 39 -118t124 -38h-1q15 1 36.5 6t42 20.5t35 45t14.5 79.5v291h248v-286q0 -82 39 -119t127 -37q24 0 47.5 7.5t42.5 25t31 45.5t14 69v-1v296h249v-296q2 -77 47 -111.5t138 -34.5h98v-249h-98
q-103 0 -179 22.5t-131 73.5q-51 -47 -119.5 -71.5t-139.5 -24.5q-94 0 -164.5 23t-125.5 74q-52 -46 -116.5 -71t-130.5 -26q-94 -1 -165.5 24t-123.5 69q-117 -93 -314 -93h-129v249zM775 1033l180 182l184 -184l-182 -182zM770 -335l180 182l184 -184l-182 -182z" />
    <glyph glyph-name="uni069A.fina" unicode="&#x69a;" horiz-adv-x="2936" 
d="M2870 -15q-206 0 -315 100q-57 -46 -128.5 -73t-143.5 -27q-188 0 -296 100q-57 -46 -128.5 -73t-143.5 -27q-54 0 -98.5 8t-87.5 28v-34q0 -275 -148.5 -407.5t-440.5 -132.5h-221q-79 0 -153.5 19.5t-140 55t-121 85.5t-96.5 112q-48 78 -74 166t-26 194
q0 66 8.5 131.5t27.5 135t48 144.5t70 161l224 -109q-35 -73 -60 -134.5t-41 -116.5t-23 -106t-7 -103q0 -65 18.5 -124t45.5 -106q48 -71 126.5 -113.5t173.5 -42.5h221q106 0 172.5 19.5t103.5 57t50.5 91.5t13.5 123v689h249v-194q0 -86 16 -135.5t42 -74.5t59.5 -32
t68.5 -7q21 0 47.5 7.5t50.5 25.5t40 48.5t16 75.5v286h248v-296q2 -76 41.5 -111.5t126.5 -35.5q21 0 47.5 7.5t49.5 25.5t39 48t16 76v286h248v-296q2 -76 45.5 -111t139.5 -35h78v-249h-78v0zM1799 1117l180 182l184 -184l-182 -182zM1800 -344l180 182l184 -184
l-182 -182z" />
    <glyph glyph-name="uni069B.init" unicode="&#x69b;" horiz-adv-x="1768" 
d="M745 -13q-183 0 -290 95q-55 -51 -122 -74t-138 -23h-225v249h225q12 0 34.5 4t45 19.5t39.5 46t17 84.5v4v284h249v-284q0 -82 38.5 -119.5t126.5 -37.5q12 0 34.5 4.5t45 20.5t39.5 47.5t17 84.5v284h248v-284q0 -82 39.5 -120.5t128.5 -38.5q13 0 35.5 5.5t44.5 22
t38 47.5t16 84q0 22 -3.5 53t-9 65.5t-12.5 70t-14 67.5t-13.5 58t-10.5 41l235 77q2 -7 8 -32t14.5 -62t17.5 -82t16.5 -90.5t12.5 -89t5 -76.5q0 -102 -33.5 -178.5t-87.5 -127t-122 -75.5t-137 -26q-186 0 -294 98q-55 -51 -121.5 -73.5t-136.5 -22.5zM622 -335l170 170
l170 -172l-170 -170zM1039 -337l172 170l170 -172l-170 -170zM840 -617l158 158l160 -160l-158 -158z" />
    <glyph glyph-name="uni069B.medi" unicode="&#x69b;" horiz-adv-x="1888" 
d="M-32 234h129q59 0 95.5 10t57 29.5t27.5 47.5t7 64v291h249v-286q0 -81 39 -118t124 -38h-1q15 1 36.5 6t42 20.5t35 45t14.5 79.5v291h248v-286q0 -82 39 -119t127 -37q24 0 47.5 7.5t42.5 25t31 45.5t14 69v-1v296h249v-296q2 -77 47 -111.5t138 -34.5h98v-249h-98
q-103 0 -179 22.5t-131 73.5q-51 -47 -119.5 -71.5t-139.5 -24.5q-94 0 -164.5 23t-125.5 74q-52 -46 -116.5 -71t-130.5 -26q-94 -1 -165.5 24t-123.5 69q-117 -93 -314 -93h-129v249zM570 -335l170 170l170 -172l-170 -170zM987 -337l172 170l170 -172l-170 -170z
M788 -617l158 158l160 -160l-158 -158z" />
    <glyph glyph-name="uni069B.fina" unicode="&#x69b;" horiz-adv-x="2936" 
d="M2870 -15q-206 0 -315 100q-57 -46 -128.5 -73t-143.5 -27q-188 0 -296 100q-57 -46 -128.5 -73t-143.5 -27q-54 0 -98.5 8t-87.5 28v-34q0 -275 -148.5 -407.5t-440.5 -132.5h-221q-79 0 -153.5 19.5t-140 55t-121 85.5t-96.5 112q-48 78 -74 166t-26 194
q0 66 8.5 131.5t27.5 135t48 144.5t70 161l224 -109q-35 -73 -60 -134.5t-41 -116.5t-23 -106t-7 -103q0 -65 18.5 -124t45.5 -106q48 -71 126.5 -113.5t173.5 -42.5h221q106 0 172.5 19.5t103.5 57t50.5 91.5t13.5 123v689h249v-194q0 -86 16 -135.5t42 -74.5t59.5 -32
t68.5 -7q21 0 47.5 7.5t50.5 25.5t40 48.5t16 75.5v286h248v-296q2 -76 41.5 -111.5t126.5 -35.5q21 0 47.5 7.5t49.5 25.5t39 48t16 76v286h248v-296q2 -76 45.5 -111t139.5 -35h78v-249h-78v0zM1613 -338l170 170l170 -172l-170 -170zM2030 -340l172 170l170 -172
l-170 -170zM1831 -620l158 158l160 -160l-158 -158z" />
    <glyph glyph-name="uni069C.init" unicode="&#x69c;" horiz-adv-x="1764" 
d="M745 -13q-183 0 -290 95q-55 -51 -122 -74t-138 -23h-225v249h225q12 0 34.5 4t45 19.5t39.5 46t17 84.5v4v284h249v-284q0 -82 38.5 -119.5t126.5 -37.5q12 0 34.5 4.5t45 20.5t39.5 47.5t17 84.5v284h248v-284q0 -82 39.5 -120.5t128.5 -38.5q13 0 35.5 5.5t44.5 22
t38 47.5t16 84q0 22 -3.5 53t-9 65.5t-12.5 70t-14 67.5t-13.5 58t-10.5 41l235 77q2 -7 8 -32t14.5 -62t17.5 -82t16.5 -90.5t12.5 -89t5 -76.5q0 -102 -33.5 -178.5t-87.5 -127t-122 -75.5t-137 -26q-186 0 -294 98q-55 -51 -121.5 -73.5t-136.5 -22.5zM627 -335l170 170
l170 -172l-170 -170zM1044 -337l172 170l170 -172l-170 -170zM845 -617l158 158l160 -160l-158 -158zM963 1078l-170 -172l-170 170l170 172zM1392 1082l-168 -170l-175 168l172 172zM1171 1364l-160 -160l-158 158l160 160z" />
    <glyph glyph-name="uni069C.medi" unicode="&#x69c;" horiz-adv-x="1891" 
d="M-32 234h129q59 0 95.5 10t57 29.5t27.5 47.5t7 64v291h249v-286q0 -81 39 -118t124 -38h-1q15 1 36.5 6t42 20.5t35 45t14.5 79.5v291h248v-286q0 -82 39 -119t127 -37q24 0 47.5 7.5t42.5 25t31 45.5t14 69v-1v296h249v-296q2 -77 47 -111.5t138 -34.5h98v-249h-98
q-103 0 -179 22.5t-131 73.5q-51 -47 -119.5 -71.5t-139.5 -24.5q-94 0 -164.5 23t-125.5 74q-52 -46 -116.5 -71t-130.5 -26q-94 -1 -165.5 24t-123.5 69q-117 -93 -314 -93h-129v249zM575 -335l170 170l170 -172l-170 -170zM992 -337l172 170l170 -172l-170 -170z
M793 -617l158 158l160 -160l-158 -158zM911 1078l-170 -172l-170 170l170 172zM1340 1082l-168 -170l-175 168l172 172zM1119 1364l-160 -160l-158 158l160 160z" />
    <glyph glyph-name="uni069C.fina" unicode="&#x69c;" horiz-adv-x="2936" 
d="M2870 -15q-206 0 -315 100q-57 -46 -128.5 -73t-143.5 -27q-188 0 -296 100q-57 -46 -128.5 -73t-143.5 -27q-54 0 -98.5 8t-87.5 28v-34q0 -275 -148.5 -407.5t-440.5 -132.5h-221q-79 0 -153.5 19.5t-140 55t-121 85.5t-96.5 112q-48 78 -74 166t-26 194
q0 66 8.5 131.5t27.5 135t48 144.5t70 161l224 -109q-35 -73 -60 -134.5t-41 -116.5t-23 -106t-7 -103q0 -65 18.5 -124t45.5 -106q48 -71 126.5 -113.5t173.5 -42.5h221q106 0 172.5 19.5t103.5 57t50.5 91.5t13.5 123v689h249v-194q0 -86 16 -135.5t42 -74.5t59.5 -32
t68.5 -7q21 0 47.5 7.5t50.5 25.5t40 48.5t16 75.5v286h248v-296q2 -76 41.5 -111.5t126.5 -35.5q21 0 47.5 7.5t49.5 25.5t39 48t16 76v286h248v-296q2 -76 45.5 -111t139.5 -35h78v-249h-78v0zM1958 1050l-170 -172l-170 170l170 172zM2387 1054l-168 -170l-175 168
l172 172zM2166 1336l-160 -160l-158 158l160 160zM1614 -335l170 170l170 -172l-170 -170zM2031 -337l172 170l170 -172l-170 -170zM1832 -617l158 158l160 -160l-158 -158z" />
    <glyph glyph-name="uni069D.init" unicode="&#x69d;" horiz-adv-x="1801" 
d="M-19 -15v249h144q61 0 97 11t54.5 29t24.5 40.5t6 45.5v316h248v-316q0 -18 7 -35t18 -30.5t25 -22t29 -10.5l22 36q40 66 84.5 133t93.5 129.5t104 117t117 95t131 63.5t148 23q78 0 155 -21.5t137.5 -72.5t98 -135.5t37.5 -211.5q0 -120 -40.5 -202.5t-104 -133.5
t-142 -74t-153.5 -23h-572q-36 0 -80 1.5t-88 10t-83.5 26.5t-67.5 52q-109 -87 -299 -90h-151zM1334 611q-60 0 -121 -31t-120.5 -83t-114.5 -120t-101 -143h445q37 0 76 9.5t71 31t53 56.5t21 87q0 56 -17.5 93.5t-46.5 59.5t-66.5 31t-78.5 9zM1351 -502l-168 170
l166 172l172 -172zM932 -503l-168 170l165 172l172 -172z" />
    <glyph glyph-name="uni069D.medi" unicode="&#x69d;" horiz-adv-x="1916" 
d="M661 298q40 66 84.5 133.5t93.5 129.5t104 117t117 95t131 63.5t148 23.5q78 0 154 -21.5t136 -72.5t97 -136t37 -212q0 -55 -9.5 -99.5t-25.5 -84.5h209v-249h-1182q-36 0 -80 6.5t-87 18.5t-82.5 29t-66.5 38q-56 -48 -130 -69t-172 -23h-156v249h149q61 0 97 11
t54.5 28.5t24.5 38t6 40.5v324h248v-316q0 -18 7 -35t18 -30.5t25 -22t29 -10.5zM1339 612q-60 0 -122 -31t-122 -83.5t-115.5 -120.5t-101.5 -143h449q38 0 77 12t70.5 35.5t51 58t19.5 78.5q0 56 -17 93.5t-45.5 60t-65.5 31.5t-78 9zM1445 -503l-168 170l166 172
l172 -172zM1026 -504l-168 170l165 172l172 -172z" />
    <glyph glyph-name="uni069D.fina" unicode="&#x69d;" horiz-adv-x="2856" 
d="M722 -552q-80 0 -155 19t-140.5 54t-121 86t-96.5 115q-48 79 -73.5 167.5t-25.5 194.5q0 66 8 129.5t26 131t46.5 141t69.5 158.5l225 -107q-35 -72 -59 -133t-39 -115t-22 -104t-7 -101q0 -71 15.5 -125.5t48.5 -105.5q46 -75 124.5 -115.5t175.5 -40.5h219
q106 0 172 20t103 58t50 93t13 124v684h248v-319q0 -17 5.5 -33t14.5 -29t20 -21.5t22 -11.5q74 121 150 230t160 190.5t180 129.5t210 48q78 0 154 -23t136 -76.5t96.5 -139.5t36.5 -212q0 -51 -7.5 -94.5t-21.5 -80.5h186v-249h-1162q-18 0 -41.5 1t-47.5 4t-48 9.5
t-43 17.5v-25q0 -278 -147 -411t-439 -133h-219zM2280 234q33 0 72.5 8.5t73.5 28.5t57 54t23 84q0 56 -18 94.5t-48.5 62.5t-69.5 34.5t-81 10.5q-59 0 -122 -31.5t-125 -83.5t-119.5 -120.5t-103.5 -141.5h461zM2386 -511l-168 170l166 172l172 -172zM1967 -512l-168 170
l165 172l172 -172z" />
    <glyph glyph-name="uni069E.init" unicode="&#x69e;" horiz-adv-x="1792" 
d="M-22 -15v249h144q61 0 97 11t54.5 29t24.5 40.5t6 45.5v316h248v-316q0 -18 7 -35t18 -30.5t25 -22t29 -10.5l22 36q40 66 84.5 133t93.5 129.5t104 117t117 95t131 63.5t148 23q78 0 155 -21.5t137.5 -72.5t98 -135.5t37.5 -211.5q0 -120 -40.5 -202.5t-104 -133.5
t-142 -74t-153.5 -23h-572q-36 0 -80 1.5t-88 10t-83.5 26.5t-67.5 52q-109 -87 -299 -90h-151zM1331 611q-60 0 -121 -31t-120.5 -83t-114.5 -120t-101 -143h445q37 0 76 9.5t71 31t53 56.5t21 87q0 56 -17.5 93.5t-46.5 59.5t-66.5 31t-78.5 9zM1251 1229l-170 -172
l-170 170l170 172zM1680 1233l-168 -170l-175 168l172 172zM1459 1515l-160 -160l-158 158l160 160z" />
    <glyph glyph-name="uni069E.medi" unicode="&#x69e;" horiz-adv-x="1904" 
d="M650 298q40 66 84.5 133.5t93.5 129.5t104 117t117 95t131 63.5t148 23.5q78 0 154 -21.5t136 -72.5t97 -136t37 -212q0 -55 -9.5 -99.5t-25.5 -84.5h209v-249h-1182q-36 0 -80 6.5t-87 18.5t-82.5 29t-66.5 38q-56 -48 -130 -69t-172 -23h-156v249h149q61 0 97 11
t54.5 28.5t24.5 38t6 40.5v324h248v-316q0 -18 7 -35t18 -30.5t25 -22t29 -10.5zM1328 612q-60 0 -122 -31t-122 -83.5t-115.5 -120.5t-101.5 -143h449q38 0 77 12t70.5 35.5t51 58t19.5 78.5q0 56 -17 93.5t-45.5 60t-65.5 31.5t-78 9zM1249 1229l-170 -172l-170 170
l170 172zM1678 1233l-168 -170l-175 168l172 172zM1457 1515l-160 -160l-158 158l160 160z" />
    <glyph glyph-name="uni069E.fina" unicode="&#x69e;" horiz-adv-x="2852" 
d="M722 -552q-80 0 -155 19t-140.5 54t-121 86t-96.5 115q-48 79 -73.5 167.5t-25.5 194.5q0 66 8 129.5t26 131t46.5 141t69.5 158.5l225 -107q-35 -72 -59 -133t-39 -115t-22 -104t-7 -101q0 -71 15.5 -125.5t48.5 -105.5q46 -75 124.5 -115.5t175.5 -40.5h219
q106 0 172 20t103 58t50 93t13 124v684h248v-319q0 -17 5.5 -33t14.5 -29t20 -21.5t22 -11.5q74 121 150 230t160 190.5t180 129.5t210 48q78 0 154 -23t136 -76.5t96.5 -139.5t36.5 -212q0 -51 -7.5 -94.5t-21.5 -80.5h186v-249h-1162q-18 0 -41.5 1t-47.5 4t-48 9.5
t-43 17.5v-25q0 -278 -147 -411t-439 -133h-219zM2280 234q33 0 72.5 8.5t73.5 28.5t57 54t23 84q0 56 -18 94.5t-48.5 62.5t-69.5 34.5t-81 10.5q-59 0 -122 -31.5t-125 -83.5t-119.5 -120.5t-103.5 -141.5h461zM2208 1229l-170 -172l-170 170l170 172zM2637 1233
l-168 -170l-175 168l172 172zM2416 1515l-160 -160l-158 158l160 160z" />
    <glyph glyph-name="uni069F.init" unicode="&#x69f;" horiz-adv-x="1392" 
d="M-35 -15v249h199l84 129v1064h248v-759q40 41 84 75.5t92 60t100 40t108 14.5q79 0 155 -23t136 -76t96.5 -139t36.5 -212q0 -120 -40 -201.5t-102.5 -130.5t-140 -70t-152.5 -21h-904zM880 610q-58 0 -120 -31t-123 -83t-117 -120t-102 -142h451q5 0 24 1t45 5.5t55 15
t53 30t40 49t16 73.5q0 56 -19 94.5t-50 62.5t-71 34.5t-82 10.5zM919 1318l-170 -172l-170 170l170 172zM1348 1322l-168 -170l-175 168l172 172zM1127 1604l-160 -160l-158 158l160 160z" />
    <glyph glyph-name="uni069F.medi" unicode="&#x69f;" horiz-adv-x="1472" 
d="M-38 -15v249h199l84 129v1064h248v-759q40 41 84 75.5t92 60t100 40t108 14.5q79 0 155 -23t136 -76t96.5 -139t36.5 -212q0 -51 -7.5 -94t-21.5 -80h216v-249h-607h-919zM877 610q-58 0 -120 -31t-123 -83t-117 -120t-102 -142h462q12 0 33.5 2t46 8.5t50 18t46 31
t33.5 47.5t13 67q0 56 -19 94.5t-50 62.5t-71 34.5t-82 10.5zM919 1318l-170 -172l-170 170l170 172zM1348 1322l-168 -170l-175 168l172 172zM1127 1604l-160 -160l-158 158l160 160z" />
    <glyph glyph-name="uni069F.fina" unicode="&#x69f;" horiz-adv-x="1603" 
d="M127 -15v249h199l84 129v1064h248v-759q40 41 84 75.5t92 60t100 40t108 14.5q79 0 155 -23t136 -76t96.5 -139t36.5 -212q0 -51 -7.5 -94t-21.5 -80h191v-249h-582h-919zM1042 610q-58 0 -120 -31t-123 -83t-117 -120t-102 -142h462q12 0 33.5 2t46 8.5t50 18t46 31
t33.5 47.5t13 67q0 56 -19 94.5t-50 62.5t-71 34.5t-82 10.5zM1044 1318l-170 -172l-170 170l170 172zM1473 1322l-168 -170l-175 168l172 172zM1252 1604l-160 -160l-158 158l160 160z" />
    <glyph glyph-name="uni06A0.init" unicode="&#x6a0;" horiz-adv-x="1094" 
d="M872 -15h-901v249h284q-25 35 -39 69t-21 64.5t-8.5 58t-1.5 48.5q0 89 34 165t92.5 132t136 88t164.5 32q50 0 92 -8.5t85.5 -26t93 -45t112.5 -64.5l-125 -213q-26 17 -58 36t-66.5 35t-69 26.5t-64.5 10.5q-33 0 -67.5 -11t-62.5 -32t-46 -52.5t-18 -72.5
q0 -12 3.5 -28t12.5 -35.5t25.5 -40.5t42.5 -43h-1q60 -49 161.5 -71t237.5 -22h110v-249h-138zM575 1281l-170 -172l-170 170l170 172zM1004 1285l-168 -170l-175 168l172 172zM783 1567l-160 -160l-158 158l160 160z" />
    <glyph glyph-name="uni06A0.medi" unicode="&#x6a0;" horiz-adv-x="1276" 
d="M1288 -15h-378q-19 0 -42 4t-53.5 16t-69.5 35t-90 61q-60 -29 -136.5 -50.5t-163.5 -36t-182.5 -22t-193.5 -7.5v249q67 0 132 3t123.5 8.5t109 14t90.5 19.5q-85 75 -153.5 132.5t-107.5 97.5l-28 28v54q0 21 2 46.5t9.5 53t20.5 55t36 53.5q43 48 105.5 71.5
t153.5 23.5h350q45 0 88.5 -12t80.5 -34t66.5 -53.5t46.5 -70.5q11 -26 17.5 -58t6.5 -58q0 -24 -10 -50t-38 -64.5t-78.5 -95t-130.5 -142.5q9 -5 23 -8.5t28 -6t25.5 -4.5t14.5 -3h1h325v-249zM452 662q-30 0 -47.5 -5t-25.5 -9l286 -288q33 28 71.5 62.5t72 70t56 69
t24.5 59.5q1 15 -14 28t-38 13h-385zM605 1286l-170 -172l-170 170l170 172zM1034 1290l-168 -170l-175 168l172 172zM813 1572l-160 -160l-158 158l160 160z" />
    <glyph glyph-name="uni06A0.fina" unicode="&#x6a0;" horiz-adv-x="1391" 
d="M1236 -759h-494q-143 0 -266 30t-213 95.5t-141.5 168t-51.5 246.5q0 103 47.5 194.5t144.5 179.5q59 53 123.5 98t134.5 87l-270 264q0 22 4.5 51.5t14 61t25 62t37.5 56.5q45 48 109 71.5t157 23.5h329q45 0 86.5 -12t77 -34t64 -53t46.5 -68q12 -27 18 -56t6 -57
q0 -56 -26 -104t-68 -89.5t-94.5 -78.5t-104.5 -72q48 -38 71.5 -53.5t30.5 -18.5h374v-249h-382q-32 0 -61 6.5t-63.5 25.5t-80 54t-111.5 91q-75 -45 -146 -90.5t-126.5 -92.5t-89 -96.5t-33.5 -101.5q0 -67 21 -114.5t55.5 -80t79 -51.5t92 -29t94.5 -13t86 -3h494v-249z
M576 700q-38 0 -57.5 -1t-23.5 -7q17 -19 41.5 -46.5t55 -60.5t66.5 -70.5t76 -76.5q76 54 140.5 98t115.5 94q11 11 14.5 25.5t0.5 22.5q-5 11 -18 16.5t-30 5.5h-381zM702 1295l-170 -172l-170 170l170 172zM1131 1299l-168 -170l-175 168l172 172zM910 1581l-160 -160
l-158 158l160 160z" />
    <glyph glyph-name="uni06A1.fina" unicode="&#x6a1;" horiz-adv-x="2114" 
d="M464 240q84 -10 174.5 -16.5t178.5 -10t170 -4t149 0.5t115.5 3.5t69.5 5.5q-50 50 -80 115.5t-30 146.5q0 79 33 150t90.5 124t134.5 84t165 31q93 0 166.5 -32.5t124.5 -87t78 -124.5t27 -145q0 -42 -5 -75t-15.5 -61.5t-25.5 -54.5t-35 -54q26 -2 53.5 -2h56.5h84
v-249h-84q-127 0 -235 11t-198 36q-34 -12 -96.5 -23.5t-148.5 -20.5t-191.5 -14.5t-223.5 -6.5t-246 4.5t-258 19.5q-74 8 -140 29t-117 69q-20 19 -41.5 46t-38.5 64t-28 83.5t-11 104.5q0 50 10 107.5t22.5 108.5t23.5 88t14 46l119 -38l118 -37q-9 -27 -19 -63.5
t-19 -75t-15 -74.5t-6 -63q0 -48 13.5 -76t33 -43t42.5 -20t41 -7zM1452 473q0 -38 12 -67t35 -52.5t55 -41.5t73 -33q38 15 68.5 32t52.5 40t33.5 52.5t11.5 70.5q0 24 -13 50t-35 47.5t-51 35.5t-60 14q-36 0 -69 -12.5t-58 -33t-40 -47.5t-15 -55z" />
    <glyph glyph-name="uni06A2.init" unicode="&#x6a2;" horiz-adv-x="1014" 
d="M-36 -15v249h408q84 0 141 9.5t92.5 24.5t53.5 33.5t26 37.5q-133 -18 -239 -3.5t-180 60t-113.5 121.5t-39.5 182q0 84 31 158.5t86.5 130t131 87t165.5 27.5q80 -3 141.5 -28t107 -66t76 -95.5t49 -117.5t27 -131.5t9.5 -137.5l-4 -74q-8 -140 -56 -230.5t-124.5 -143
t-174.5 -73t-206 -20.5h-408zM525 853q-36 3 -70 -5.5t-59.5 -28.5t-41 -49.5t-15.5 -68.5q0 -87 91.5 -125.5t263.5 -10.5q-2 43 -7 91t-22 90t-50 71.5t-90 35.5zM360 -335l180 182l184 -184l-182 -182z" />
    <glyph glyph-name="uni06A2.medi" unicode="&#x6a2;" horiz-adv-x="1084" 
d="M554 867q93 0 166.5 -34t124.5 -89.5t78 -126.5t27 -146q0 -42 -5 -73.5t-15.5 -58t-25.5 -51t-35 -52.5q18 -1 39.5 -1.5t43 -0.5h41.5h35h72v-249h-72q-64 0 -130.5 4t-130 11.5t-120.5 18t-102 23.5q-91 -26 -204 -41.5t-258 -15.5h-105v249h105q27 0 43 -0.5t29 -0.5
t27 0.5t35 2.5q-42 56 -64 111t-22 124q0 79 33 151t90.5 126.5t134.5 86.5t165 32zM367 469q0 -71 50 -121t130 -81q38 15 70 34t55.5 43.5t37 56t13.5 70.5q0 24 -12 50t-34 47.5t-53 35.5t-70 14q-44 0 -79 -12.5t-59 -33t-36.5 -47.5t-12.5 -56zM360 -330l180 182
l184 -184l-182 -182z" />
    <glyph glyph-name="uni06A2.fina" unicode="&#x6a2;" horiz-adv-x="2124" 
d="M464 240q84 -10 174.5 -16.5t178.5 -10t170 -4t149 0.5t115.5 3.5t69.5 5.5q-50 50 -80 115.5t-30 146.5q0 79 33 150t90.5 124t134.5 84t165 31q93 0 166.5 -32.5t124.5 -87t78 -124.5t27 -145q0 -42 -5 -75t-15.5 -61.5t-25.5 -54.5t-35 -54q26 -2 53.5 -2h56.5h84
v-249h-84q-127 0 -235 11t-198 36q-34 -12 -96.5 -23.5t-148.5 -20.5t-191.5 -14.5t-223.5 -6.5t-246 4.5t-258 19.5q-74 8 -140 29t-117 69q-20 19 -41.5 46t-38.5 64t-28 83.5t-11 104.5q0 50 10 107.5t22.5 108.5t23.5 88t14 46l119 -38l118 -37q-9 -27 -19 -63.5
t-19 -75t-15 -74.5t-6 -63q0 -48 13.5 -76t33 -43t42.5 -20t41 -7zM1452 473q0 -38 12 -67t35 -52.5t55 -41.5t73 -33q38 15 68.5 32t52.5 40t33.5 52.5t11.5 70.5q0 24 -13 50t-35 47.5t-51 35.5t-60 14q-36 0 -69 -12.5t-58 -33t-40 -47.5t-15 -55zM1445 -340l180 182
l184 -184l-182 -182z" />
    <glyph glyph-name="uni06A3.init" unicode="&#x6a3;" horiz-adv-x="1004" 
d="M-36 -15v249h408q84 0 141 9.5t92.5 24.5t53.5 33.5t26 37.5q-133 -18 -239 -3.5t-180 60t-113.5 121.5t-39.5 182q0 84 31 158.5t86.5 130t131 87t165.5 27.5q80 -3 141.5 -28t107 -66t76 -95.5t49 -117.5t27 -131.5t9.5 -137.5l-4 -74q-8 -140 -56 -230.5t-124.5 -143
t-174.5 -73t-206 -20.5h-408zM525 853q-36 3 -70 -5.5t-59.5 -28.5t-41 -49.5t-15.5 -68.5q0 -87 91.5 -125.5t263.5 -10.5q-2 43 -7 91t-22 90t-50 71.5t-90 35.5zM313 1422l180 182l184 -184l-182 -182zM318 -340l180 182l184 -184l-182 -182z" />
    <glyph glyph-name="uni06A3.medi" unicode="&#x6a3;" horiz-adv-x="1100" 
d="M564 867q93 0 166.5 -34t124.5 -89.5t78 -126.5t27 -146q0 -42 -5 -73.5t-15.5 -58t-25.5 -51t-35 -52.5q18 -1 39.5 -1.5t43 -0.5h41.5h35h72v-249h-72q-64 0 -130.5 4t-130 11.5t-120.5 18t-102 23.5q-91 -26 -204 -41.5t-258 -15.5h-105v249h105q27 0 43 -0.5t29 -0.5
t27 0.5t35 2.5q-42 56 -64 111t-22 124q0 79 33 151t90.5 126.5t134.5 86.5t165 32zM377 469q0 -71 50 -121t130 -81q38 15 70 34t55.5 43.5t37 56t13.5 70.5q0 24 -12 50t-34 47.5t-53 35.5t-70 14q-44 0 -79 -12.5t-59 -33t-36.5 -47.5t-12.5 -56zM363 1281l180 182
l184 -184l-182 -182zM368 -340l180 182l184 -184l-182 -182z" />
    <glyph glyph-name="uni06A3.fina" unicode="&#x6a3;" horiz-adv-x="2122" 
d="M464 240q84 -10 174.5 -16.5t178.5 -10t170 -4t149 0.5t115.5 3.5t69.5 5.5q-50 50 -80 115.5t-30 146.5q0 79 33 150t90.5 124t134.5 84t165 31q93 0 166.5 -32.5t124.5 -87t78 -124.5t27 -145q0 -42 -5 -75t-15.5 -61.5t-25.5 -54.5t-35 -54q26 -2 53.5 -2h56.5h84
v-249h-84q-127 0 -235 11t-198 36q-34 -12 -96.5 -23.5t-148.5 -20.5t-191.5 -14.5t-223.5 -6.5t-246 4.5t-258 19.5q-74 8 -140 29t-117 69q-20 19 -41.5 46t-38.5 64t-28 83.5t-11 104.5q0 50 10 107.5t22.5 108.5t23.5 88t14 46l119 -38l118 -37q-9 -27 -19 -63.5
t-19 -75t-15 -74.5t-6 -63q0 -48 13.5 -76t33 -43t42.5 -20t41 -7zM1452 473q0 -38 12 -67t35 -52.5t55 -41.5t73 -33q38 15 68.5 32t52.5 40t33.5 52.5t11.5 70.5q0 24 -13 50t-35 47.5t-51 35.5t-60 14q-36 0 -69 -12.5t-58 -33t-40 -47.5t-15 -55zM1464 1281l180 182
l184 -184l-182 -182zM1469 -340l180 182l184 -184l-182 -182z" />
    <glyph glyph-name="uni06A4.init" unicode="&#x6a4;" horiz-adv-x="1004" arabic-form="initial" 
d="M-36 -15v249h408q84 0 141 9.5t92.5 24.5t53.5 33.5t26 37.5q-133 -18 -239 -3.5t-180 60t-113.5 121.5t-39.5 182q0 84 31 158.5t86.5 130t131 87t165.5 27.5q80 -3 141.5 -28t107 -66t76 -95.5t49 -117.5t27 -131.5t9.5 -137.5l-4 -74q-8 -140 -56 -230.5t-124.5 -143
t-174.5 -73t-206 -20.5h-408zM525 853q-36 3 -70 -5.5t-59.5 -28.5t-41 -49.5t-15.5 -68.5q0 -87 91.5 -125.5t263.5 -10.5q-2 43 -7 91t-22 90t-50 71.5t-90 35.5zM467 1417l-170 -172l-170 170l170 172zM896 1421l-168 -170l-175 168l172 172zM675 1703l-160 -160
l-158 158l160 160z" />
    <glyph glyph-name="uni06A4.medi" unicode="&#x6a4;" horiz-adv-x="1088" arabic-form="medial" 
d="M554 867q93 0 166.5 -34t124.5 -89.5t78 -126.5t27 -146q0 -42 -5 -73.5t-15.5 -58t-25.5 -51t-35 -52.5q18 -1 39.5 -1.5t43 -0.5h41.5h35h72v-249h-72q-64 0 -130.5 4t-130 11.5t-120.5 18t-102 23.5q-91 -26 -204 -41.5t-258 -15.5h-105v249h105q27 0 43 -0.5t29 -0.5
t27 0.5t35 2.5q-42 56 -64 111t-22 124q0 79 33 151t90.5 126.5t134.5 86.5t165 32zM367 469q0 -71 50 -121t130 -81q38 15 70 34t55.5 43.5t37 56t13.5 70.5q0 24 -12 50t-34 47.5t-53 35.5t-70 14q-44 0 -79 -12.5t-59 -33t-36.5 -47.5t-12.5 -56zM505 1282l-170 -172
l-170 170l170 172zM934 1286l-168 -170l-175 168l172 172zM713 1568l-160 -160l-158 158l160 160z" />
    <glyph glyph-name="uni06A4.fina" unicode="&#x6a4;" horiz-adv-x="2122" arabic-form="final" 
d="M464 240q84 -10 174.5 -16.5t178.5 -10t170 -4t149 0.5t115.5 3.5t69.5 5.5q-50 50 -80 115.5t-30 146.5q0 79 33 150t90.5 124t134.5 84t165 31q93 0 166.5 -32.5t124.5 -87t78 -124.5t27 -145q0 -42 -5 -75t-15.5 -61.5t-25.5 -54.5t-35 -54q26 -2 53.5 -2h56.5h84
v-249h-84q-127 0 -235 11t-198 36q-34 -12 -96.5 -23.5t-148.5 -20.5t-191.5 -14.5t-223.5 -6.5t-246 4.5t-258 19.5q-74 8 -140 29t-117 69q-20 19 -41.5 46t-38.5 64t-28 83.5t-11 104.5q0 50 10 107.5t22.5 108.5t23.5 88t14 46l119 -38l118 -37q-9 -27 -19 -63.5
t-19 -75t-15 -74.5t-6 -63q0 -48 13.5 -76t33 -43t42.5 -20t41 -7zM1452 473q0 -38 12 -67t35 -52.5t55 -41.5t73 -33q38 15 68.5 32t52.5 40t33.5 52.5t11.5 70.5q0 24 -13 50t-35 47.5t-51 35.5t-60 14q-36 0 -69 -12.5t-58 -33t-40 -47.5t-15 -55zM1587 1318l-170 -172
l-170 170l170 172zM2016 1322l-168 -170l-175 168l172 172zM1795 1604l-160 -160l-158 158l160 160z" />
    <glyph glyph-name="uni06A5.init" unicode="&#x6a5;" horiz-adv-x="1019" 
d="M-30 -15v249h408q84 0 141 9.5t92.5 24.5t53.5 33.5t26 37.5q-133 -18 -239 -3.5t-180 60t-113.5 121.5t-39.5 182q0 84 31 158.5t86.5 130t131 87t165.5 27.5q80 -3 141.5 -28t107 -66t76 -95.5t49 -117.5t27 -131.5t9.5 -137.5l-4 -74q-8 -140 -56 -230.5t-124.5 -143
t-174.5 -73t-206 -20.5h-408zM531 853q-36 3 -70 -5.5t-59.5 -28.5t-41 -49.5t-15.5 -68.5q0 -87 91.5 -125.5t263.5 -10.5q-2 43 -7 91t-22 90t-50 71.5t-90 35.5zM128 -335l170 170l170 -172l-170 -170zM545 -337l172 170l170 -172l-170 -170zM346 -617l158 158l160 -160
l-158 -158z" />
    <glyph glyph-name="uni06A5.medi" unicode="&#x6a5;" horiz-adv-x="1088" 
d="M560 867q93 0 166.5 -34t124.5 -89.5t78 -126.5t27 -146q0 -42 -5 -73.5t-15.5 -58t-25.5 -51t-35 -52.5q18 -1 39.5 -1.5t43 -0.5h41.5h35h72v-249h-72q-64 0 -130.5 4t-130 11.5t-120.5 18t-102 23.5q-91 -26 -204 -41.5t-258 -15.5h-105v249h105q27 0 43 -0.5t29 -0.5
t27 0.5t35 2.5q-42 56 -64 111t-22 124q0 79 33 151t90.5 126.5t134.5 86.5t165 32zM373 469q0 -71 50 -121t130 -81q38 15 70 34t55.5 43.5t37 56t13.5 70.5q0 24 -12 50t-34 47.5t-53 35.5t-70 14q-44 0 -79 -12.5t-59 -33t-36.5 -47.5t-12.5 -56zM169 -335l170 170
l170 -172l-170 -170zM586 -337l172 170l170 -172l-170 -170zM387 -617l158 158l160 -160l-158 -158z" />
    <glyph glyph-name="uni06A5.fina" unicode="&#x6a5;" horiz-adv-x="2132" 
d="M464 240q84 -10 174.5 -16.5t178.5 -10t170 -4t149 0.5t115.5 3.5t69.5 5.5q-50 50 -80 115.5t-30 146.5q0 79 33 150t90.5 124t134.5 84t165 31q93 0 166.5 -32.5t124.5 -87t78 -124.5t27 -145q0 -42 -5 -75t-15.5 -61.5t-25.5 -54.5t-35 -54q26 -2 53.5 -2h56.5h84
v-249h-84q-127 0 -235 11t-198 36q-34 -12 -96.5 -23.5t-148.5 -20.5t-191.5 -14.5t-223.5 -6.5t-246 4.5t-258 19.5q-74 8 -140 29t-117 69q-20 19 -41.5 46t-38.5 64t-28 83.5t-11 104.5q0 50 10 107.5t22.5 108.5t23.5 88t14 46l119 -38l118 -37q-9 -27 -19 -63.5
t-19 -75t-15 -74.5t-6 -63q0 -48 13.5 -76t33 -43t42.5 -20t41 -7zM1452 473q0 -38 12 -67t35 -52.5t55 -41.5t73 -33q38 15 68.5 32t52.5 40t33.5 52.5t11.5 70.5q0 24 -13 50t-35 47.5t-51 35.5t-60 14q-36 0 -69 -12.5t-58 -33t-40 -47.5t-15 -55zM1249 -343l170 170
l170 -172l-170 -170zM1666 -345l172 170l170 -172l-170 -170zM1467 -625l158 158l160 -160l-158 -158z" />
    <glyph glyph-name="uni06A6.init" unicode="&#x6a6;" horiz-adv-x="1033" arabic-form="initial" 
d="M-36 -15v249h408q84 0 141 9.5t92.5 24.5t53.5 33.5t26 37.5q-133 -18 -239 -3.5t-180 60t-113.5 121.5t-39.5 182q0 84 31 158.5t86.5 130t131 87t165.5 27.5q80 -3 141.5 -28t107 -66t76 -95.5t49 -117.5t27 -131.5t9.5 -137.5l-4 -74q-8 -140 -56 -230.5t-124.5 -143
t-174.5 -73t-206 -20.5h-408zM525 853q-36 3 -70 -5.5t-59.5 -28.5t-41 -49.5t-15.5 -68.5q0 -87 91.5 -125.5t263.5 -10.5q-2 43 -7 91t-22 90t-50 71.5t-90 35.5zM702 1218l-152 153l150 159l157 -157zM342 1218l-151 154l150 156l156 -158zM702 1550l-152 157l150 154
l157 -155zM342 1552l-151 156l150 156l157 -157z" />
    <glyph glyph-name="uni06A6.medi" unicode="&#x6a6;" horiz-adv-x="1088" arabic-form="medial" 
d="M554 867q93 0 166.5 -34t124.5 -89.5t78 -126.5t27 -146q0 -42 -5 -73.5t-15.5 -58t-25.5 -51t-35 -52.5q18 -1 39.5 -1.5t43 -0.5h41.5h35h72v-249h-72q-64 0 -130.5 4t-130 11.5t-120.5 18t-102 23.5q-91 -26 -204 -41.5t-258 -15.5h-105v249h105q27 0 43 -0.5t29 -0.5
t27 0.5t35 2.5q-42 56 -64 111t-22 124q0 79 33 151t90.5 126.5t134.5 86.5t165 32zM367 469q0 -71 50 -121t130 -81q38 15 70 34t55.5 43.5t37 56t13.5 70.5q0 24 -12 50t-34 47.5t-53 35.5t-70 14q-44 0 -79 -12.5t-59 -33t-36.5 -47.5t-12.5 -56zM721 1053l-152 153
l150 159l157 -157zM361 1053l-151 154l150 156l156 -158zM721 1385l-152 157l150 154l157 -155zM361 1387l-151 156l150 156l157 -157z" />
    <glyph glyph-name="uni06A6.fina" unicode="&#x6a6;" horiz-adv-x="2124" arabic-form="final" 
d="M464 240q84 -10 174.5 -16.5t178.5 -10t170 -4t149 0.5t115.5 3.5t69.5 5.5q-50 50 -80 115.5t-30 146.5q0 79 33 150t90.5 124t134.5 84t165 31q93 0 166.5 -32.5t124.5 -87t78 -124.5t27 -145q0 -42 -5 -75t-15.5 -61.5t-25.5 -54.5t-35 -54q26 -2 53.5 -2h56.5h84
v-249h-84q-127 0 -235 11t-198 36q-34 -12 -96.5 -23.5t-148.5 -20.5t-191.5 -14.5t-223.5 -6.5t-246 4.5t-258 19.5q-74 8 -140 29t-117 69q-20 19 -41.5 46t-38.5 64t-28 83.5t-11 104.5q0 50 10 107.5t22.5 108.5t23.5 88t14 46l119 -38l118 -37q-9 -27 -19 -63.5
t-19 -75t-15 -74.5t-6 -63q0 -48 13.5 -76t33 -43t42.5 -20t41 -7zM1452 473q0 -38 12 -67t35 -52.5t55 -41.5t73 -33q38 15 68.5 32t52.5 40t33.5 52.5t11.5 70.5q0 24 -13 50t-35 47.5t-51 35.5t-60 14q-36 0 -69 -12.5t-58 -33t-40 -47.5t-15 -55zM1804 1044l-152 153
l150 159l157 -157zM1444 1044l-151 154l150 156l156 -158zM1804 1376l-152 157l150 154l157 -155zM1444 1378l-151 156l150 156l157 -157z" />
    <glyph glyph-name="uni06A7.fina" unicode="&#x6a7;" horiz-adv-x="1664" 
d="M709 -552q-89 0 -169.5 22.5t-148.5 64t-122.5 99t-92.5 128t-58.5 151t-20.5 167.5q0 65 6.5 129t23 132t44.5 142t70 159l223 -106q-36 -73 -59 -134t-36.5 -115.5t-18.5 -105t-5 -102.5q0 -80 25.5 -149.5t73 -121.5t114.5 -81.5t151 -29.5h75q110 0 198 10t150 41
t95.5 87.5t33.5 149.5h-143q-50 0 -102 8.5t-100 28t-90.5 51.5t-74 78.5t-50 108.5t-18.5 142q0 93 27.5 177t81.5 147.5t134 101.5t185 38q106 0 181.5 -39.5t123.5 -107t70.5 -156.5t22.5 -188v-141h169v-249h-170q-5 -158 -59.5 -262t-148.5 -165t-223 -85.5t-283 -24.5
h-85zM1111 629q-85 0 -133.5 -57t-48.5 -170q0 -45 16.5 -76.5t43.5 -52t60.5 -30t68.5 -9.5h143v141q0 93 -17.5 144t-41.5 75.5t-49.5 29.5t-41.5 5zM927 1310l180 182l184 -184l-182 -182z" />
    <glyph glyph-name="uni06A8.fina" unicode="&#x6a8;" horiz-adv-x="1664" 
d="M709 -552q-89 0 -169.5 22.5t-148.5 64t-122.5 99t-92.5 128t-58.5 151t-20.5 167.5q0 65 6.5 129t23 132t44.5 142t70 159l223 -106q-36 -73 -59 -134t-36.5 -115.5t-18.5 -105t-5 -102.5q0 -80 25.5 -149.5t73 -121.5t114.5 -81.5t151 -29.5h75q110 0 198 10t150 41
t95.5 87.5t33.5 149.5h-143q-50 0 -102 8.5t-100 28t-90.5 51.5t-74 78.5t-50 108.5t-18.5 142q0 93 27.5 177t81.5 147.5t134 101.5t185 38q106 0 181.5 -39.5t123.5 -107t70.5 -156.5t22.5 -188v-141h169v-249h-170q-5 -158 -59.5 -262t-148.5 -165t-223 -85.5t-283 -24.5
h-85zM1111 629q-85 0 -133.5 -57t-48.5 -170q0 -45 16.5 -76.5t43.5 -52t60.5 -30t68.5 -9.5h143v141q0 93 -17.5 144t-41.5 75.5t-49.5 29.5t-41.5 5zM1054 1300l-170 -172l-170 170l170 172zM1483 1304l-168 -170l-175 168l172 172zM1262 1586l-160 -160l-158 158l160 160
z" />
    <glyph glyph-name="uni06A9" unicode="&#x6a9;" horiz-adv-x="1997" arabic-form="isolated" 
d="M462 -15q-74 0 -140 25t-117 73q-20 19 -41.5 46t-38.5 64t-28 83.5t-11 104.5q0 50 10 108.5t22.5 110.5t23.5 90t14 47l119 -38l118 -37q-9 -27 -19 -64.5t-19 -77t-15 -76.5t-6 -64q0 -48 13.5 -77.5t33 -45t42.5 -20.5t41 -5l592 1q121 0 213.5 2t157 10.5t102.5 26
t49 47.5q7 20 -3 47t-33.5 60t-56.5 71.5t-72 80.5q-91 96 -166.5 165t-129.5 113.5t-84.5 66t-31.5 21.5l18 268l901 402l100 -228l-758 -330q71 -53 155 -130.5t183 -187.5q41 -46 79 -91t67 -92t46.5 -98.5t17.5 -109.5v-21.5t-2 -20.5q-17 -113 -75 -177.5t-154 -96
t-227.5 -39t-295.5 -7.5h-594z" />
    <glyph glyph-name="uni06AA.init" unicode="&#x6aa;" horiz-adv-x="1702" 
d="M1529 -15h-1555v249h1411q-8 56 -27 99.5t-54.5 73.5t-91 45.5t-134.5 15.5q-169 0 -298.5 1t-226 4.5t-165 11t-116 20t-78 31t-51.5 45.5q-20 26 -28.5 55t-8.5 56q0 26 5.5 47.5t9.5 33.5q33 112 142.5 219t298.5 206q61 31 114.5 55t105.5 44t104 38t110 36l76 -238
q-28 -7 -78 -24t-107 -39.5t-113.5 -47t-98.5 -46.5q-121 -63 -199.5 -124t-107.5 -118q21 -3 52.5 -5.5t79.5 -4.5q46 -3 103 -4t127.5 -2t156.5 -1h191q348 0 486 -242q28 -51 43.5 -106t22.5 -106t8 -95t1 -73z" />
    <glyph glyph-name="uni06AA.medi" unicode="&#x6aa;" horiz-adv-x="1953" 
d="M-25 -15v249h1424q24 0 33 3.5t9 10.5q0 12 -5.5 27t-14.5 32v-1q-19 31 -53.5 60t-79.5 51.5t-99 36.5t-111 14q-172 0 -302.5 1t-227.5 4.5t-164.5 10.5t-114.5 19.5t-77 31.5t-51 46q-22 29 -28.5 57.5t-6.5 54.5q0 71 37 139.5t100 132.5t145.5 122.5t174.5 110.5
q52 29 103 52.5t103.5 43.5t108 39t115.5 40l81 -240q-1 0 -20.5 -6.5t-52 -18t-74.5 -26.5t-86 -32t-88 -35.5t-80 -36.5q-51 -29 -102.5 -60.5t-95 -63t-76.5 -62t-48 -56.5q57 -5 107.5 -8t101 -5t103.5 -3.5t114.5 -2t135 -0.5h165.5q115 0 222 -38.5t191 -112.5
q45 -42 81 -84t64 -79q27 -34 53.5 -64.5t58 -54t70 -37t88.5 -13.5h67v-249h-67q-100 0 -174 25t-133 69l-23 -22q-83 -72 -210 -72h-1391z" />
    <glyph glyph-name="uni06AA.fina" unicode="&#x6aa;" horiz-adv-x="2511" 
d="M447 -15q-70 0 -138.5 24t-123 73t-88 124.5t-33.5 178.5q0 47 9 104.5t21 110.5t23.5 95.5t16.5 59.5l236 -74q-7 -22 -16.5 -58.5t-18.5 -78.5t-15.5 -84t-6.5 -75q0 -53 16.5 -83t38.5 -45t44.5 -19t34.5 -4h1518q24 0 33 3.5t9 10.5q0 12 -5.5 27t-14.5 33v-1
q-19 30 -54 59t-81.5 51.5t-101 36.5t-112.5 14q-172 0 -302.5 1t-227.5 4.5t-164.5 10.5t-114.5 19.5t-77 31.5t-51 46q-22 29 -28.5 57.5t-6.5 54.5q0 23 2.5 40.5t6.5 30.5h-1q14 57 51.5 113.5t95.5 111.5t134 107.5t168 101.5q54 27 105 50.5t103.5 44.5t107.5 40.5
t115 39.5l79 -234q-38 -13 -85 -29.5t-99 -37t-107 -44t-109 -50.5q-51 -29 -101 -60.5t-92.5 -63t-74.5 -62t-47 -56.5q77 -7 144 -11t139 -5.5t156.5 -2t195.5 -0.5h85q115 0 222 -38.5t191 -112.5q45 -42 81 -84t64 -79q27 -34 53.5 -64.5t58 -54t70 -37t88.5 -13.5h64
v-249h-64q-100 0 -174 25t-133 69l-23 -22q-83 -72 -210 -72h-1479z" />
    <glyph glyph-name="uni06AB.init" unicode="&#x6ab;" horiz-adv-x="1180" 
d="M-17 -15v249h585q16 0 44 1.5t55 8t46.5 19t19.5 34.5q0 43 -32.5 104t-83.5 130t-114.5 139.5t-126 133t-117.5 110.5t-88 72l20 226l870 398l91 -218l-732 -323q38 -37 85.5 -84t97.5 -99.5t99.5 -109t93 -113t77.5 -110.5t53 -102q17 -42 24 -81t7 -71q0 -40 -7.5 -70
t-16.5 -51q-12 -27 -37 -61t-69.5 -63t-112 -49t-163.5 -20h-568zM866 912q-54 0 -97 16t-74 45t-47.5 71t-16.5 95t16.5 96t47.5 73t74.5 46t96.5 16q51 0 95.5 -16t76.5 -46t50.5 -72.5t18.5 -94.5t-18 -95t-50 -73t-76.5 -46t-96.5 -15zM866 1039q22 0 41.5 6.5
t34.5 19.5t23.5 31.5t8.5 42.5t-8.5 43.5t-23.5 33t-34.5 21t-41.5 7.5q-45 0 -77.5 -28t-32.5 -77q0 -51 29.5 -75.5t80.5 -24.5z" />
    <glyph glyph-name="uni06AB.medi" unicode="&#x6ab;" horiz-adv-x="1254" 
d="M1262 -15h-30q-88 0 -153 16.5t-117 46t-95.5 71t-88.5 92.5q-24 -63 -76.5 -107t-120 -71t-144.5 -38.5t-152 -9.5h-312v249h326q66 0 122 7.5t97 25t65 46.5t27 71q0 43 -36.5 109t-95 147t-132 171.5t-148.5 183.5l42 203l868 421l102 -228l-759 -351
q94 -126 187.5 -250.5t187.5 -250.5q55 -73 101 -129.5t92.5 -95.5t97.5 -59.5t115 -20.5h30v-249zM907 886q-54 0 -97 16t-74 45t-47.5 71t-16.5 95t16.5 96t47.5 73t74.5 46t96.5 16q51 0 95.5 -16t76.5 -46t50.5 -72.5t18.5 -94.5t-18 -95t-50 -73t-76.5 -46t-96.5 -15z
M907 1013q22 0 41.5 6.5t34.5 19.5t23.5 31.5t8.5 42.5t-8.5 43.5t-23.5 33t-34.5 21t-41.5 7.5q-45 0 -77.5 -28t-32.5 -77q0 -51 29.5 -75.5t80.5 -24.5z" />
    <glyph glyph-name="uni06AB.fina" unicode="&#x6ab;" horiz-adv-x="2193" 
d="M1057 228q109 0 190.5 6.5t138.5 18.5t90 29.5t47 40.5v-1q5 8 7 21t2 25q0 19 -7.5 43t-20 50.5t-29.5 54t-36 54.5q-76 105 -133 180t-95 124q-45 57 -77 96l53 215l892 420l102 -228l-787 -361l307 -416q55 -75 98.5 -131.5t80.5 -97t70.5 -67t69 -42t75 -22
t88.5 -6.5h19v-249h-19q-86 0 -153 15.5t-121.5 43.5t-100.5 68t-90 90q-41 -82 -108 -127t-152.5 -66t-187.5 -25t-214 -4l-594 5q-74 0 -140 25t-117 73q-20 19 -41.5 46t-38.5 64t-28 83.5t-11 104.5q0 50 10 108.5t22.5 110.5t23.5 90t14 47l119 -38l118 -37
q-9 -27 -19 -64.5t-19 -77t-15 -76.5t-6 -64q0 -48 13.5 -77.5t33 -45t42.5 -20.5t41 -5l592 -4h1v0zM1885 902q-54 0 -97 16t-74 45t-47.5 71t-16.5 95t16.5 96t47.5 73t74.5 46t96.5 16q51 0 95.5 -16t76.5 -46t50.5 -72.5t18.5 -94.5t-18 -95t-50 -73t-76.5 -46
t-96.5 -15zM1885 1029q22 0 41.5 6.5t34.5 19.5t23.5 31.5t8.5 42.5t-8.5 43.5t-23.5 33t-34.5 21t-41.5 7.5q-45 0 -77.5 -28t-32.5 -77q0 -51 29.5 -75.5t80.5 -24.5z" />
    <glyph glyph-name="uni06AC.init" unicode="&#x6ac;" horiz-adv-x="1180" 
d="M-17 -15v249h585q16 0 44 1.5t55 8t46.5 19t19.5 34.5q0 43 -32.5 104t-83.5 130t-114.5 139.5t-126 133t-117.5 110.5t-88 72l20 226l870 398l91 -218l-732 -323q38 -37 85.5 -84t97.5 -99.5t99.5 -109t93 -113t77.5 -110.5t53 -102q17 -42 24 -81t7 -71q0 -40 -7.5 -70
t-16.5 -51q-12 -27 -37 -61t-69.5 -63t-112 -49t-163.5 -20h-568zM363 1697l180 182l184 -184l-182 -182z" />
    <glyph glyph-name="uni06AC.medi" unicode="&#x6ac;" horiz-adv-x="1250" 
d="M1262 -15h-30q-88 0 -153 16.5t-117 46t-95.5 71t-88.5 92.5q-24 -63 -76.5 -107t-120 -71t-144.5 -38.5t-152 -9.5h-312v249h326q66 0 122 7.5t97 25t65 46.5t27 71q0 43 -36.5 109t-95 147t-132 171.5t-148.5 183.5l42 203l868 421l102 -228l-759 -351
q94 -126 187.5 -250.5t187.5 -250.5q55 -73 101 -129.5t92.5 -95.5t97.5 -59.5t115 -20.5h30v-249zM363 1697l180 182l184 -184l-182 -182z" />
    <glyph glyph-name="uni06AC.fina" unicode="&#x6ac;" horiz-adv-x="2156" 
d="M831 622q106 21 168 41.5t90 35.5q-34 -1 -68 -2.5t-68 -2.5q-31 0 -61.5 7.5t-54.5 24t-38.5 42t-14.5 62.5q0 34 18.5 66t50.5 63.5t76.5 63t95.5 65.5l69 -120q-93 -55 -135 -90.5t-51 -51.5q15 0 31.5 0.5t37.5 0.5t48 0.5t64 0.5q27 -1 51.5 -10t42.5 -25t28.5 -39
t10.5 -53q0 -44 -24 -74t-70 -53.5t-114.5 -43t-156.5 -43.5zM1058 231q114 0 215 4.5t181 14.5t136 26t80 39q15 15 22.5 43.5t7.5 79.5v989h249v-989v-20q-1 -38 9 -71t29.5 -58.5t47 -40t62.5 -14.5h72v-249h-72q-39 0 -79.5 7t-78.5 21.5t-70.5 37.5t-55.5 56
q-51 -39 -127 -63t-171.5 -37.5t-209 -18.5t-239.5 -5h-11l-598 2q-74 0 -140 25t-117 73q-20 19 -41.5 46t-38.5 64t-28 83.5t-11 104.5q0 50 10 108.5t22.5 110.5t23.5 90t14 47l119 -38l118 -37q-9 -27 -19 -64.5t-19 -77t-15 -76.5t-6 -64q0 -48 13.5 -77.5t33 -45
t42.5 -20.5t41 -5zM824 1427l180 182l184 -184l-182 -182z" />
    <glyph glyph-name="uni06AD.init" unicode="&#x6ad;" horiz-adv-x="1180" arabic-form="initial" 
d="M-17 -15v249h585q16 0 44 1.5t55 8t46.5 19t19.5 34.5q0 43 -32.5 104t-83.5 130t-114.5 139.5t-126 133t-117.5 110.5t-88 72l20 226l870 398l91 -218l-732 -323q38 -37 85.5 -84t97.5 -99.5t99.5 -109t93 -113t77.5 -110.5t53 -102q17 -42 24 -81t7 -71q0 -40 -7.5 -70
t-16.5 -51q-12 -27 -37 -61t-69.5 -63t-112 -49t-163.5 -20h-568zM488 1560l-43 -159l-159 47l45 157zM743 1703l-44 -156l-160 41l46 160zM519 1798l-43 -147l-146 42l43 148z" />
    <glyph glyph-name="uni06AD.medi" unicode="&#x6ad;" horiz-adv-x="1250" arabic-form="medial" 
d="M1262 -15h-30q-88 0 -153 16.5t-117 46t-95.5 71t-88.5 92.5q-24 -63 -76.5 -107t-120 -71t-144.5 -38.5t-152 -9.5h-312v249h326q66 0 122 7.5t97 25t65 46.5t27 71q0 43 -36.5 109t-95 147t-132 171.5t-148.5 183.5l42 203l868 421l102 -228l-759 -351
q94 -126 187.5 -250.5t187.5 -250.5q55 -73 101 -129.5t92.5 -95.5t97.5 -59.5t115 -20.5h30v-249zM488 1560l-43 -159l-159 47l45 157zM743 1703l-44 -156l-160 41l46 160zM519 1798l-43 -147l-146 42l43 148z" />
    <glyph glyph-name="uni06AD.fina" unicode="&#x6ad;" horiz-adv-x="2156" arabic-form="final" 
d="M831 622q106 21 168 41.5t90 35.5q-34 -1 -68 -2.5t-68 -2.5q-31 0 -61.5 7.5t-54.5 24t-38.5 42t-14.5 62.5q0 34 18.5 66t50.5 63.5t76.5 63t95.5 65.5l69 -120q-93 -55 -135 -90.5t-51 -51.5q15 0 31.5 0.5t37.5 0.5t48 0.5t64 0.5q27 -1 51.5 -10t42.5 -25t28.5 -39
t10.5 -53q0 -44 -24 -74t-70 -53.5t-114.5 -43t-156.5 -43.5zM1058 231q114 0 215 4.5t181 14.5t136 26t80 39q15 15 22.5 43.5t7.5 79.5v989h249v-989v-20q-1 -38 9 -71t29.5 -58.5t47 -40t62.5 -14.5h72v-249h-72q-39 0 -79.5 7t-78.5 21.5t-70.5 37.5t-55.5 56
q-51 -39 -127 -63t-171.5 -37.5t-209 -18.5t-239.5 -5h-11l-598 2q-74 0 -140 25t-117 73q-20 19 -41.5 46t-38.5 64t-28 83.5t-11 104.5q0 50 10 108.5t22.5 110.5t23.5 90t14 47l119 -38l118 -37q-9 -27 -19 -64.5t-19 -77t-15 -76.5t-6 -64q0 -48 13.5 -77.5t33 -45
t42.5 -20.5t41 -5zM962 1328l-170 -172l-170 170l170 172zM1391 1332l-168 -170l-175 168l172 172zM1170 1614l-160 -160l-158 158l160 160z" />
    <glyph glyph-name="uni06AE.init" unicode="&#x6ae;" horiz-adv-x="1180" 
d="M-17 -15v249h585q16 0 44 1.5t55 8t46.5 19t19.5 34.5q0 43 -32.5 104t-83.5 130t-114.5 139.5t-126 133t-117.5 110.5t-88 72l20 226l870 398l91 -218l-732 -323q38 -37 85.5 -84t97.5 -99.5t99.5 -109t93 -113t77.5 -110.5t53 -102q17 -42 24 -81t7 -71q0 -40 -7.5 -70
t-16.5 -51q-12 -27 -37 -61t-69.5 -63t-112 -49t-163.5 -20h-568zM135 -335l170 170l170 -172l-170 -170zM552 -337l172 170l170 -172l-170 -170zM353 -617l158 158l160 -160l-158 -158z" />
    <glyph glyph-name="uni06AE.medi" unicode="&#x6ae;" horiz-adv-x="1250" 
d="M1262 -15h-30q-88 0 -153 16.5t-117 46t-95.5 71t-88.5 92.5q-24 -63 -76.5 -107t-120 -71t-144.5 -38.5t-152 -9.5h-312v249h326q66 0 122 7.5t97 25t65 46.5t27 71q0 43 -36.5 109t-95 147t-132 171.5t-148.5 183.5l42 203l868 421l102 -228l-759 -351
q94 -126 187.5 -250.5t187.5 -250.5q55 -73 101 -129.5t92.5 -95.5t97.5 -59.5t115 -20.5h30v-249zM278 -330l170 170l170 -172l-170 -170zM695 -332l172 170l170 -172l-170 -170zM496 -612l158 158l160 -160l-158 -158z" />
    <glyph glyph-name="uni06AE.fina" unicode="&#x6ae;" horiz-adv-x="2156" 
d="M831 622q106 21 168 41.5t90 35.5q-34 -1 -68 -2.5t-68 -2.5q-31 0 -61.5 7.5t-54.5 24t-38.5 42t-14.5 62.5q0 34 18.5 66t50.5 63.5t76.5 63t95.5 65.5l69 -120q-93 -55 -135 -90.5t-51 -51.5q15 0 31.5 0.5t37.5 0.5t48 0.5t64 0.5q27 -1 51.5 -10t42.5 -25t28.5 -39
t10.5 -53q0 -44 -24 -74t-70 -53.5t-114.5 -43t-156.5 -43.5zM1058 231q114 0 215 4.5t181 14.5t136 26t80 39q15 15 22.5 43.5t7.5 79.5v989h249v-989v-20q-1 -38 9 -71t29.5 -58.5t47 -40t62.5 -14.5h72v-249h-72q-39 0 -79.5 7t-78.5 21.5t-70.5 37.5t-55.5 56
q-51 -39 -127 -63t-171.5 -37.5t-209 -18.5t-239.5 -5h-11l-598 2q-74 0 -140 25t-117 73q-20 19 -41.5 46t-38.5 64t-28 83.5t-11 104.5q0 50 10 108.5t22.5 110.5t23.5 90t14 47l119 -38l118 -37q-9 -27 -19 -64.5t-19 -77t-15 -76.5t-6 -64q0 -48 13.5 -77.5t33 -45
t42.5 -20.5t41 -5zM619 -338l170 170l170 -172l-170 -170zM1036 -340l172 170l170 -172l-170 -170zM837 -620l158 158l160 -160l-158 -158z" />
    <glyph glyph-name="uni06AF" unicode="&#x6af;" horiz-adv-x="2035" arabic-form="isolated" 
d="M462 -15q-74 0 -140 25t-117 73q-20 19 -41.5 46t-38.5 64t-28 83.5t-11 104.5q0 50 10 108.5t22.5 110.5t23.5 90t14 47l119 -38l118 -37q-9 -27 -19 -64.5t-19 -77t-15 -76.5t-6 -64q0 -48 13.5 -77.5t33 -45t42.5 -20.5t41 -5l592 1q121 0 213.5 2t157 10.5t102.5 26
t49 47.5q7 20 -3 47t-33.5 60t-56.5 71.5t-72 80.5q-91 96 -166.5 165t-129.5 113.5t-84.5 66t-31.5 21.5l18 268l901 402l100 -228l-758 -330q71 -53 155 -130.5t183 -187.5q41 -46 79 -91t67 -92t46.5 -98.5t17.5 -109.5v-21.5t-2 -20.5q-17 -113 -75 -177.5t-154 -96
t-227.5 -39t-295.5 -7.5h-594zM1028.94 1509.06l793.301 338.575l54.1357 -114.562l-860.971 -369.263z" />
    <glyph glyph-name="uni06B0.init" unicode="&#x6b0;" horiz-adv-x="1180" 
d="M205 1447l762 331l52 -112l-827 -361zM-17 -15v249h585q16 0 44 1.5t55 8t46.5 19t19.5 34.5q0 43 -32.5 104t-83.5 130t-114.5 139.5t-126 133t-117.5 110.5t-88 72l20 226l870 398l91 -218l-732 -323q38 -37 85.5 -84t97.5 -99.5t99.5 -109t93 -113t77.5 -110.5
t53 -102q17 -42 24 -81t7 -71q0 -40 -7.5 -70t-16.5 -51q-12 -27 -37 -61t-69.5 -63t-112 -49t-163.5 -20h-568zM866 912q-54 0 -97 16t-74 45t-47.5 71t-16.5 95t16.5 96t47.5 73t74.5 46t96.5 16q51 0 95.5 -16t76.5 -46t50.5 -72.5t18.5 -94.5t-18 -95t-50 -73t-76.5 -46
t-96.5 -15zM866 1039q22 0 41.5 6.5t34.5 19.5t23.5 31.5t8.5 42.5t-8.5 43.5t-23.5 33t-34.5 21t-41.5 7.5q-45 0 -77.5 -28t-32.5 -77q0 -51 29.5 -75.5t80.5 -24.5z" />
    <glyph glyph-name="uni06B0.medi" unicode="&#x6b0;" horiz-adv-x="1250" 
d="M242 1449l762 331l52 -112l-827 -361zM1262 -15h-30q-88 0 -153 16.5t-117 46t-95.5 71t-88.5 92.5q-24 -63 -76.5 -107t-120 -71t-144.5 -38.5t-152 -9.5h-312v249h326q66 0 122 7.5t97 25t65 46.5t27 71q0 43 -36.5 109t-95 147t-132 171.5t-148.5 183.5l42 203
l868 421l102 -228l-759 -351q94 -126 187.5 -250.5t187.5 -250.5q55 -73 101 -129.5t92.5 -95.5t97.5 -59.5t115 -20.5h30v-249zM907 886q-54 0 -97 16t-74 45t-47.5 71t-16.5 95t16.5 96t47.5 73t74.5 46t96.5 16q51 0 95.5 -16t76.5 -46t50.5 -72.5t18.5 -94.5t-18 -95
t-50 -73t-76.5 -46t-96.5 -15zM907 1013q22 0 41.5 6.5t34.5 19.5t23.5 31.5t8.5 42.5t-8.5 43.5t-23.5 33t-34.5 21t-41.5 7.5q-45 0 -77.5 -28t-32.5 -77q0 -51 29.5 -75.5t80.5 -24.5z" />
    <glyph glyph-name="uni06B0.fina" unicode="&#x6b0;" horiz-adv-x="2188" 
d="M1214 1484l762 331l52 -112l-827 -361zM1057 228q109 0 190.5 6.5t138.5 18.5t90 29.5t47 40.5v-1q5 8 7 21t2 25q0 19 -7.5 43t-20 50.5t-29.5 54t-36 54.5q-76 105 -133 180t-95 124q-45 57 -77 96l53 215l892 420l102 -228l-787 -361l307 -416q55 -75 98.5 -131.5
t80.5 -97t70.5 -67t69 -42t75 -22t88.5 -6.5h19v-249h-19q-86 0 -153 15.5t-121.5 43.5t-100.5 68t-90 90q-41 -82 -108 -127t-152.5 -66t-187.5 -25t-214 -4l-594 5q-74 0 -140 25t-117 73q-20 19 -41.5 46t-38.5 64t-28 83.5t-11 104.5q0 50 10 108.5t22.5 110.5t23.5 90
t14 47l119 -38l118 -37q-9 -27 -19 -64.5t-19 -77t-15 -76.5t-6 -64q0 -48 13.5 -77.5t33 -45t42.5 -20.5t41 -5l592 -4h1v0zM1885 902q-54 0 -97 16t-74 45t-47.5 71t-16.5 95t16.5 96t47.5 73t74.5 46t96.5 16q51 0 95.5 -16t76.5 -46t50.5 -72.5t18.5 -94.5t-18 -95
t-50 -73t-76.5 -46t-96.5 -15zM1885 1029q22 0 41.5 6.5t34.5 19.5t23.5 31.5t8.5 42.5t-8.5 43.5t-23.5 33t-34.5 21t-41.5 7.5q-45 0 -77.5 -28t-32.5 -77q0 -51 29.5 -75.5t80.5 -24.5z" />
    <glyph glyph-name="uni06B1.init" unicode="&#x6b1;" horiz-adv-x="1165" arabic-form="initial" 
d="M-17 -15v249h585q16 0 44 1.5t55 8t46.5 19t19.5 34.5q0 43 -32.5 104t-83.5 130t-114.5 139.5t-126 133t-117.5 110.5t-88 72l20 226l870 398l91 -218l-732 -323q38 -37 85.5 -84t97.5 -99.5t99.5 -109t93 -113t77.5 -110.5t53 -102q17 -42 24 -81t7 -71q0 -40 -7.5 -70
t-16.5 -51q-12 -27 -37 -61t-69.5 -63t-112 -49t-163.5 -20h-568zM195 1489l762 331l52 -112l-827 -361zM433 1788l-49 -159l-156 51l50 159zM692 1923l-50 -154l-159 46l54 158z" />
    <glyph glyph-name="uni06B1.medi" unicode="&#x6b1;" horiz-adv-x="1245" arabic-form="medial" 
d="M1262 -15h-30q-88 0 -153 16.5t-117 46t-95.5 71t-88.5 92.5q-24 -63 -76.5 -107t-120 -71t-144.5 -38.5t-152 -9.5h-312v249h326q66 0 122 7.5t97 25t65 46.5t27 71q0 43 -36.5 109t-95 147t-132 171.5t-148.5 183.5l42 203l868 421l102 -228l-759 -351
q94 -126 187.5 -250.5t187.5 -250.5q55 -73 101 -129.5t92.5 -95.5t97.5 -59.5t115 -20.5h30v-249zM233 1489l762 331l52 -112l-827 -361zM494 1807l-49 -159l-156 51l50 159zM753 1942l-50 -154l-159 46l54 158z" />
    <glyph glyph-name="uni06B1.fina" unicode="&#x6b1;" horiz-adv-x="2188" arabic-form="final" 
d="M1057 228q109 0 190.5 6.5t138.5 18.5t90 29.5t47 40.5v-1q5 8 7 21t2 25q0 19 -7.5 43t-20 50.5t-29.5 54t-36 54.5q-76 105 -133 180t-95 124q-45 57 -77 96l53 215l892 420l102 -228l-787 -361l307 -416q55 -75 98.5 -131.5t80.5 -97t70.5 -67t69 -42t75 -22
t88.5 -6.5h19v-249h-19q-86 0 -153 15.5t-121.5 43.5t-100.5 68t-90 90q-41 -82 -108 -127t-152.5 -66t-187.5 -25t-214 -4l-594 5q-74 0 -140 25t-117 73q-20 19 -41.5 46t-38.5 64t-28 83.5t-11 104.5q0 50 10 108.5t22.5 110.5t23.5 90t14 47l119 -38l118 -37
q-9 -27 -19 -64.5t-19 -77t-15 -76.5t-6 -64q0 -48 13.5 -77.5t33 -45t42.5 -20.5t41 -5l592 -4h1v0zM1210 1489l762 331l52 -112l-827 -361zM1448 1807l-49 -159l-156 51l50 159zM1707 1942l-50 -154l-159 46l54 158z" />
    <glyph glyph-name="uni06B2.init" unicode="&#x6b2;" horiz-adv-x="1180" 
d="M-17 -15v249h585q16 0 44 1.5t55 8t46.5 19t19.5 34.5q0 43 -32.5 104t-83.5 130t-114.5 139.5t-126 133t-117.5 110.5t-88 72l20 226l870 398l91 -218l-732 -323q38 -37 85.5 -84t97.5 -99.5t99.5 -109t93 -113t77.5 -110.5t53 -102q17 -42 24 -81t7 -71q0 -40 -7.5 -70
t-16.5 -51q-12 -27 -37 -61t-69.5 -63t-112 -49t-163.5 -20h-568zM191 1466l762 331l52 -112l-827 -361zM719 -502l-168 170l166 172l172 -172zM300 -503l-168 170l165 172l172 -172z" />
    <glyph glyph-name="uni06B2.medi" unicode="&#x6b2;" horiz-adv-x="1250" 
d="M1262 -15h-30q-88 0 -153 16.5t-117 46t-95.5 71t-88.5 92.5q-24 -63 -76.5 -107t-120 -71t-144.5 -38.5t-152 -9.5h-312v249h326q66 0 122 7.5t97 25t65 46.5t27 71q0 43 -36.5 109t-95 147t-132 171.5t-148.5 183.5l42 203l868 421l102 -228l-759 -351
q94 -126 187.5 -250.5t187.5 -250.5q55 -73 101 -129.5t92.5 -95.5t97.5 -59.5t115 -20.5h30v-249zM248 1479l762 331l52 -112l-827 -361zM835 -507l-168 170l166 172l172 -172zM416 -508l-168 170l165 172l172 -172z" />
    <glyph glyph-name="uni06B2.fina" unicode="&#x6b2;" horiz-adv-x="2193" 
d="M1057 228q109 0 190.5 6.5t138.5 18.5t90 29.5t47 40.5v-1q5 8 7 21t2 25q0 19 -7.5 43t-20 50.5t-29.5 54t-36 54.5q-76 105 -133 180t-95 124q-45 57 -77 96l53 215l892 420l102 -228l-787 -361l307 -416q55 -75 98.5 -131.5t80.5 -97t70.5 -67t69 -42t75 -22
t88.5 -6.5h19v-249h-19q-86 0 -153 15.5t-121.5 43.5t-100.5 68t-90 90q-41 -82 -108 -127t-152.5 -66t-187.5 -25t-214 -4l-594 5q-74 0 -140 25t-117 73q-20 19 -41.5 46t-38.5 64t-28 83.5t-11 104.5q0 50 10 108.5t22.5 110.5t23.5 90t14 47l119 -38l118 -37
q-9 -27 -19 -64.5t-19 -77t-15 -76.5t-6 -64q0 -48 13.5 -77.5t33 -45t42.5 -20.5t41 -5l592 -4h1v0zM1208 1479l762 331l52 -112l-827 -361zM1095 -502l-168 170l166 172l172 -172zM676 -503l-168 170l165 172l172 -172z" />
    <glyph glyph-name="uni06B3.init" unicode="&#x6b3;" horiz-adv-x="1165" arabic-form="initial" 
d="M-17 -15v249h585q16 0 44 1.5t55 8t46.5 19t19.5 34.5q0 43 -32.5 104t-83.5 130t-114.5 139.5t-126 133t-117.5 110.5t-88 72l20 226l870 398l91 -218l-732 -323q38 -37 85.5 -84t97.5 -99.5t99.5 -109t93 -113t77.5 -110.5t53 -102q17 -42 24 -81t7 -71q0 -40 -7.5 -70
t-16.5 -51q-12 -27 -37 -61t-69.5 -63t-112 -49t-163.5 -20h-568zM200 1465l762 331l52 -112l-827 -361zM502 -872l-165 167l163 171l170 -170zM669 -316l-167 -165l-171 163l170 170z" />
    <glyph glyph-name="uni06B3.medi" unicode="&#x6b3;" horiz-adv-x="1250" arabic-form="medial" 
d="M1262 -15h-30q-88 0 -153 16.5t-117 46t-95.5 71t-88.5 92.5q-24 -63 -76.5 -107t-120 -71t-144.5 -38.5t-152 -9.5h-312v249h326q66 0 122 7.5t97 25t65 46.5t27 71q0 43 -36.5 109t-95 147t-132 171.5t-148.5 183.5l42 203l868 421l102 -228l-759 -351
q94 -126 187.5 -250.5t187.5 -250.5q55 -73 101 -129.5t92.5 -95.5t97.5 -59.5t115 -20.5h30v-249zM261 1475l762 331l52 -112l-827 -361zM601 -891l-165 167l163 171l170 -170zM768 -335l-167 -165l-171 163l170 170z" />
    <glyph glyph-name="uni06B3.fina" unicode="&#x6b3;" horiz-adv-x="2193" arabic-form="final" 
d="M1057 228q109 0 190.5 6.5t138.5 18.5t90 29.5t47 40.5v-1q5 8 7 21t2 25q0 19 -7.5 43t-20 50.5t-29.5 54t-36 54.5q-76 105 -133 180t-95 124q-45 57 -77 96l53 215l892 420l102 -228l-787 -361l307 -416q55 -75 98.5 -131.5t80.5 -97t70.5 -67t69 -42t75 -22
t88.5 -6.5h19v-249h-19q-86 0 -153 15.5t-121.5 43.5t-100.5 68t-90 90q-41 -82 -108 -127t-152.5 -66t-187.5 -25t-214 -4l-594 5q-74 0 -140 25t-117 73q-20 19 -41.5 46t-38.5 64t-28 83.5t-11 104.5q0 50 10 108.5t22.5 110.5t23.5 90t14 47l119 -38l118 -37
q-9 -27 -19 -64.5t-19 -77t-15 -76.5t-6 -64q0 -48 13.5 -77.5t33 -45t42.5 -20.5t41 -5l592 -4h1v0zM1202 1480l762 331l52 -112l-827 -361zM888 -867l-165 167l163 171l170 -170zM1055 -311l-167 -165l-171 163l170 170z" />
    <glyph glyph-name="uni06B4.init" unicode="&#x6b4;" horiz-adv-x="1180" 
d="M-17 -15v249h585q16 0 44 1.5t55 8t46.5 19t19.5 34.5q0 43 -32.5 104t-83.5 130t-114.5 139.5t-126 133t-117.5 110.5t-88 72l20 226l870 398l91 -218l-732 -323q38 -37 85.5 -84t97.5 -99.5t99.5 -109t93 -113t77.5 -110.5t53 -102q17 -42 24 -81t7 -71q0 -40 -7.5 -70
t-16.5 -51q-12 -27 -37 -61t-69.5 -63t-112 -49t-163.5 -20h-568zM196 1456l762 331l52 -112l-827 -361zM438 1778l-43 -159l-159 47l45 157zM693 1921l-44 -156l-160 41l46 160zM469 2016l-43 -147l-146 42l43 148z" />
    <glyph glyph-name="uni06B4.medi" unicode="&#x6b4;" horiz-adv-x="1250" 
d="M1262 -15h-30q-88 0 -153 16.5t-117 46t-95.5 71t-88.5 92.5q-24 -63 -76.5 -107t-120 -71t-144.5 -38.5t-152 -9.5h-312v249h326q66 0 122 7.5t97 25t65 46.5t27 71q0 43 -36.5 109t-95 147t-132 171.5t-148.5 183.5l42 203l868 421l102 -228l-759 -351
q94 -126 187.5 -250.5t187.5 -250.5q55 -73 101 -129.5t92.5 -95.5t97.5 -59.5t115 -20.5h30v-249zM243 1465l762 331l52 -112l-827 -361zM499 1783l-43 -159l-159 47l45 157zM754 1926l-44 -156l-160 41l46 160zM530 2021l-43 -147l-146 42l43 148z" />
    <glyph glyph-name="uni06B4.fina" unicode="&#x6b4;" horiz-adv-x="2193" 
d="M1057 228q109 0 190.5 6.5t138.5 18.5t90 29.5t47 40.5v-1q5 8 7 21t2 25q0 19 -7.5 43t-20 50.5t-29.5 54t-36 54.5q-76 105 -133 180t-95 124q-45 57 -77 96l53 215l892 420l102 -228l-787 -361l307 -416q55 -75 98.5 -131.5t80.5 -97t70.5 -67t69 -42t75 -22
t88.5 -6.5h19v-249h-19q-86 0 -153 15.5t-121.5 43.5t-100.5 68t-90 90q-41 -82 -108 -127t-152.5 -66t-187.5 -25t-214 -4l-594 5q-74 0 -140 25t-117 73q-20 19 -41.5 46t-38.5 64t-28 83.5t-11 104.5q0 50 10 108.5t22.5 110.5t23.5 90t14 47l119 -38l118 -37
q-9 -27 -19 -64.5t-19 -77t-15 -76.5t-6 -64q0 -48 13.5 -77.5t33 -45t42.5 -20.5t41 -5l592 -4h1v0zM1203 1479l762 331l52 -112l-827 -361zM1427 1807l-43 -159l-159 47l45 157zM1682 1950l-44 -156l-160 41l46 160zM1458 2045l-43 -147l-146 42l43 148z" />
    <glyph glyph-name="uni06B5.init" unicode="&#x6b5;" horiz-adv-x="647" 
d="M-33 234q100 0 156.5 12t79.5 35q16 14 23.5 43.5t7.5 79.5v1023h248v-1023q0 -36 -3.5 -75t-14.5 -79t-32 -78.5t-56 -72.5q-31 -29 -70 -50.5t-88.5 -35.5t-111.5 -21t-139 -7v249zM647 2022l-231 -413h-131l-234 413h171l126 -253l130 253h169z" />
    <glyph glyph-name="uni06B5.medi" unicode="&#x6b5;" horiz-adv-x="660" 
d="M-18 234q96 0 149 16.5t78.5 41.5t31 55t5.5 57v1023h248v-1023q0 -66 39.5 -114t111.5 -56h24v-249h-25q-50 1 -87.5 7t-68.5 19.5t-59.5 35.5t-59.5 54q-26 -32 -61.5 -54.5t-83 -36t-107.5 -19.5t-135 -6v249zM661 2013l-231 -413h-131l-234 413h171l126 -253l130 253
h169z" />
    <glyph glyph-name="uni06B5.fina" unicode="&#x6b5;" horiz-adv-x="1417" 
d="M595 -568q-71 0 -136 16t-122 47t-105 74.5t-84 99.5q-15 24 -30.5 56.5t-27.5 73.5t-20 91t-8 109q0 49 5 100.5t18.5 109.5t38 125.5t64.5 150.5l225 -107q-30 -62 -50 -113.5t-32 -97t-17 -86.5t-5 -83q0 -57 12.5 -106.5t37.5 -89.5l-1 1q38 -54 101.5 -88t135.5 -34
h46q105 0 171.5 22t104 62t51 97t13.5 127v1438h246v-1058q0 -31 14.5 -56t37.5 -42.5t52.5 -27t58.5 -9.5h53v-249h-53q-35 0 -58.5 2.5t-41.5 8.5t-32.5 15.5t-30.5 23.5v-46q0 -555 -586 -557h-46zM1407 2013l-231 -413h-131l-234 413h171l126 -253l130 253h169z" />
    <glyph glyph-name="uni06B6.init" unicode="&#x6b6;" horiz-adv-x="599" 
d="M-33 234q100 0 156.5 12t79.5 35q16 14 23.5 43.5t7.5 79.5v1023h248v-1023q0 -36 -3.5 -75t-14.5 -79t-32 -78.5t-56 -72.5q-31 -29 -70 -50.5t-88.5 -35.5t-111.5 -21t-139 -7v249zM165 1808l180 182l184 -184l-182 -182z" />
    <glyph glyph-name="uni06B6.medi" unicode="&#x6b6;" horiz-adv-x="655" 
d="M-18 234q96 0 149 16.5t78.5 41.5t31 55t5.5 57v1023h248v-1023q0 -66 39.5 -114t111.5 -56h24v-249h-25q-50 1 -87.5 7t-68.5 19.5t-59.5 35.5t-59.5 54q-26 -32 -61.5 -54.5t-83 -36t-107.5 -19.5t-135 -6v249zM171 1808l180 182l184 -184l-182 -182z" />
    <glyph glyph-name="uni06B6.fina" unicode="&#x6b6;" horiz-adv-x="1424" 
d="M595 -568q-71 0 -136 16t-122 47t-105 74.5t-84 99.5q-15 24 -30.5 56.5t-27.5 73.5t-20 91t-8 109q0 49 5 100.5t18.5 109.5t38 125.5t64.5 150.5l225 -107q-30 -62 -50 -113.5t-32 -97t-17 -86.5t-5 -83q0 -57 12.5 -106.5t37.5 -89.5l-1 1q38 -54 101.5 -88t135.5 -34
h46q105 0 171.5 22t104 62t51 97t13.5 127v1438h246v-1058q0 -31 14.5 -56t37.5 -42.5t52.5 -27t58.5 -9.5h53v-249h-53q-35 0 -58.5 2.5t-41.5 8.5t-32.5 15.5t-30.5 23.5v-46q0 -555 -586 -557h-46zM929 1808l180 182l184 -184l-182 -182z" />
    <glyph glyph-name="uni06B7.init" unicode="&#x6b7;" horiz-adv-x="608" 
d="M-33 234q100 0 156.5 12t79.5 35q16 14 23.5 43.5t7.5 79.5v1023h248v-1023q0 -36 -3.5 -75t-14.5 -79t-32 -78.5t-56 -72.5q-31 -29 -70 -50.5t-88.5 -35.5t-111.5 -21t-139 -7v249zM321 1736l-117 -117l-116 116l116 117zM608 1739l-113 -115l-119 114l116 116z
M460 1929l-110 -110l-105 109l107 108z" />
    <glyph glyph-name="uni06B7.medi" unicode="&#x6b7;" horiz-adv-x="660" 
d="M-18 234q96 0 149 16.5t78.5 41.5t31 55t5.5 57v1023h248v-1023q0 -66 39.5 -114t111.5 -56h24v-249h-25q-50 1 -87.5 7t-68.5 19.5t-59.5 35.5t-59.5 54q-26 -32 -61.5 -54.5t-83 -36t-107.5 -19.5t-135 -6v249zM333 1736l-117 -117l-116 116l116 117zM620 1739
l-113 -115l-119 114l116 116zM472 1929l-110 -110l-105 109l107 108z" />
    <glyph glyph-name="uni06B7.fina" unicode="&#x6b7;" horiz-adv-x="1424" 
d="M595 -568q-71 0 -136 16t-122 47t-105 74.5t-84 99.5q-15 24 -30.5 56.5t-27.5 73.5t-20 91t-8 109q0 49 5 100.5t18.5 109.5t38 125.5t64.5 150.5l225 -107q-30 -62 -50 -113.5t-32 -97t-17 -86.5t-5 -83q0 -57 12.5 -106.5t37.5 -89.5l-1 1q38 -54 101.5 -88t135.5 -34
h46q105 0 171.5 22t104 62t51 97t13.5 127v1438h246v-1058q0 -31 14.5 -56t37.5 -42.5t52.5 -27t58.5 -9.5h53v-249h-53q-35 0 -58.5 2.5t-41.5 8.5t-32.5 15.5t-30.5 23.5v-46q0 -555 -586 -557h-46zM1069 1736l-117 -117l-116 116l116 117zM1356 1739l-113 -115l-119 114
l116 116zM1208 1929l-110 -110l-105 109l107 108z" />
    <glyph glyph-name="uni06B8.init" unicode="&#x6b8;" horiz-adv-x="647" 
d="M-33 234q100 0 156.5 12t79.5 35q16 14 23.5 43.5t7.5 79.5v1023h248v-1023q0 -36 -3.5 -75t-14.5 -79t-32 -78.5t-56 -72.5q-31 -29 -70 -50.5t-88.5 -35.5t-111.5 -21t-139 -7v249zM-7.76074 -336.73l147.225 147.027l147.226 -148.758l-147.226 -147.027z
M353.373 -338.461l148.957 147.028l147.225 -148.758l-147.225 -147.027zM181.033 -580.624l136.833 136.649l138.564 -138.379l-136.833 -136.649z" />
    <glyph glyph-name="uni06B8.medi" unicode="&#x6b8;" horiz-adv-x="660" 
d="M-18 234q96 0 149 16.5t78.5 41.5t31 55t5.5 57v1023h248v-1023q0 -66 39.5 -114t111.5 -56h24v-249h-25q-50 1 -87.5 7t-68.5 19.5t-59.5 35.5t-59.5 54q-26 -32 -61.5 -54.5t-83 -36t-107.5 -19.5t-135 -6v249zM-7.76074 -336.73l147.225 147.027l147.226 -148.758
l-147.226 -147.027zM353.373 -338.461l148.957 147.028l147.225 -148.758l-147.225 -147.027zM181.033 -580.624l136.833 136.649l138.564 -138.379l-136.833 -136.649z" />
    <glyph glyph-name="uni06B8.fina" unicode="&#x6b8;" horiz-adv-x="1424" 
d="M595 -568q-71 0 -136 16t-122 47t-105 74.5t-84 99.5q-15 24 -30.5 56.5t-27.5 73.5t-20 91t-8 109q0 49 5 100.5t18.5 109.5t38 125.5t64.5 150.5l225 -107q-30 -62 -50 -113.5t-32 -97t-17 -86.5t-5 -83q0 -57 12.5 -106.5t37.5 -89.5l-1 1q38 -54 101.5 -88t135.5 -34
h46q105 0 171.5 22t104 62t51 97t13.5 127v1438h246v-1058q0 -31 14.5 -56t37.5 -42.5t52.5 -27t58.5 -9.5h53v-249h-53q-35 0 -58.5 2.5t-41.5 8.5t-32.5 15.5t-30.5 23.5v-46q0 -555 -586 -557h-46zM721 -786l117 117l116 -116l-116 -117zM434 -789l113 115l119 -114
l-116 -116zM582 -979l110 110l105 -109l-107 -108z" />
    <glyph glyph-name="uni06B9.init" unicode="&#x6b9;" horiz-adv-x="684" 
d="M552 825q2 -7 8.5 -33t14.5 -63.5t16.5 -83.5t16 -92.5t12 -90.5t4.5 -77q0 -103 -34 -178.5t-89 -124.5t-123.5 -73t-137.5 -24h-266v249h273q12 0 34.5 3.5t45 18.5t39.5 45.5t17 83.5q0 22 -3.5 53.5t-9.5 67.5t-13.5 73.5t-14.5 71t-14 61t-11 42.5zM172 -314
l180 182l184 -184l-182 -182zM178 1227l180 182l184 -184l-182 -182z" />
    <glyph glyph-name="uni06B9.medi" unicode="&#x6b9;" horiz-adv-x="788" 
d="M801 234v-249h-63q-85 0 -155 23t-118 68q-56 -47 -132.5 -69t-174.5 -22h-177v249h177q61 0 97.5 11.5t55 28.5t24 38t5.5 41v324h248v-317q0 -45 20 -70.5t45.5 -38t50.5 -15t34 -2.5h63zM275 -314l180 182l184 -184l-182 -182zM281 1118l180 182l184 -184l-182 -182z
" />
    <glyph glyph-name="uni06B9.fina" unicode="&#x6b9;" horiz-adv-x="1702" 
d="M700 -553q-80 0 -154 19t-139.5 54t-121 86t-96.5 115q-48 78 -74 173.5t-26 199.5q0 66 8 128t25.5 127t46 136t69.5 156l225 -107q-36 -73 -60 -131t-39 -109.5t-21.5 -99t-6.5 -99.5q0 -68 17 -130.5t47 -112.5q48 -71 126.5 -113.5t173.5 -42.5h203q106 0 172.5 22
t103.5 62.5t50.5 97.5t13.5 126v673h249v-312q2 -66 43.5 -98.5t107.5 -32.5h80v-249h-80q-38 0 -77.5 7t-73.5 20v-8q0 -279 -147.5 -418t-441.5 -139h-203zM672 843l180 182l184 -184l-182 -182zM666 -915l180 182l184 -184l-182 -182z" />
    <glyph glyph-name="uni06BA" unicode="&#x6ba;" horiz-adv-x="1600" arabic-form="isolated" 
d="M700 -553q-80 0 -154 19t-139.5 54t-121 86t-96.5 115q-48 78 -74 173.5t-26 199.5q0 66 8 128t25.5 127t46 136t69.5 156l225 -107q-36 -73 -60 -131t-39 -109.5t-21.5 -99t-6.5 -99.5q0 -68 17 -130.5t47 -112.5q48 -71 126.5 -113.5t173.5 -42.5h203q106 0 172.5 22
t103.5 62.5t50.5 97.5t13.5 126v673h249v-673q0 -279 -147.5 -418t-441.5 -139h-203z" />
    <glyph glyph-name="uni06BB.fina" unicode="&#x6bb;" horiz-adv-x="1700" arabic-form="final" 
d="M700 -553q-80 0 -154 19t-139.5 54t-121 86t-96.5 115q-48 78 -74 173.5t-26 199.5q0 66 8 128t25.5 127t46 136t69.5 156l225 -107q-36 -73 -60 -131t-39 -109.5t-21.5 -99t-6.5 -99.5q0 -68 17 -130.5t47 -112.5q48 -71 126.5 -113.5t173.5 -42.5h203q106 0 172.5 22
t103.5 62.5t50.5 97.5t13.5 126v673h249v-312q2 -66 43.5 -98.5t107.5 -32.5h80v-249h-80q-38 0 -77.5 7t-73.5 20v-8q0 -279 -147.5 -418t-441.5 -139h-203zM574 752v109h104q3 4 5.5 8.5t7 11.5t12 17.5t18.5 26.5v488h107v-343q36 38 79.5 63t95.5 25q34 0 68 -12
t61 -37.5t43.5 -66t16.5 -96.5q0 -54 -18 -91t-46 -60t-62.5 -33t-67.5 -10h-424zM1003 1049q-26 0 -52 -16.5t-51 -43.5t-48 -60.5t-44 -67.5h190q36 0 62 20t26 65q0 53 -22.5 78t-60.5 25z" />
    <glyph glyph-name="uni06BC.init" unicode="&#x6bc;" horiz-adv-x="679" 
d="M552 825q2 -7 8.5 -33t14.5 -63.5t16.5 -83.5t16 -92.5t12 -90.5t4.5 -77q0 -103 -34 -178.5t-89 -124.5t-123.5 -73t-137.5 -24h-266v249h273q12 0 34.5 3.5t45 18.5t39.5 45.5t17 83.5q0 22 -3.5 53.5t-9.5 67.5t-13.5 73.5t-14.5 71t-14 61t-11 42.5zM294 -362
q-54 0 -97 16t-74 45t-47.5 71t-16.5 95t16.5 96t47.5 73t74.5 46t96.5 16q51 0 95.5 -16t76.5 -46t50.5 -72.5t18.5 -94.5t-18 -95t-50 -73t-76.5 -46t-96.5 -15zM294 -235q22 0 41.5 6.5t34.5 19.5t23.5 31.5t8.5 42.5t-8.5 43.5t-23.5 33t-34.5 21t-41.5 7.5
q-45 0 -77.5 -28t-32.5 -77q0 -51 29.5 -75.5t80.5 -24.5zM178 1227l180 182l184 -184l-182 -182z" />
    <glyph glyph-name="uni06BC.medi" unicode="&#x6bc;" horiz-adv-x="788" 
d="M801 234v-249h-63q-85 0 -155 23t-118 68q-56 -47 -132.5 -69t-174.5 -22h-177v249h177q61 0 97.5 11.5t55 28.5t24 38t5.5 41v324h248v-317q0 -45 20 -70.5t45.5 -38t50.5 -15t34 -2.5h63zM466 -298q-54 0 -97 16t-74 45t-47.5 71t-16.5 95t16.5 96t47.5 73t74.5 46
t96.5 16q51 0 95.5 -16t76.5 -46t50.5 -72.5t18.5 -94.5t-18 -95t-50 -73t-76.5 -46t-96.5 -15zM466 -171q22 0 41.5 6.5t34.5 19.5t23.5 31.5t8.5 42.5t-8.5 43.5t-23.5 33t-34.5 21t-41.5 7.5q-45 0 -77.5 -28t-32.5 -77q0 -51 29.5 -75.5t80.5 -24.5zM281 1118l180 182
l184 -184l-182 -182z" />
    <glyph glyph-name="uni06BC.fina" unicode="&#x6bc;" horiz-adv-x="1704" 
d="M700 -553q-80 0 -154 19t-139.5 54t-121 86t-96.5 115q-48 78 -74 173.5t-26 199.5q0 66 8 128t25.5 127t46 136t69.5 156l225 -107q-36 -73 -60 -131t-39 -109.5t-21.5 -99t-6.5 -99.5q0 -68 17 -130.5t47 -112.5q48 -71 126.5 -113.5t173.5 -42.5h203q106 0 172.5 22
t103.5 62.5t50.5 97.5t13.5 126v673h249v-312q2 -66 43.5 -98.5t107.5 -32.5h80v-249h-80q-38 0 -77.5 7t-73.5 20v-8q0 -279 -147.5 -418t-441.5 -139h-203zM861 -899q-54 0 -97 16t-74 45t-47.5 71t-16.5 95t16.5 96t47.5 73t74.5 46t96.5 16q51 0 95.5 -16t76.5 -46
t50.5 -72.5t18.5 -94.5t-18 -95t-50 -73t-76.5 -46t-96.5 -15zM861 -772q22 0 41.5 6.5t34.5 19.5t23.5 31.5t8.5 42.5t-8.5 43.5t-23.5 33t-34.5 21t-41.5 7.5q-45 0 -77.5 -28t-32.5 -77q0 -51 29.5 -75.5t80.5 -24.5zM681 852l180 182l184 -184l-182 -182z" />
    <glyph glyph-name="uni06BD.fina" unicode="&#x6bd;" horiz-adv-x="1708" 
d="M700 -553q-80 0 -154 19t-139.5 54t-121 86t-96.5 115q-48 78 -74 173.5t-26 199.5q0 66 8 128t25.5 127t46 136t69.5 156l225 -107q-36 -73 -60 -131t-39 -109.5t-21.5 -99t-6.5 -99.5q0 -68 17 -130.5t47 -112.5q48 -71 126.5 -113.5t173.5 -42.5h203q106 0 172.5 22
t103.5 62.5t50.5 97.5t13.5 126v673h249v-312q2 -66 43.5 -98.5t107.5 -32.5h80v-249h-80q-38 0 -77.5 7t-73.5 20v-8q0 -279 -147.5 -418t-441.5 -139h-203zM795 908l-170 -172l-170 170l170 172zM1224 912l-168 -170l-175 168l172 172zM1003 1194l-160 -160l-158 158
l160 160z" />
    <glyph glyph-name="uni06BE" unicode="&#x6be;" horiz-adv-x="1651" arabic-form="isolated" 
d="M1081 1063q65 -86 132 -174q28 -38 59.5 -79t64 -83.5t63.5 -84.5t60 -80q62 -83 80.5 -181.5t-14.5 -195.5q-20 -60 -58.5 -110t-93.5 -86t-126 -56t-156 -20q-72 0 -149 14.5t-157 54.5q-18 8 -35 16q-15 7 -31 14.5t-27 13.5q-48 -14 -105 -28t-131 -21t-168.5 -4
t-216.5 23l54 243q61 -12 101.5 -17t70 -5.5t52 1.5t46.5 5q-26 30 -46.5 58.5t-35 60t-22 67t-7.5 78.5q0 82 31.5 151t87 118t130 76.5t160.5 27.5q97 0 172.5 -38.5t127 -97t78 -126.5t26.5 -127q0 -48 -9.5 -88t-26.5 -75.5t-42 -67.5t-56 -63q31 -10 64 -18.5t64 -8.5
t65 4.5t64.5 18t54 37.5t35.5 63q11 37 -8.5 88.5t-62 116.5t-105.5 143.5t-138 171.5l-104 129zM521 487q0 -37 11.5 -65.5t35 -52.5t58 -46.5t80.5 -47.5q31 15 60 34t50.5 42.5t34.5 52.5t13 64q0 42 -18 74t-44 53t-55.5 31t-52.5 10q-34 0 -65.5 -12t-55.5 -32.5
t-38 -47.5t-14 -57z" />
    <glyph glyph-name="uni06BF.init" unicode="&#x6bf;" horiz-adv-x="1424" 
d="M1356 383q-6 -4 -52 -35t-122 -75.5t-178 -94.5t-220 -93t-247 -71.5t-259 -28.5h-303v249h303q98 0 209 20t219 51.5t205.5 70.5t169.5 77q-46 14 -99.5 30.5t-109.5 33t-111 32t-103 27.5t-86 19t-60 7q-23 0 -40.5 -5.5t-31.5 -18t-26 -32.5t-25 -48l-229 69
q19 60 46.5 112.5t67 91.5t91.5 61.5t119 22.5q26 0 74 -11t109 -29t130.5 -41t139.5 -48t136 -49t119 -43.5t89 -32.5t46 -16zM290 1314l180 182l184 -184l-182 -182zM256 -335l170 170l170 -172l-170 -170zM673 -337l172 170l170 -172l-170 -170zM474 -617l158 158
l160 -160l-158 -158z" />
    <glyph glyph-name="uni06BF.medi" unicode="&#x6bf;" horiz-adv-x="1536" 
d="M1341 383q-5 -3 -32 -21.5t-73 -47.5q10 -30 31 -46.5t43 -24t41.5 -8.5t27.5 -1h183v-249h-183q-119 1 -213.5 52.5t-147.5 154.5q-77 -38 -166 -75.5t-186 -66.5t-199 -47t-204 -18h-298v249h298q98 0 209 20t219 51.5t205.5 70.5t169.5 77q-45 14 -99 30.5t-110 33
t-111 32t-103 27.5t-86 19t-60 7q-23 0 -40.5 -5.5t-31.5 -18t-26 -32.5t-25 -48l-229 69q19 60 46.5 112.5t67 91.5t91.5 61.5t119 22.5q26 0 74 -11t109 -29t130.5 -41t139.5 -48t136 -49t119 -43.5t89 -32.5t46 -16zM304 1240l180 182l184 -184l-182 -182zM398 -326
l170 170l170 -172l-170 -170zM815 -328l172 170l170 -172l-170 -170zM616 -608l158 158l160 -160l-158 -158z" />
    <glyph glyph-name="uni06BF.fina" unicode="&#x6bf;" horiz-adv-x="1576" 
d="M1006 383l-242 -99q-129 -49 -214.5 -84t-136 -69.5t-71 -73.5t-20.5 -95q0 -2 1 -19.5t2 -38.5t2 -39t1 -19q12 -127 54 -205t106 -120.5t148 -56.5t180 -14h461v-249h-461q-158 0 -286.5 30.5t-222.5 105t-150.5 198.5t-71.5 310q0 1 -1 18t-2 38t-2 38t-1 18
q0 123 48.5 209.5t131 149t191 107t229.5 82.5l401 132q-116 40 -235.5 78.5t-234.5 75.5q-21 7 -40.5 12.5t-37.5 5.5q-23 0 -41.5 -4.5t-33.5 -16t-27.5 -32.5t-24.5 -54l-229 69q19 60 47.5 112.5t68.5 91.5t92.5 61.5t119.5 22.5q55 0 120 -20q80 -26 146.5 -51.5
t132.5 -52.5q38 -15 79 -34t93 -41.5t117.5 -49.5t152.5 -58l9 -225l-103 -42zM1189 470q0 -35 10 -76.5t31 -77t52.5 -59t74.5 -23.5h245v-249h-245q-76 0 -135.5 18t-105.5 48t-78.5 69t-53.5 82t-30.5 85.5t-9.5 80.5zM463.8 -91.4521l143.344 143.334l143.345 -145.02
l-143.345 -143.334zM815.414 -93.1377l145.031 143.333l143.344 -145.02l-143.344 -143.334zM647.617 -329.217l133.226 133.216l134.912 -134.902l-133.226 -133.216zM327 1333l180 182l184 -184l-182 -182z" />
    <glyph glyph-name="uni06C0" unicode="&#x6c0;" horiz-adv-x="1023" arabic-form="isolated" 
d="M519 -15q-96 0 -176.5 27.5t-138.5 78t-90.5 120.5t-32.5 155q0 84 21 150.5t56.5 124t83 110t100.5 108.5l-63 71l184 167q11 -13 26 -29t30.5 -33t30.5 -33t27 -29q72 -77 140.5 -149.5t122 -145t86 -146t31.5 -152.5q-1 -88 -35 -157.5t-99 -128.5q-60 -51 -136.5 -80
t-167.5 -29zM507 706q-40 -45 -75.5 -85t-61 -80t-39 -82.5t-10.5 -92.5q3 -37 22 -63.5t47 -44t62 -25.5t67 -8q38 0 73 11t61.5 31t42.5 49t16 64q0 43 -17 84t-45.5 81t-65.5 80t-77 81zM180 1168v149l124 40q-30 31 -49.5 70t-19.5 83q0 34 12 67t33 61t49.5 49t60.5 30
q17 5 34.5 7.5t34.5 2.5q36 0 63.5 -8.5t51.5 -17.5l17 -8l-30 -124q-14 3 -31 8t-34 8t-33.5 3.5t-29.5 -3.5q-14 -5 -27.5 -14t-22.5 -20.5t-12.5 -26.5t2.5 -32q8 -26 37.5 -44t82.5 -18q10 0 21.5 1t30.5 5.5t48.5 13t75.5 23.5l8 -141z" />
    <glyph glyph-name="uni06C1" unicode="&#x6c1;" horiz-adv-x="1040" arabic-form="isolated" 
d="M519 -15q-96 0 -176.5 27.5t-138.5 78t-90.5 120.5t-32.5 155q0 84 21 150.5t56.5 124t83 110t100.5 108.5l-63 71l184 167q11 -13 26 -29t30.5 -33t30.5 -33t27 -29q72 -77 140.5 -149.5t122 -145t86 -146t31.5 -152.5q-1 -88 -35 -157.5t-99 -128.5q-60 -51 -136.5 -80
t-167.5 -29zM507 706q-40 -45 -75.5 -85t-61 -80t-39 -82.5t-10.5 -92.5q3 -37 22 -63.5t47 -44t62 -25.5t67 -8q38 0 73 11t61.5 31t42.5 49t16 64q0 43 -17 84t-45.5 81t-65.5 80t-77 81z" />
    <glyph glyph-name="uni06C2.fina" unicode="&#x6c2;" horiz-adv-x="1296" 
d="M1318 -15h-74q-76 0 -157 21t-154.5 67.5t-131.5 120.5t-88 181l-127 458l-89 -19q-48 -11 -78.5 -30.5t-46.5 -47.5q-14 -26 -21 -59.5t-7 -73.5q0 -67 33 -186.5t83 -288.5l-239 -67q-26 93 -49 171.5t-40 145t-26.5 122.5t-9.5 103q0 69 14.5 134t46.5 122
q44 75 113 124t167 73q20 5 58 12.5l76 15t67.5 13t32.5 5.5l129 -84q15 -66 30 -125.5t33 -125t40 -144.5t52 -184q20 -64 55.5 -104t76.5 -62.5t82.5 -30.5t74.5 -8h74v-249zM131 1126v149l124 40q-30 31 -49.5 70t-19.5 83q0 34 12 67t33 61t49.5 49t60.5 30
q17 5 34.5 7.5t34.5 2.5q36 0 63.5 -8.5t51.5 -17.5l17 -8l-30 -124q-14 3 -31 8t-34 8t-33.5 3.5t-29.5 -3.5q-14 -5 -27.5 -14t-22.5 -20.5t-12.5 -26.5t2.5 -32q8 -26 37.5 -44t82.5 -18q10 0 21.5 1t30.5 5.5t48.5 13t75.5 23.5l8 -141z" />
    <glyph glyph-name="uni06C3.fina" unicode="&#x6c3;" horiz-adv-x="1291" 
d="M1318 -15h-74q-76 0 -157 21t-154.5 67.5t-131.5 120.5t-88 181l-127 458l-89 -19q-48 -11 -78.5 -30.5t-46.5 -47.5q-14 -26 -21 -59.5t-7 -73.5q0 -67 33 -186.5t83 -288.5l-239 -67q-26 93 -49 171.5t-40 145t-26.5 122.5t-9.5 103q0 69 14.5 134t46.5 122
q44 75 113 124t167 73q20 5 58 12.5l76 15t67.5 13t32.5 5.5l129 -84q15 -66 30 -125.5t33 -125t40 -144.5t52 -184q20 -64 55.5 -104t76.5 -62.5t82.5 -30.5t74.5 -8h74v-249zM680 1209l-168 170l166 172l172 -172zM261 1208l-168 170l165 172l172 -172z" />
    <glyph glyph-name="uni06C4.fina" unicode="&#x6c4;" horiz-adv-x="1070" 
d="M178 -303q80 0 142.5 5.5t111 16t85 27t63.5 39.5q42 34 63.5 79t25.5 121h-154q-50 0 -102 8t-100 27.5t-90.5 50.5t-74 76.5t-50 107.5t-18.5 142q0 69 12 122.5t30.5 94.5t41.5 71.5t44 53.5q60 60 136 92.5t164 32.5q109 0 186.5 -37.5t127 -103.5t72.5 -156.5
t23 -196.5v-136h170v-249h-171q-4 -137 -48.5 -231t-132.5 -164q-46 -36 -100 -62.5t-121 -44.5t-149.5 -26.5t-186.5 -8.5v249zM508 615q-85 0 -135 -53t-50 -165q0 -44 17.5 -75t45 -50.5t61.5 -28.5t68 -9h154v136q0 57 -9 97.5t-23.5 67.5t-33 43t-36 24t-33.5 10.5
t-26 2.5zM365.377 -421.771q-43.832 0 -78.7363 12.9932q-34.9033 12.9932 -60.0654 36.5439q-25.1631 23.5498 -38.5566 57.6562q-13.3926 34.1074 -13.3926 77.1475t13.3926 77.959q13.3936 34.9189 38.5566 59.2812q25.1621 24.3623 60.4717 37.3555t78.3301 12.9932
q41.3965 0 77.5176 -12.9932t62.0957 -37.3555t40.9912 -58.875q15.0166 -34.5137 15.0166 -76.7412t-14.6113 -77.1465q-14.6104 -34.9199 -40.585 -59.2812q-25.9746 -24.3623 -62.0957 -37.3555t-78.3291 -12.1816zM365.377 -318.638q17.8574 0 33.6855 5.27832
t28.0039 15.835q12.1758 10.5576 19.0752 25.5801q6.89941 15.0234 6.89941 34.5137q0 19.4893 -6.89941 35.3252q-6.89941 15.835 -19.0752 26.7979q-12.1758 10.9639 -28.0039 17.0537q-15.8281 6.09082 -33.6855 6.09082q-36.5273 0 -62.9072 -22.7383
q-26.3809 -22.7383 -26.3809 -62.5293q0 -41.416 23.9453 -61.3115t65.3428 -19.8955z" />
    <glyph glyph-name="uni06C5.fina" unicode="&#x6c5;" horiz-adv-x="1072" arabic-form="final" 
d="M208 -72q24 0 48.5 2.5t53.5 2.5q37 0 83.5 -5.5t94.5 -22t93 -46t80 -78.5l-89 -106q-37 34 -82 61q-38 23 -91.5 42t-116.5 19q-11 0 -26 -1.5l-35 -3.5zM178 -303q80 0 142.5 5.5t111 16t85 27t63.5 39.5q42 34 63.5 79t25.5 121h-154q-50 0 -102 8t-100 27.5
t-90.5 50.5t-74 76.5t-50 107.5t-18.5 142q0 69 12 122.5t30.5 94.5t41.5 71.5t44 53.5q60 60 136 92.5t164 32.5q109 0 186.5 -37.5t127 -103.5t72.5 -156.5t23 -196.5v-136h170v-249h-171q-4 -137 -48.5 -231t-132.5 -164q-46 -36 -100 -62.5t-121 -44.5t-149.5 -26.5
t-186.5 -8.5v249zM508 615q-85 0 -135 -53t-50 -165q0 -44 17.5 -75t45 -50.5t61.5 -28.5t68 -9h154v136q0 57 -9 97.5t-23.5 67.5t-33 43t-36 24t-33.5 10.5t-26 2.5z" />
    <glyph glyph-name="uni06C6.fina" unicode="&#x6c6;" horiz-adv-x="1072" arabic-form="final" 
d="M178 -303q80 0 142.5 5.5t111 16t85 27t63.5 39.5q42 34 63.5 79t25.5 121h-154q-50 0 -102 8t-100 27.5t-90.5 50.5t-74 76.5t-50 107.5t-18.5 142q0 69 12 122.5t30.5 94.5t41.5 71.5t44 53.5q60 60 136 92.5t164 32.5q109 0 186.5 -37.5t127 -103.5t72.5 -156.5
t23 -196.5v-136h170v-249h-171q-4 -137 -48.5 -231t-132.5 -164q-46 -36 -100 -62.5t-121 -44.5t-149.5 -26.5t-186.5 -8.5v249zM508 615q-85 0 -135 -53t-50 -165q0 -44 17.5 -75t45 -50.5t61.5 -28.5t68 -9h154v136q0 57 -9 97.5t-23.5 67.5t-33 43t-36 24t-33.5 10.5
t-26 2.5zM831 1473l-231 -413h-131l-234 413h171l126 -253l130 253h169z" />
    <glyph glyph-name="uni06C7.fina" unicode="&#x6c7;" horiz-adv-x="1068" arabic-form="final" 
d="M178 -303q80 0 142.5 5.5t111 16t85 27t63.5 39.5q42 34 63.5 79t25.5 121h-154q-50 0 -102 8t-100 27.5t-90.5 50.5t-74 76.5t-50 107.5t-18.5 142q0 69 12 122.5t30.5 94.5t41.5 71.5t44 53.5q60 60 136 92.5t164 32.5q109 0 186.5 -37.5t127 -103.5t72.5 -156.5
t23 -196.5v-136h170v-249h-171q-4 -137 -48.5 -231t-132.5 -164q-46 -36 -100 -62.5t-121 -44.5t-149.5 -26.5t-186.5 -8.5v249zM508 615q-85 0 -135 -53t-50 -165q0 -44 17.5 -75t45 -50.5t61.5 -28.5t68 -9h154v136q0 57 -9 97.5t-23.5 67.5t-33 43t-36 24t-33.5 10.5
t-26 2.5zM293 1119q33 10 70.5 22.5t75 27.5t72.5 32.5t63 38.5q-37 12 -67.5 32t-52.5 46t-34.5 55.5t-12.5 61.5q0 33 13 62q12 25 32 48t44.5 40t52.5 27t56 10q36 0 67 -17q57 -31 81 -78.5t24 -103.5q0 -54 -19.5 -110t-53.5 -104q-33 -47 -86.5 -82.5t-109.5 -60.5
t-106 -40.5t-76 -23.5zM607 1503q-23 0 -51.5 -11.5t-41.5 -35.5q-6 -11 3 -29.5t28.5 -37.5t46.5 -35t57 -20q6 15 10.5 38t4.5 47q0 31 -12.5 56t-45.5 28h1z" />
    <glyph glyph-name="uni06C8.fina" unicode="&#x6c8;" horiz-adv-x="1068" arabic-form="final" 
d="M178 -303q80 0 142.5 5.5t111 16t85 27t63.5 39.5q42 34 63.5 79t25.5 121h-154q-50 0 -102 8t-100 27.5t-90.5 50.5t-74 76.5t-50 107.5t-18.5 142q0 69 12 122.5t30.5 94.5t41.5 71.5t44 53.5q60 60 136 92.5t164 32.5q109 0 186.5 -37.5t127 -103.5t72.5 -156.5
t23 -196.5v-136h170v-249h-171q-4 -137 -48.5 -231t-132.5 -164q-46 -36 -100 -62.5t-121 -44.5t-149.5 -26.5t-186.5 -8.5v249zM508 615q-85 0 -135 -53t-50 -165q0 -44 17.5 -75t45 -50.5t61.5 -28.5t68 -9h154v136q0 57 -9 97.5t-23.5 67.5t-33 43t-36 24t-33.5 10.5
t-26 2.5zM464 1485h140v-408h-140v408z" />
    <glyph glyph-name="uni06C9.fina" unicode="&#x6c9;" horiz-adv-x="1072" arabic-form="final" 
d="M178 -303q80 0 142.5 5.5t111 16t85 27t63.5 39.5q42 34 63.5 79t25.5 121h-154q-50 0 -102 8t-100 27.5t-90.5 50.5t-74 76.5t-50 107.5t-18.5 142q0 69 12 122.5t30.5 94.5t41.5 71.5t44 53.5q60 60 136 92.5t164 32.5q109 0 186.5 -37.5t127 -103.5t72.5 -156.5
t23 -196.5v-136h170v-249h-171q-4 -137 -48.5 -231t-132.5 -164q-46 -36 -100 -62.5t-121 -44.5t-149.5 -26.5t-186.5 -8.5v249zM508 615q-85 0 -135 -53t-50 -165q0 -44 17.5 -75t45 -50.5t61.5 -28.5t68 -9h154v136q0 57 -9 97.5t-23.5 67.5t-33 43t-36 24t-33.5 10.5
t-26 2.5zM255 1061l231 415h90l233 -415h-150l-126 255l-131 -255h-147z" />
    <glyph glyph-name="uni06CA.fina" unicode="&#x6ca;" horiz-adv-x="1072" 
d="M178 -303q80 0 142.5 5.5t111 16t85 27t63.5 39.5q42 34 63.5 79t25.5 121h-154q-50 0 -102 8t-100 27.5t-90.5 50.5t-74 76.5t-50 107.5t-18.5 142q0 69 12 122.5t30.5 94.5t41.5 71.5t44 53.5q60 60 136 92.5t164 32.5q109 0 186.5 -37.5t127 -103.5t72.5 -156.5
t23 -196.5v-136h170v-249h-171q-4 -137 -48.5 -231t-132.5 -164q-46 -36 -100 -62.5t-121 -44.5t-149.5 -26.5t-186.5 -8.5v249zM508 615q-85 0 -135 -53t-50 -165q0 -44 17.5 -75t45 -50.5t61.5 -28.5t68 -9h154v136q0 57 -9 97.5t-23.5 67.5t-33 43t-36 24t-33.5 10.5
t-26 2.5zM734 1116l-168 170l166 172l172 -172zM315 1115l-168 170l165 172l172 -172z" />
    <glyph glyph-name="uni06CB.fina" unicode="&#x6cb;" horiz-adv-x="1072" arabic-form="final" 
d="M178 -303q80 0 142.5 5.5t111 16t85 27t63.5 39.5q42 34 63.5 79t25.5 121h-154q-50 0 -102 8t-100 27.5t-90.5 50.5t-74 76.5t-50 107.5t-18.5 142q0 69 12 122.5t30.5 94.5t41.5 71.5t44 53.5q60 60 136 92.5t164 32.5q109 0 186.5 -37.5t127 -103.5t72.5 -156.5
t23 -196.5v-136h170v-249h-171q-4 -137 -48.5 -231t-132.5 -164q-46 -36 -100 -62.5t-121 -44.5t-149.5 -26.5t-186.5 -8.5v249zM508 615q-85 0 -135 -53t-50 -165q0 -44 17.5 -75t45 -50.5t61.5 -28.5t68 -9h154v136q0 57 -9 97.5t-23.5 67.5t-33 43t-36 24t-33.5 10.5
t-26 2.5zM486 1207l-170 -172l-170 170l170 172zM915 1211l-168 -170l-175 168l172 172zM694 1493l-160 -160l-158 158l160 160z" />
    <glyph glyph-name="uni06CC" unicode="&#x6cc;" horiz-adv-x="1689" arabic-form="isolated" 
d="M940 -316q91 0 157.5 11.5t109.5 40t64.5 76.5t22.5 121q-14 4 -44.5 12t-72 19t-90 24t-98.5 26.5t-98.5 26t-89.5 22.5q-26 66 -38.5 128.5t-12.5 122.5q0 114 42 215.5t120 177t190.5 119.5t253.5 44q50 0 99.5 -8t112.5 -25l-63 -240q-47 14 -82 20.5t-72 6.5
q-75 0 -139.5 -21.5t-112 -62.5t-75 -100t-27.5 -134v-12.5t1 -12.5l351 -90q96 -24 139 -81.5t43 -142.5q0 -139 -32 -239.5t-102.5 -166t-183 -97t-273.5 -31.5h-211q-82 0 -157 19t-141 54.5t-121 86t-97 114.5q-99 160 -99 375q0 66 9 131t28.5 133.5t49.5 143.5t72 162
l222 -107q-35 -74 -59.5 -135.5t-41 -116t-24 -105t-7.5 -101.5q0 -145 64 -246q46 -76 125.5 -116.5t176.5 -40.5h211v0z" />
    <glyph glyph-name="uni06CD.fina" unicode="&#x6cd;" horiz-adv-x="2056" 
d="M728 544l-607 -198l-40 128l543 234zM1812 -15q23 -33 38 -72.5t15 -71.5q0 -93 -51 -168.5t-138 -128.5t-202.5 -82t-245.5 -29h-256q-82 0 -157 19t-141 54.5t-121 86t-97 114.5q-99 160 -99 375q0 66 7.5 131t25 133.5t46 143t70.5 161.5l222 -107q-35 -74 -58 -135
t-37.5 -115.5t-20.5 -105t-6 -101.5q0 -145 64 -246q46 -76 125.5 -116.5t176.5 -40.5h256q75 0 142 14t118 39t83 57.5t37 70.5q-29 31 -73.5 52.5t-101 36t-122 22t-136.5 10.5l7 248h907v-249h-277z" />
    <glyph glyph-name="uni06CE.init" unicode="&#x6ce;" horiz-adv-x="856" 
d="M728 825q2 -7 8.5 -33t14.5 -63.5t16.5 -83.5t16 -92.5t12 -90.5t4.5 -77q0 -103 -34 -178.5t-89 -124.5t-123.5 -73t-137.5 -24h-431v249h438q12 0 34.5 3.5t45 18.5t39.5 45.5t17 83.5q0 22 -3.5 53.5t-9.5 67.5t-13.5 73.5t-14.5 71t-14 61t-11 42.5zM609 -512
l-168 170l166 172l172 -172zM190 -513l-168 170l165 172l172 -172zM668 1437l-231 -413h-131l-234 413h171l126 -253l130 253h169z" />
    <glyph glyph-name="uni06CE.medi" unicode="&#x6ce;" horiz-adv-x="1048" 
d="M1061 234v-249h-148q-85 0 -155 23t-118 68q-56 -47 -132.5 -69t-174.5 -22h-346v249h346q61 0 97.5 11.5t55 28.5t24 38t5.5 41v324h248v-317q0 -45 20 -70.5t45.5 -38t50.5 -15t34 -2.5h148zM848 -504l-168 170l166 172l172 -172zM429 -505l-168 170l165 172l172 -172z
M941 1269l-231 -413h-131l-234 413h171l126 -253l130 253h169z" />
    <glyph glyph-name="uni06CE.fina" unicode="&#x6ce;" horiz-adv-x="1792" 
d="M1533 -15q23 -33 38 -72.5t15 -71.5q0 -93 -51 -168.5t-138 -128.5t-202.5 -82t-245.5 -29h-256q-82 0 -157 19t-141 54.5t-121 86t-97 114.5q-99 160 -99 375q0 66 7.5 131t25 133.5t46 143t70.5 161.5l222 -107q-35 -74 -58 -135t-37.5 -115.5t-20.5 -105t-6 -101.5
q0 -145 64 -246q46 -76 125.5 -116.5t176.5 -40.5h256q75 0 142 14t118 39t83 57.5t37 70.5q-29 31 -73.5 52.5t-101 36t-122 22t-136.5 10.5l7 248h907v-249h-277zM1241 822l-231 -413h-131l-234 413h171l126 -253l130 253h169z" />
    <glyph glyph-name="uni06CF.fina" unicode="&#x6cf;" horiz-adv-x="1068" 
d="M178 -303q80 0 142.5 5.5t111 16t85 27t63.5 39.5q42 34 63.5 79t25.5 121h-154q-50 0 -102 8t-100 27.5t-90.5 50.5t-74 76.5t-50 107.5t-18.5 142q0 69 12 122.5t30.5 94.5t41.5 71.5t44 53.5q60 60 136 92.5t164 32.5q109 0 186.5 -37.5t127 -103.5t72.5 -156.5
t23 -196.5v-136h170v-249h-171q-4 -137 -48.5 -231t-132.5 -164q-46 -36 -100 -62.5t-121 -44.5t-149.5 -26.5t-186.5 -8.5v249zM508 615q-85 0 -135 -53t-50 -165q0 -44 17.5 -75t45 -50.5t61.5 -28.5t68 -9h154v136q0 57 -9 97.5t-23.5 67.5t-33 43t-36 24t-33.5 10.5
t-26 2.5zM342 1279l180 182l184 -184l-182 -182z" />
    <glyph glyph-name="uni06D0.fina" unicode="&#x6d0;" horiz-adv-x="1796" arabic-form="final" 
d="M1533 -15q23 -33 38 -72.5t15 -71.5q0 -93 -51 -168.5t-138 -128.5t-202.5 -82t-245.5 -29h-256q-82 0 -157 19t-141 54.5t-121 86t-97 114.5q-99 160 -99 375q0 66 7.5 131t25 133.5t46 143t70.5 161.5l222 -107q-35 -74 -58 -135t-37.5 -115.5t-20.5 -105t-6 -101.5
q0 -145 64 -246q46 -76 125.5 -116.5t176.5 -40.5h256q75 0 142 14t118 39t83 57.5t37 70.5q-29 31 -73.5 52.5t-101 36t-122 22t-136.5 10.5l7 248h907v-249h-277zM833 -1156l-110 112l109 114l113 -114zM943 -771l-110 -108l-115 108l114 114z" />
    <glyph glyph-name="uni06D1.fina" unicode="&#x6d1;" horiz-adv-x="1796" 
d="M1533 -15q23 -33 38 -72.5t15 -71.5q0 -93 -51 -168.5t-138 -128.5t-202.5 -82t-245.5 -29h-256q-82 0 -157 19t-141 54.5t-121 86t-97 114.5q-99 160 -99 375q0 66 7.5 131t25 133.5t46 143t70.5 161.5l222 -107q-35 -74 -58 -135t-37.5 -115.5t-20.5 -105t-6 -101.5
q0 -145 64 -246q46 -76 125.5 -116.5t176.5 -40.5h256q75 0 142 14t118 39t83 57.5t37 70.5q-29 31 -73.5 52.5t-101 36t-122 22t-136.5 10.5l7 248h907v-249h-277zM899 -847l117 117l116 -116l-116 -117zM612 -850l113 115l119 -114l-116 -116zM760 -1040l110 110l105 -109
l-107 -108z" />
    <glyph glyph-name="uni06D2" unicode="&#x6d2;" horiz-adv-x="1651" arabic-form="isolated" 
d="M1647 -567h-1158q-91 0 -168.5 29t-134.5 82.5t-89 129t-32 169.5q0 82 35 153.5t94 124.5t135.5 83t159.5 30h420v-249h-412q-38 0 -74.5 -8.5t-65 -27t-46.5 -47.5t-18 -71t17.5 -70.5t45.5 -46t63 -25.5t70 -8h1158v-248z" />
    <glyph glyph-name="uni06D3" unicode="&#x6d3;" horiz-adv-x="1647" arabic-form="isolated" 
d="M1647 -567h-1158q-91 0 -168.5 29t-134.5 82.5t-89 129t-32 169.5q0 82 35 153.5t94 124.5t135.5 83t159.5 30h420v-249h-412q-38 0 -74.5 -8.5t-65 -27t-46.5 -47.5t-18 -71t17.5 -70.5t45.5 -46t63 -25.5t70 -8h1158v-248zM164 302v149l124 40q-30 31 -49.5 70
t-19.5 83q0 34 12 67t33 61t49.5 49t60.5 30q17 5 34.5 7.5t34.5 2.5q36 0 63.5 -8.5t51.5 -17.5l17 -8l-30 -124q-14 3 -31 8t-34 8t-33.5 3.5t-29.5 -3.5q-14 -5 -27.5 -14t-22.5 -20.5t-12.5 -26.5t2.5 -32q8 -26 37.5 -44t82.5 -18q10 0 21.5 1t30.5 5.5t48.5 13
t75.5 23.5l8 -141z" />
    <glyph glyph-name="uni06EE.fina" unicode="&#x6ee;" horiz-adv-x="1196" 
d="M1207 -15h-81q-133 0 -254 117q-33 -39 -78.5 -64.5t-97.5 -40.5t-105.5 -21t-102.5 -6q-38 0 -77 4.5t-88.5 15t-113.5 28t-153 44.5l72 239q61 -24 126 -42.5t127 -30t119 -15t102 2.5t76.5 22.5t42.5 44.5q5 12 5 21.5t-5.5 22.5t-17.5 31.5t-31 48.5l-355 499
l210 135l357 -541q29 -44 61 -91t64 -85.5t62 -63.5t55 -25h81v-250zM217 1178l231 415h90l233 -415h-150l-126 255l-131 -255h-147z" />
    <glyph glyph-name="uni06EF.fina" unicode="&#x6ef;" horiz-adv-x="844" 
d="M852 -15h-38q-41 0 -77.5 5t-71.5 28q-12 -129 -59 -234t-125.5 -179.5t-187.5 -115.5t-245 -41h-125v249h125q96 0 166 20t115 64t67 114.5t22 171.5v609h249v-299q0 -46 19.5 -74t45 -43.5t49.5 -20.5t33 -5h38v-249zM257 929l231 415h90l233 -415h-150l-126 255
l-131 -255h-147z" />
    <glyph glyph-name="uni06FA.init" unicode="&#x6fa;" horiz-adv-x="1744" 
d="M745 -13q-183 0 -290 95q-55 -51 -122 -74t-138 -23h-225v249h225q12 0 34.5 4t45 19.5t39.5 46t17 84.5v4v284h249v-284q0 -82 38.5 -119.5t126.5 -37.5q12 0 34.5 4.5t45 20.5t39.5 47.5t17 84.5v284h248v-284q0 -82 39.5 -120.5t128.5 -38.5q13 0 35.5 5.5t44.5 22
t38 47.5t16 84q0 22 -3.5 53t-9 65.5t-12.5 70t-14 67.5t-13.5 58t-10.5 41l235 77q2 -7 8 -32t14.5 -62t17.5 -82t16.5 -90.5t12.5 -89t5 -76.5q0 -102 -33.5 -178.5t-87.5 -127t-122 -75.5t-137 -26q-186 0 -294 98q-55 -51 -121.5 -73.5t-136.5 -22.5zM955 1079
l-170 -172l-170 170l170 172zM1384 1083l-168 -170l-175 168l172 172zM1163 1365l-160 -160l-158 158l160 160zM819 -352l180 182l184 -184l-182 -182z" />
    <glyph glyph-name="uni06FA.medi" unicode="&#x6fa;" horiz-adv-x="1892" 
d="M-32 234h129q59 0 95.5 10t57 29.5t27.5 47.5t7 64v291h249v-286q0 -81 39 -118t124 -38h-1q15 1 36.5 6t42 20.5t35 45t14.5 79.5v291h248v-286q0 -82 39 -119t127 -37q24 0 47.5 7.5t42.5 25t31 45.5t14 69v-1v296h249v-296q2 -77 47 -111.5t138 -34.5h98v-249h-98
q-103 0 -179 22.5t-131 73.5q-51 -47 -119.5 -71.5t-139.5 -24.5q-94 0 -164.5 23t-125.5 74q-52 -46 -116.5 -71t-130.5 -26q-94 -1 -165.5 24t-123.5 69q-117 -93 -314 -93h-129v249zM783 -360l180 182l184 -184l-182 -182zM899 1067l-170 -172l-170 170l170 172z
M1328 1071l-168 -170l-175 168l172 172zM1107 1353l-160 -160l-158 158l160 160z" />
    <glyph glyph-name="uni06FA.fina" unicode="&#x6fa;" horiz-adv-x="2940" 
d="M2870 -15q-206 0 -315 100q-57 -46 -128.5 -73t-143.5 -27q-188 0 -296 100q-57 -46 -128.5 -73t-143.5 -27q-54 0 -98.5 8t-87.5 28v-34q0 -275 -148.5 -407.5t-440.5 -132.5h-221q-79 0 -153.5 19.5t-140 55t-121 85.5t-96.5 112q-48 78 -74 166t-26 194
q0 66 8.5 131.5t27.5 135t48 144.5t70 161l224 -109q-35 -73 -60 -134.5t-41 -116.5t-23 -106t-7 -103q0 -65 18.5 -124t45.5 -106q48 -71 126.5 -113.5t173.5 -42.5h221q106 0 172.5 19.5t103.5 57t50.5 91.5t13.5 123v689h249v-194q0 -86 16 -135.5t42 -74.5t59.5 -32
t68.5 -7q21 0 47.5 7.5t50.5 25.5t40 48.5t16 75.5v286h248v-296q2 -76 41.5 -111.5t126.5 -35.5q21 0 47.5 7.5t49.5 25.5t39 48t16 76v286h248v-296q2 -76 45.5 -111t139.5 -35h78v-249h-78v0zM1939 1023l-170 -172l-170 170l170 172zM2368 1027l-168 -170l-175 168
l172 172zM2147 1309l-160 -160l-158 158l160 160zM1805 -368l180 182l184 -184l-182 -182z" />
    <glyph glyph-name="uni06FB.init" unicode="&#x6fb;" horiz-adv-x="1797" 
d="M-39 -15v249h144q61 0 97 11t54.5 29t24.5 40.5t6 45.5v316h248v-316q0 -18 7 -35t18 -30.5t25 -22t29 -10.5l22 36q40 66 84.5 133t93.5 129.5t104 117t117 95t131 63.5t148 23q78 0 155 -21.5t137.5 -72.5t98 -135.5t37.5 -211.5q0 -120 -40.5 -202.5t-104 -133.5
t-142 -74t-153.5 -23h-572q-36 0 -80 1.5t-88 10t-83.5 26.5t-67.5 52q-109 -87 -299 -90h-151zM1314 611q-60 0 -121 -31t-120.5 -83t-114.5 -120t-101 -143h445q37 0 76 9.5t71 31t53 56.5t21 87q0 56 -17.5 93.5t-46.5 59.5t-66.5 31t-78.5 9zM1110 -369l180 182
l184 -184l-182 -182zM1112 1216l180 182l184 -184l-182 -182z" />
    <glyph glyph-name="uni06FB.medi" unicode="&#x6fb;" horiz-adv-x="1884" 
d="M636 298q40 66 84.5 133.5t93.5 129.5t104 117t117 95t131 63.5t148 23.5q78 0 154 -21.5t136 -72.5t97 -136t37 -212q0 -55 -9.5 -99.5t-25.5 -84.5h209v-249h-1182q-36 0 -80 6.5t-87 18.5t-82.5 29t-66.5 38q-56 -48 -130 -69t-172 -23h-156v249h149q61 0 97 11
t54.5 28.5t24.5 38t6 40.5v324h248v-316q0 -18 7 -35t18 -30.5t25 -22t29 -10.5zM1314 612q-60 0 -122 -31t-122 -83.5t-115.5 -120.5t-101.5 -143h449q38 0 77 12t70.5 35.5t51 58t19.5 78.5q0 56 -17 93.5t-45.5 60t-65.5 31.5t-78 9zM1103 -369l180 182l184 -184
l-182 -182zM1105 1216l180 182l184 -184l-182 -182z" />
    <glyph glyph-name="uni06FB.fina" unicode="&#x6fb;" horiz-adv-x="2853" 
d="M722 -552q-80 0 -155 19t-140.5 54t-121 86t-96.5 115q-48 79 -73.5 167.5t-25.5 194.5q0 66 8 129.5t26 131t46.5 141t69.5 158.5l225 -107q-35 -72 -59 -133t-39 -115t-22 -104t-7 -101q0 -71 15.5 -125.5t48.5 -105.5q46 -75 124.5 -115.5t175.5 -40.5h219
q106 0 172 20t103 58t50 93t13 124v684h248v-319q0 -17 5.5 -33t14.5 -29t20 -21.5t22 -11.5q74 121 150 230t160 190.5t180 129.5t210 48q78 0 154 -23t136 -76.5t96.5 -139.5t36.5 -212q0 -51 -7.5 -94.5t-21.5 -80.5h186v-249h-1162q-18 0 -41.5 1t-47.5 4t-48 9.5
t-43 17.5v-25q0 -278 -147 -411t-439 -133h-219zM2280 234q33 0 72.5 8.5t73.5 28.5t57 54t23 84q0 56 -18 94.5t-48.5 62.5t-69.5 34.5t-81 10.5q-59 0 -122 -31.5t-125 -83.5t-119.5 -120.5t-103.5 -141.5h461zM2088 -369l180 182l184 -184l-182 -182zM2090 1216l180 182
l184 -184l-182 -182z" />
    <glyph glyph-name="uni06FC.init" unicode="&#x6fc;" horiz-adv-x="1089" 
d="M872 -15h-901v249h284q-25 35 -39 69t-21 64.5t-8.5 58t-1.5 48.5q0 89 34 165t92.5 132t136 88t164.5 32q50 0 92 -8.5t85.5 -26t93 -45t112.5 -64.5l-125 -213q-26 17 -58 36t-66.5 35t-69 26.5t-64.5 10.5q-33 0 -67.5 -11t-62.5 -32t-46 -52.5t-18 -72.5
q0 -12 3.5 -28t12.5 -35.5t25.5 -40.5t42.5 -43h-1q60 -49 161.5 -71t237.5 -22h110v-249h-138zM419 1282l180 182l184 -184l-182 -182zM414 -339l180 182l184 -184l-182 -182z" />
    <glyph glyph-name="uni06FC.medi" unicode="&#x6fc;" horiz-adv-x="1272" 
d="M1288 -15h-378q-19 0 -42 4t-53.5 16t-69.5 35t-90 61q-60 -29 -136.5 -50.5t-163.5 -36t-182.5 -22t-193.5 -7.5v249q67 0 132 3t123.5 8.5t109 14t90.5 19.5q-85 75 -153.5 132.5t-107.5 97.5l-28 28v54q0 21 2 46.5t9.5 53t20.5 55t36 53.5q43 48 105.5 71.5
t153.5 23.5h350q45 0 88.5 -12t80.5 -34t66.5 -53.5t46.5 -70.5q11 -26 17.5 -58t6.5 -58q0 -24 -10 -50t-38 -64.5t-78.5 -95t-130.5 -142.5q9 -5 23 -8.5t28 -6t25.5 -4.5t14.5 -3h1h325v-249zM452 662q-30 0 -47.5 -5t-25.5 -9l286 -288q33 28 71.5 62.5t72 70t56 69
t24.5 59.5q1 15 -14 28t-38 13h-385zM475 -330l180 182l184 -184l-182 -182zM471 1316l180 182l184 -184l-182 -182z" />
    <glyph glyph-name="uni06FC.fina" unicode="&#x6fc;" horiz-adv-x="1391" 
d="M1236 -759h-494q-143 0 -266 30t-213 95.5t-141.5 168t-51.5 246.5q0 103 47.5 194.5t144.5 179.5q59 53 123.5 98t134.5 87l-270 264q0 22 4.5 51.5t14 61t25 62t37.5 56.5q45 48 109 71.5t157 23.5h329q45 0 86.5 -12t77 -34t64 -53t46.5 -68q12 -27 18 -56t6 -57
q0 -56 -26 -104t-68 -89.5t-94.5 -78.5t-104.5 -72q48 -38 71.5 -53.5t30.5 -18.5h374v-249h-382q-32 0 -61 6.5t-63.5 25.5t-80 54t-111.5 91q-75 -45 -146 -90.5t-126.5 -92.5t-89 -96.5t-33.5 -101.5q0 -67 21 -114.5t55.5 -80t79 -51.5t92 -29t94.5 -13t86 -3h494v-249z
M576 700q-38 0 -57.5 -1t-23.5 -7q17 -19 41.5 -46.5t55 -60.5t66.5 -70.5t76 -76.5q76 54 140.5 98t115.5 94q11 11 14.5 25.5t0.5 22.5q-5 11 -18 16.5t-30 5.5h-381zM555 -249l180 182l184 -184l-182 -182zM555 1353l180 182l184 -184l-182 -182z" />
    <glyph glyph-name="uni06FF.init" unicode="&#x6ff;" horiz-adv-x="1496" 
d="M947 1078q65 -86 132 -174q28 -38 59.5 -79t64 -83.5t63.5 -84.5t60 -80q62 -83 80.5 -181.5t-14.5 -195.5q-20 -60 -58.5 -110t-93.5 -86t-126 -56t-156 -20q-72 0 -149 14.5t-157 54.5q-18 8 -35 16q-15 7 -31 14.5t-27 13.5q-96 -29 -212.5 -42.5t-257.5 -13.5h-113
v249h113q28 0 49.5 -0.5t41 -0.5t39 1t43.5 4q-26 30 -46.5 58.5t-35 60t-22 67t-7.5 78.5q0 82 31.5 151t87 118t130 76.5t160.5 27.5q97 0 172.5 -38.5t127 -97t78 -126.5t26.5 -127q0 -48 -9.5 -88t-26.5 -75.5t-42 -67.5t-56 -63q31 -10 64 -18.5t64 -8.5t65 4.5
t64.5 18t54 37.5t35.5 63q11 37 -8.5 88.5t-62 116.5t-105.5 143.5t-138 171.5l-104 129zM387 502q0 -37 11.5 -65.5t35 -52.5t58 -46.5t80.5 -47.5q31 15 60 34t50.5 42.5t34.5 52.5t13 64q0 42 -18 74t-44 53t-55.5 31t-52.5 10q-34 0 -65.5 -12t-55.5 -32.5t-38 -47.5
t-14 -57zM580 1261l231 415h90l233 -415h-150l-126 255l-131 -255h-147z" />
    <glyph glyph-name="uni06FF.medi" unicode="&#x6ff;" horiz-adv-x="1276" 
d="M617 856q93 0 167 -24.5t125 -72.5t78.5 -118.5t27.5 -163.5q1 -50 -16 -106.5t-63.5 -112.5t-129 -107t-212.5 -90h1q-38 -13 -82 -22t-83 -16q15 -47 54 -98.5t90 -98.5t108 -84.5t110 -56.5q-39 64 -46.5 130t9 128.5t55 116.5t91 94t117 61.5t133.5 18.5h137v-249
h-145q-47 -2 -81 -20t-56 -46t-30 -64t-3 -74t24.5 -75.5t54.5 -69.5l-82 -202q-138 0 -265 40.5t-230.5 114t-177 176.5t-103.5 227q-57 -4 -113 -5.5t-107 -1.5v249q42 0 93 1t117 6q3 57 8.5 104t13 88t17.5 77t23 71q33 81 78 134.5t95 84.5t101.5 43.5t96.5 12.5z
M617 608q-30 0 -64 -12t-63.5 -48t-48.5 -101.5t-19 -172.5q63 7 129.5 22.5t120.5 40.5t88 60t34 81q0 38 -15 63t-39.5 40t-56.5 21t-66 6zM348 1117l231 415h90l233 -415h-150l-126 255l-131 -255h-147z" />
    <glyph glyph-name="uni06FF.fina" unicode="&#x6ff;" horiz-adv-x="1756" 
d="M1105 1078q65 -86 132 -174q28 -38 59.5 -79t64 -83.5t63.5 -84.5t60 -80q57 -76 77 -165t-1 -178h211v-249h-405q-51 -27 -113.5 -42t-136.5 -15q-72 0 -149 14.5t-157 54.5q-18 8 -35 16q-15 7 -31 14.5t-27 13.5q-96 -29 -212.5 -42.5t-257.5 -13.5h-113l81 249h113
q28 0 37 -0.5t13 -0.5t11 1t31 4q-26 30 -46.5 58.5t-35 60t-22 67t-7.5 78.5q0 82 31.5 151t87 118t130 76.5t160.5 27.5q97 0 172.5 -38.5t127 -97t78 -126.5t26.5 -127q0 -48 -9.5 -88t-26.5 -75.5t-42 -67.5t-56 -63q31 -10 64 -18.5t64 -8.5t65 4.5t64.5 18t54 37.5
t35.5 63q11 37 -8.5 88.5t-62 116.5t-105.5 143.5t-138 171.5l-104 129zM545 502q0 -37 11.5 -65.5t35 -52.5t58 -46.5t80.5 -47.5q31 15 60 34t50.5 42.5t34.5 52.5t13 64q0 42 -18 74t-44 53t-55.5 31t-52.5 10q-34 0 -65.5 -12t-55.5 -32.5t-38 -47.5t-14 -57zM744 1261
l231 415h90l233 -415h-150l-126 255l-131 -255h-147z" />
    <glyph glyph-name="uniFB51" unicode="&#x671;" horiz-adv-x="652" arabic-form="final" 
d="M675 -15q-79 0 -141 8.5t-111 25.5t-87 42.5t-69 60.5q-32 37 -52 81.5t-30.5 91t-14 94t-3.5 91.5v800h249v-800q0 -81 9 -127.5t29 -69.5q12 -12 29 -21.5t43 -15.5t62.5 -9t86.5 -3v-249zM-29 1421l24 109h132l44 68l83 122q35 52 86 82.5t111 30.5q34 0 68 -13
t61 -40t43.5 -68t16.5 -97q0 -54 -18 -91t-46 -60t-62.5 -33t-67.5 -10h-475zM451 1724q-27 0 -53.5 -18t-51 -46t-47.5 -62.5t-43 -67.5h190q36 0 60 20t24 65q0 53 -20.5 81t-58.5 28z" />
    <glyph glyph-name="uniFB57" unicode="&#x67e;" horiz-adv-x="2243" arabic-form="final" 
d="M2041 676v-293q0 -35 10.5 -59.5t27 -41t36.5 -26t39 -14.5t33.5 -6.5t21.5 -1.5h62v-249h-62q-34 0 -72.5 4.5t-77 15t-74.5 28.5t-64 44q-109 -91 -296 -92h-1154q-74 0 -140 25t-117 73q-20 19 -41.5 46t-38.5 64t-28 83.5t-11 104.5q0 50 10 108.5t22.5 110.5
t23.5 90t14 47l119 -38l118 -37q-9 -27 -19 -64.5t-19 -77.5t-15 -77t-6 -64q0 -48 13.5 -77.5t33 -45t42.5 -20.5t41 -5h1145q55 0 94 10.5t58 30.5q23 26 23 75v329h248zM706 -341l170 170l170 -172l-170 -170zM1123 -343l172 170l170 -172l-170 -170zM924 -623l158 158
l160 -160l-158 -158z" />
    <glyph glyph-name="uniFB58" unicode="&#x67e;" horiz-adv-x="876" arabic-form="initial" 
d="M728 825q2 -7 8.5 -33t14.5 -63.5t16.5 -83.5t16 -92.5t12 -90.5t4.5 -77q0 -103 -34 -178.5t-89 -124.5t-123.5 -73t-137.5 -24h-431v249h438q12 0 34.5 3.5t45 18.5t39.5 45.5t17 83.5q0 22 -3.5 53.5t-9.5 67.5t-13.5 73.5t-14.5 71t-14 61t-11 42.5zM31 -344l170 170
l170 -172l-170 -170zM448 -346l172 170l170 -172l-170 -170zM249 -626l158 158l160 -160l-158 -158z" />
    <glyph glyph-name="uniFB59" unicode="&#x67e;" horiz-adv-x="1049" arabic-form="medial" 
d="M1061 234v-249h-148q-85 0 -155 23t-118 68q-56 -47 -132.5 -69t-174.5 -22h-346v249h346q61 0 97.5 11.5t55 28.5t24 38t5.5 41v324h248v-317q0 -45 20 -70.5t45.5 -38t50.5 -15t34 -2.5h148zM110 -339l170 170l170 -172l-170 -170zM527 -341l172 170l170 -172
l-170 -170zM328 -621l158 158l160 -160l-158 -158z" />
    <glyph glyph-name="uniFB67" unicode="&#x679;" horiz-adv-x="2243" arabic-form="final" 
d="M2041 676v-293q0 -35 10.5 -59.5t27 -41t36.5 -26t39 -14.5t33.5 -6.5t21.5 -1.5h62v-249h-62q-34 0 -72.5 4.5t-77 15t-74.5 28.5t-64 44q-109 -91 -296 -92h-1154q-74 0 -140 25t-117 73q-20 19 -41.5 46t-38.5 64t-28 83.5t-11 104.5q0 50 10 108.5t22.5 110.5
t23.5 90t14 47l119 -38l118 -37q-9 -27 -19 -64.5t-19 -77.5t-15 -77t-6 -64q0 -48 13.5 -77.5t33 -45t42.5 -20.5t41 -5h1145q55 0 94 10.5t58 30.5q23 26 23 75v329h248zM818 668v109h104q3 4 5.5 8.5t7 11.5t12 17.5t18.5 26.5v488h107v-343q36 38 79.5 63t95.5 25
q34 0 68 -12t61 -37.5t43.5 -66t16.5 -96.5q0 -54 -18 -91t-46 -60t-62.5 -33t-67.5 -10h-424zM1247 965q-26 0 -52 -16.5t-51 -43.5t-48 -60.5t-44 -67.5h190q36 0 62 20t26 65q0 53 -22.5 78t-60.5 25z" />
    <glyph glyph-name="uniFB68" unicode="&#x679;" horiz-adv-x="873" arabic-form="initial" 
d="M728 825q2 -7 8.5 -33t14.5 -63.5t16.5 -83.5t16 -92.5t12 -90.5t4.5 -77q0 -103 -34 -178.5t-89 -124.5t-123.5 -73t-137.5 -24h-431v249h438q12 0 34.5 3.5t45 18.5t39.5 45.5t17 83.5q0 22 -3.5 53.5t-9.5 67.5t-13.5 73.5t-14.5 71t-14 61t-11 42.5zM169 978v109h104
q3 4 5.5 8.5t7 11.5t12 17.5t18.5 26.5v488h107v-343q36 38 79.5 63t95.5 25q34 0 68 -12t61 -37.5t43.5 -66t16.5 -96.5q0 -54 -18 -91t-46 -60t-62.5 -33t-67.5 -10h-424zM598 1275q-26 0 -52 -16.5t-51 -43.5t-48 -60.5t-44 -67.5h190q36 0 62 20t26 65q0 53 -22.5 78
t-60.5 25z" />
    <glyph glyph-name="uniFB69" unicode="&#x679;" horiz-adv-x="1049" arabic-form="medial" 
d="M1061 234v-249h-148q-85 0 -155 23t-118 68q-56 -47 -132.5 -69t-174.5 -22h-346v249h346q61 0 97.5 11.5t55 28.5t24 38t5.5 41v324h248v-317q0 -45 20 -70.5t45.5 -38t50.5 -15t34 -2.5h148zM134 844v109h104q3 4 5.5 8.5t7 11.5t12 17.5t18.5 26.5v488h107v-343
q36 38 79.5 63t95.5 25q34 0 68 -12t61 -37.5t43.5 -66t16.5 -96.5q0 -54 -18 -91t-46 -60t-62.5 -33t-67.5 -10h-424zM563 1141q-26 0 -52 -16.5t-51 -43.5t-48 -60.5t-44 -67.5h190q36 0 62 20t26 65q0 53 -22.5 78t-60.5 25z" />
    <glyph glyph-name="uniFB6A" unicode="&#x6a4;" horiz-adv-x="2097" arabic-form="isolated" 
d="M462 -15q-74 0 -140 25t-117 73q-20 19 -41.5 46t-38.5 64t-28 83.5t-11 104.5q0 50 10 108.5t22.5 110.5t23.5 90t14 47l119 -38l118 -37q-9 -27 -19 -64.5t-19 -77t-15 -76.5t-6 -64q0 -48 13.5 -77t33 -44.5t42.5 -20t41 -4.5h1005q84 0 141 9.5t92.5 24.5t53.5 33.5
t26 37.5q-133 -18 -239 -3.5t-180 60t-113.5 121.5t-39.5 182q0 84 31 158.5t86.5 130t131 87t165.5 27.5q81 -3 142 -28t106.5 -66t76 -95.5t49 -117.5t27 -131.5t9.5 -137.5l-4 -74q-8 -140 -56 -230.5t-124.5 -143t-174.5 -73t-206 -20.5h-1007zM1622 853q-36 3 -70 -5.5
t-59.5 -28.5t-41 -49.5t-15.5 -68.5q0 -87 91.5 -125.5t263.5 -10.5q-2 43 -7 91t-22 90t-50 71.5t-90 35.5zM1580 1432l-170 -172l-170 170l170 172zM2009 1436l-168 -170l-175 168l172 172zM1788 1718l-160 -160l-158 158l160 160z" />
    <glyph glyph-name="uniFB6B" unicode="&#x6a4;" horiz-adv-x="2120" arabic-form="final" 
d="M464 240q84 -10 174.5 -16.5t178.5 -10t170 -4t149 0.5t115.5 3.5t69.5 5.5q-50 50 -80 115.5t-30 146.5q0 79 33 150t90.5 124t134.5 84t165 31q93 0 166.5 -32.5t124.5 -87t78 -124.5t27 -145q0 -42 -5 -75t-15.5 -61.5t-25.5 -54.5t-35 -54q26 -2 53.5 -2h56.5h84
v-249h-84q-127 0 -235 11t-198 36q-34 -12 -96.5 -23.5t-148.5 -20.5t-191.5 -14.5t-223.5 -6.5t-246 4.5t-258 19.5q-74 8 -140 29t-117 69q-20 19 -41.5 46t-38.5 64t-28 83.5t-11 104.5q0 50 10 107.5t22.5 108.5t23.5 88t14 46l119 -38l118 -37q-9 -27 -19 -63.5
t-19 -75t-15 -74.5t-6 -63q0 -48 13.5 -76t33 -43t42.5 -20t41 -7zM1452 473q0 -38 12 -67t35 -52.5t55 -41.5t73 -33q38 15 68.5 32t52.5 40t33.5 52.5t11.5 70.5q0 24 -13 50t-35 47.5t-51 35.5t-60 14q-36 0 -69 -12.5t-58 -33t-40 -47.5t-15 -55zM1596 1247l-170 -172
l-170 170l170 172zM2025 1251l-168 -170l-175 168l172 172zM1804 1533l-160 -160l-158 158l160 160z" />
    <glyph glyph-name="uniFB6C" unicode="&#x6a4;" horiz-adv-x="997" arabic-form="initial" 
d="M-36 -15v249h408q84 0 141 9.5t92.5 24.5t53.5 33.5t26 37.5q-133 -18 -239 -3.5t-180 60t-113.5 121.5t-39.5 182q0 84 31 158.5t86.5 130t131 87t165.5 27.5q80 -3 141.5 -28t107 -66t76 -95.5t49 -117.5t27 -131.5t9.5 -137.5l-4 -74q-8 -140 -56 -230.5t-124.5 -143
t-174.5 -73t-206 -20.5h-408zM525 853q-36 3 -70 -5.5t-59.5 -28.5t-41 -49.5t-15.5 -68.5q0 -87 91.5 -125.5t263.5 -10.5q-2 43 -7 91t-22 90t-50 71.5t-90 35.5zM473 1381l-170 -172l-170 170l170 172zM902 1385l-168 -170l-175 168l172 172zM681 1667l-160 -160
l-158 158l160 160z" />
    <glyph glyph-name="uniFB6D" unicode="&#x6a4;" horiz-adv-x="1086" arabic-form="medial" 
d="M554 867q93 0 166.5 -34t124.5 -89.5t78 -126.5t27 -146q0 -42 -5 -73.5t-15.5 -58t-25.5 -51t-35 -52.5q18 -1 39.5 -1.5t43 -0.5h41.5h35h72v-249h-72q-64 0 -130.5 4t-130 11.5t-120.5 18t-102 23.5q-91 -26 -204 -41.5t-258 -15.5h-105v249h105q27 0 43 -0.5t29 -0.5
t27 0.5t35 2.5q-42 56 -64 111t-22 124q0 79 33 151t90.5 126.5t134.5 86.5t165 32zM367 469q0 -71 50 -121t130 -81q38 15 70 34t55.5 43.5t37 56t13.5 70.5q0 24 -12 50t-34 47.5t-53 35.5t-70 14q-44 0 -79 -12.5t-59 -33t-36.5 -47.5t-12.5 -56zM490 1264l-170 -172
l-170 170l170 172zM919 1268l-168 -170l-175 168l172 172zM698 1550l-160 -160l-158 158l160 160z" />
    <glyph glyph-name="uniFB7B" unicode="&#x686;" horiz-adv-x="1575" arabic-form="final" 
d="M1006 383l-242 -99q-129 -49 -214.5 -84t-136 -69.5t-71 -73.5t-20.5 -95q0 -2 1 -19.5t2 -38.5t2 -39t1 -19q12 -127 54 -205t106 -120.5t148 -56.5t180 -14h461v-249h-461q-158 0 -286.5 30.5t-222.5 105t-150.5 198.5t-71.5 310q0 1 -1 18t-2 38t-2 38t-1 18
q0 123 48.5 209.5t131 149t191 107t229.5 82.5l401 132q-116 40 -235.5 78.5t-234.5 75.5q-21 7 -40.5 12.5t-37.5 5.5q-23 0 -41.5 -4.5t-33.5 -16t-27.5 -32.5t-24.5 -54l-229 69q19 60 47.5 112.5t68.5 91.5t92.5 61.5t119.5 22.5q55 0 120 -20q80 -26 146.5 -51.5
t132.5 -52.5q38 -15 79 -34t93 -41.5t117.5 -49.5t152.5 -58l9 -225l-103 -42zM1189 470q0 -35 10 -76.5t31 -77t52.5 -59t74.5 -23.5h245v-249h-245q-76 0 -135.5 18t-105.5 48t-78.5 69t-53.5 82t-30.5 85.5t-9.5 80.5zM475.769 -81.8164l142.451 142.504l142.452 -144.18
l-142.452 -142.504zM825.194 -83.4922l144.127 142.503l142.452 -144.18l-142.452 -142.504zM658.441 -318.204l132.396 132.444l134.072 -134.121l-132.396 -132.444z" />
    <glyph glyph-name="uniFB7C" unicode="&#x686;" horiz-adv-x="1454" arabic-form="initial" 
d="M1356 383q-6 -4 -52 -35t-122 -75.5t-178 -94.5t-220 -93t-247 -71.5t-259 -28.5h-303v249h303q98 0 209 20t219 51.5t205.5 70.5t169.5 77q-46 14 -99.5 30.5t-109.5 33t-111 32t-103 27.5t-86 19t-60 7q-23 0 -40.5 -5.5t-31.5 -18t-26 -32.5t-25 -48l-229 69
q19 60 46.5 112.5t67 91.5t91.5 61.5t119 22.5q26 0 74 -11t109 -29t130.5 -41t139.5 -48t136 -49t119 -43.5t89 -32.5t46 -16zM309 -354l170 170l170 -172l-170 -170zM726 -356l172 170l170 -172l-170 -170zM527 -636l158 158l160 -160l-158 -158z" />
    <glyph glyph-name="uniFB7D" unicode="&#x686;" horiz-adv-x="1556" arabic-form="medial" 
d="M1356 383q-5 -3 -32 -21.5t-73 -47.5q10 -30 31 -46.5t43 -24t41.5 -8.5t27.5 -1h183v-249h-183q-119 1 -213.5 52.5t-147.5 154.5q-77 -38 -166 -75.5t-186 -66.5t-199 -47t-204 -18h-298v249h298q98 0 209 20t219 51.5t205.5 70.5t169.5 77q-45 14 -99 30.5t-110 33
t-111 32t-103 27.5t-86 19t-60 7q-23 0 -40.5 -5.5t-31.5 -18t-26 -32.5t-25 -48l-229 69q19 60 46.5 112.5t67 91.5t91.5 61.5t119 22.5q26 0 74 -11t109 -29t130.5 -41t139.5 -48t136 -49t119 -43.5t89 -32.5t46 -16zM318 -355l170 170l170 -172l-170 -170zM735 -357
l172 170l170 -172l-170 -170zM536 -637l158 158l160 -160l-158 -158z" />
    <glyph glyph-name="uniFB89" unicode="&#x688;" horiz-adv-x="1184" arabic-form="final" 
d="M1207 -15h-81q-133 0 -254 117q-33 -39 -78.5 -64.5t-97.5 -40.5t-105.5 -21t-102.5 -6q-38 0 -77 4.5t-88.5 15t-113.5 28t-153 44.5l72 239q61 -24 126 -42.5t127 -30t119 -15t102 2.5t76.5 22.5t42.5 44.5q5 12 5 21.5t-5.5 22.5t-17.5 31.5t-31 48.5l-355 499
l210 135l357 -541q29 -44 61 -91t64 -85.5t62 -63.5t55 -25h81v-250zM174 1236v109h104q3 4 5.5 8.5t7 11.5t12 17.5t18.5 26.5v488h107v-343q36 38 79.5 63t95.5 25q34 0 68 -12t61 -37.5t43.5 -66t16.5 -96.5q0 -54 -18 -91t-46 -60t-62.5 -33t-67.5 -10h-424zM603 1533
q-26 0 -52 -16.5t-51 -43.5t-48 -60.5t-44 -67.5h190q36 0 62 20t26 65q0 53 -22.5 78t-60.5 25z" />
    <glyph glyph-name="uniFB8B" unicode="&#x698;" horiz-adv-x="836" arabic-form="final" 
d="M852 -15h-38q-41 0 -77.5 5t-71.5 28q-12 -129 -59 -234t-125.5 -179.5t-187.5 -115.5t-245 -41h-125v249h125q96 0 166 20t115 64t67 114.5t22 171.5v609h249v-299q0 -46 19.5 -74t45 -43.5t49.5 -20.5t33 -5h38v-249zM404 1082l-170 -172l-170 170l170 172zM833 1086
l-168 -170l-175 168l172 172zM612 1368l-160 -160l-158 158l160 160z" />
    <glyph glyph-name="uniFB8D" unicode="&#x691;" horiz-adv-x="844" arabic-form="final" 
d="M852 -15h-38q-41 0 -77.5 5t-71.5 28q-12 -129 -59 -234t-125.5 -179.5t-187.5 -115.5t-245 -41h-125v249h125q96 0 166 20t115 64t67 114.5t22 171.5v609h249v-299q0 -46 19.5 -74t45 -43.5t49.5 -20.5t33 -5h38v-249zM149 875v109h104q3 4 5.5 8.5t7 11.5t12 17.5
t18.5 26.5v488h107v-343q36 38 79.5 63t95.5 25q34 0 68 -12t61 -37.5t43.5 -66t16.5 -96.5q0 -54 -18 -91t-46 -60t-62.5 -33t-67.5 -10h-424zM578 1172q-26 0 -52 -16.5t-51 -43.5t-48 -60.5t-44 -67.5h190q36 0 62 20t26 65q0 53 -22.5 78t-60.5 25z" />
    <glyph glyph-name="uniFB8F" unicode="&#x6a9;" horiz-adv-x="2183" arabic-form="final" 
d="M1057 228q109 0 190.5 6.5t138.5 18.5t90 29.5t47 40.5v-1q5 8 7 21t2 25q0 19 -7.5 43t-20 50.5t-29.5 54t-36 54.5q-76 105 -133 180t-95 124q-45 57 -77 96l53 215l892 420l102 -228l-787 -361l307 -416q55 -75 98.5 -131.5t80.5 -97t70.5 -67t69 -42t75 -22
t88.5 -6.5h19v-249h-19q-86 0 -153 15.5t-121.5 43.5t-100.5 68t-90 90q-41 -82 -108 -127t-152.5 -66t-187.5 -25t-214 -4l-594 5q-74 0 -140 25t-117 73q-20 19 -41.5 46t-38.5 64t-28 83.5t-11 104.5q0 50 10 108.5t22.5 110.5t23.5 90t14 47l119 -38l118 -37
q-9 -27 -19 -64.5t-19 -77t-15 -76.5t-6 -64q0 -48 13.5 -77.5t33 -45t42.5 -20.5t41 -5l592 -4h1v0z" />
    <glyph glyph-name="uniFB90" unicode="&#x6a9;" horiz-adv-x="1153" arabic-form="initial" 
d="M-17 -15v249h585q16 0 44 1.5t55 8t46.5 19t19.5 34.5q0 43 -32.5 104t-83.5 130t-114.5 139.5t-126 133t-117.5 110.5t-88 72l20 226l870 398l91 -218l-732 -323q38 -37 85.5 -84t97.5 -99.5t99.5 -109t93 -113t77.5 -110.5t53 -102q17 -42 24 -81t7 -71q0 -40 -7.5 -70
t-16.5 -51q-12 -27 -37 -61t-69.5 -63t-112 -49t-163.5 -20h-568z" />
    <glyph glyph-name="uniFB91" unicode="&#x6a9;" horiz-adv-x="1248" arabic-form="medial" 
d="M1262 -15h-30q-88 0 -153 16.5t-117 46t-95.5 71t-88.5 92.5q-24 -63 -76.5 -107t-120 -71t-144.5 -38.5t-152 -9.5h-312v249h326q66 0 122 7.5t97 25t65 46.5t27 71q0 43 -36.5 109t-95 147t-132 171.5t-148.5 183.5l42 203l868 421l102 -228l-759 -351
q94 -126 187.5 -250.5t187.5 -250.5q55 -73 101 -129.5t92.5 -95.5t97.5 -59.5t115 -20.5h30v-249z" />
    <glyph glyph-name="uniFB93" unicode="&#x6af;" horiz-adv-x="2184" arabic-form="final" 
d="M1057 228q109 0 190.5 6.5t138.5 18.5t90 29.5t47 40.5v-1q5 8 7 21t2 25q0 19 -7.5 43t-20 50.5t-29.5 54t-36 54.5q-76 105 -133 180t-95 124q-45 57 -77 96l53 215l892 420l102 -228l-787 -361l307 -416q55 -75 98.5 -131.5t80.5 -97t70.5 -67t69 -42t75 -22
t88.5 -6.5h19v-249h-19q-86 0 -153 15.5t-121.5 43.5t-100.5 68t-90 90q-41 -82 -108 -127t-152.5 -66t-187.5 -25t-214 -4l-594 5q-74 0 -140 25t-117 73q-20 19 -41.5 46t-38.5 64t-28 83.5t-11 104.5q0 50 10 108.5t22.5 110.5t23.5 90t14 47l119 -38l118 -37
q-9 -27 -19 -64.5t-19 -77t-15 -76.5t-6 -64q0 -48 13.5 -77.5t33 -45t42.5 -20.5t41 -5l592 -4h1v0zM1223 1500l762 331l52 -112l-827 -361z" />
    <glyph glyph-name="uniFB94" unicode="&#x6af;" horiz-adv-x="1180" arabic-form="initial" 
d="M-17 -15v249h585q16 0 44 1.5t55 8t46.5 19t19.5 34.5q0 43 -32.5 104t-83.5 130t-114.5 139.5t-126 133t-117.5 110.5t-88 72l20 226l870 398l91 -218l-732 -323q38 -37 85.5 -84t97.5 -99.5t99.5 -109t93 -113t77.5 -110.5t53 -102q17 -42 24 -81t7 -71q0 -40 -7.5 -70
t-16.5 -51q-12 -27 -37 -61t-69.5 -63t-112 -49t-163.5 -20h-568zM202 1509l762 331l52 -112l-827 -361z" />
    <glyph glyph-name="uniFB95" unicode="&#x6af;" horiz-adv-x="1252" arabic-form="medial" 
d="M1272 -15h-30q-88 0 -153 16.5t-117 46t-95.5 71t-88.5 92.5q-24 -63 -76.5 -107t-120 -71t-144.5 -38.5t-152 -9.5h-312v249h326q66 0 122 7.5t97 25t65 46.5t27 71q0 43 -36.5 109t-95 147t-132 171.5t-148.5 183.5l42 203l868 421l102 -228l-759 -351
q94 -126 187.5 -250.5t187.5 -250.5q55 -73 101 -129.5t92.5 -95.5t97.5 -59.5t115 -20.5h30v-249zM261 1499l762 331l52 -112l-827 -361z" />
    <glyph glyph-name="uniFB9F" unicode="&#x6ba;" horiz-adv-x="1696" arabic-form="final" 
d="M700 -553q-80 0 -154 19t-139.5 54t-121 86t-96.5 115q-48 78 -74 173.5t-26 199.5q0 66 8 128t25.5 127t46 136t69.5 156l225 -107q-36 -73 -60 -131t-39 -109.5t-21.5 -99t-6.5 -99.5q0 -68 17 -130.5t47 -112.5q48 -71 126.5 -113.5t173.5 -42.5h203q106 0 172.5 22
t103.5 62.5t50.5 97.5t13.5 126v673h249v-312q2 -66 43.5 -98.5t107.5 -32.5h80v-249h-80q-38 0 -77.5 7t-73.5 20v-8q0 -279 -147.5 -418t-441.5 -139h-203z" />
    <glyph glyph-name="uniFBA5" unicode="&#x6c0;" horiz-adv-x="1268" arabic-form="final" 
d="M1278 -15h-28q-78 0 -150 14.5t-133 44t-108.5 75.5t-77.5 109q-24 -37 -61.5 -65.5t-81.5 -47.5t-91 -28.5t-90 -9.5q-80 0 -151.5 28t-125.5 79.5t-85.5 125.5t-31.5 167q0 108 41 190t109 143.5t156.5 105t183.5 75.5l-24 96l244 57l182 -708q16 -65 52 -104.5
t78.5 -61t87 -29t77.5 -7.5h28v-249zM662 482q6 28 4 56.5t-9 60.5t-18.5 69t-24.5 83q-160 -51 -242.5 -115.5t-82.5 -159.5q0 -37 16.5 -66t43 -48t59 -27.5t65.5 -3.5q75 11 125 44.5t64 106.5zM276 1223v149l124 40q-30 31 -49.5 70t-19.5 83q0 34 12 67t33 61t49.5 49
t60.5 30q17 5 34.5 7.5t34.5 2.5q36 0 63.5 -8.5t51.5 -17.5l17 -8l-30 -124q-14 3 -31 8t-34 8t-33.5 3.5t-29.5 -3.5q-14 -5 -27.5 -14t-22.5 -20.5t-12.5 -26.5t2.5 -32q8 -26 37.5 -44t82.5 -18q10 0 21.5 1t30.5 5.5t48.5 13t75.5 23.5l8 -141z" />
    <glyph glyph-name="uniFBA7" unicode="&#x6c1;" horiz-adv-x="1290" arabic-form="final" 
d="M1318 -15h-74q-76 0 -157 21t-154.5 67.5t-131.5 120.5t-88 181l-127 458l-89 -19q-48 -11 -78.5 -30.5t-46.5 -47.5q-14 -26 -21 -59.5t-7 -73.5q0 -67 33 -186.5t83 -288.5l-239 -67q-26 93 -49 171.5t-40 145t-26.5 122.5t-9.5 103q0 69 14.5 134t46.5 122
q44 75 113 124t167 73q20 5 58 12.5l76 15t67.5 13t32.5 5.5l129 -84q15 -66 30 -125.5t33 -125t40 -144.5t52 -184q20 -64 55.5 -104t76.5 -62.5t82.5 -30.5t74.5 -8h74v-249z" />
    <glyph glyph-name="uniFBA8" unicode="&#x6c1;" horiz-adv-x="706" arabic-form="initial" 
d="M476 -612q-1 -30 -15 -55t-36.5 -43.5t-50.5 -29t-57 -10.5q-44 0 -77 17t-55.5 46t-34 66.5t-11.5 79.5q0 109 64 207.5t180 176.5l59 -89q-30 -18 -59 -43.5t-52 -53.5t-37 -55t-14 -49q0 -18 14 -30.5t45 -14.5q30 -4 54 -11.5t41.5 -21t28 -35t13.5 -52.5zM558 825
q2 -7 8.5 -33t14.5 -63.5t16.5 -83.5t16 -92.5t12 -90.5t4.5 -77q0 -103 -34 -178.5t-89 -124.5t-123.5 -73t-137.5 -24h-266v249h273q12 0 34.5 3.5t45 18.5t39.5 45.5t17 83.5q0 22 -3.5 53.5t-9.5 67.5t-13.5 73.5t-14.5 71t-14 61t-11 42.5z" />
    <glyph glyph-name="uniFBA9" unicode="&#x6c1;" horiz-adv-x="1186" arabic-form="medial" 
d="M434 38q5 -49 18.5 -113.5t39 -130.5t64.5 -125.5t95 -97.5q-25 70 -29.5 145t10 146t46.5 135.5t80.5 114.5t113 82.5t143.5 39.5h192v-249h-186q-26 -11 -56 -33.5t-57.5 -55t-48.5 -75t-28.5 -93t3 -109.5t46.5 -125l-94 -181q-145 8 -252 66t-179.5 150t-113 210
t-52.5 246h-211v249h447z" />
    <glyph glyph-name="uniFBAB" unicode="&#x6be;" horiz-adv-x="1744" arabic-form="final" 
d="M1105 1078q65 -86 132 -174q28 -38 59.5 -79t64 -83.5t63.5 -84.5t60 -80q57 -76 77 -165t-1 -178h211v-249h-405q-51 -27 -113.5 -42t-136.5 -15q-72 0 -149 14.5t-157 54.5q-18 8 -35 16q-15 7 -31 14.5t-27 13.5q-96 -29 -212.5 -42.5t-257.5 -13.5h-113l81 249h113
q28 0 37 -0.5t13 -0.5t11 1t31 4q-26 30 -46.5 58.5t-35 60t-22 67t-7.5 78.5q0 82 31.5 151t87 118t130 76.5t160.5 27.5q97 0 172.5 -38.5t127 -97t78 -126.5t26.5 -127q0 -48 -9.5 -88t-26.5 -75.5t-42 -67.5t-56 -63q31 -10 64 -18.5t64 -8.5t65 4.5t64.5 18t54 37.5
t35.5 63q11 37 -8.5 88.5t-62 116.5t-105.5 143.5t-138 171.5l-104 129zM545 502q0 -37 11.5 -65.5t35 -52.5t58 -46.5t80.5 -47.5q31 15 60 34t50.5 42.5t34.5 52.5t13 64q0 42 -18 74t-44 53t-55.5 31t-52.5 10q-34 0 -65.5 -12t-55.5 -32.5t-38 -47.5t-14 -57z" />
    <glyph glyph-name="uniFBAC" unicode="&#x6be;" horiz-adv-x="1455" arabic-form="initial" 
d="M947 1078q65 -86 132 -174q28 -38 59.5 -79t64 -83.5t63.5 -84.5t60 -80q62 -83 80.5 -181.5t-14.5 -195.5q-20 -60 -58.5 -110t-93.5 -86t-126 -56t-156 -20q-72 0 -149 14.5t-157 54.5q-18 8 -35 16q-15 7 -31 14.5t-27 13.5q-96 -29 -212.5 -42.5t-257.5 -13.5h-113
v249h113q28 0 49.5 -0.5t41 -0.5t39 1t43.5 4q-26 30 -46.5 58.5t-35 60t-22 67t-7.5 78.5q0 82 31.5 151t87 118t130 76.5t160.5 27.5q97 0 172.5 -38.5t127 -97t78 -126.5t26.5 -127q0 -48 -9.5 -88t-26.5 -75.5t-42 -67.5t-56 -63q31 -10 64 -18.5t64 -8.5t65 4.5
t64.5 18t54 37.5t35.5 63q11 37 -8.5 88.5t-62 116.5t-105.5 143.5t-138 171.5l-104 129zM387 502q0 -37 11.5 -65.5t35 -52.5t58 -46.5t80.5 -47.5q31 15 60 34t50.5 42.5t34.5 52.5t13 64q0 42 -18 74t-44 53t-55.5 31t-52.5 10q-34 0 -65.5 -12t-55.5 -32.5t-38 -47.5
t-14 -57z" />
    <glyph glyph-name="uniFBAD" unicode="&#x6be;" horiz-adv-x="1264" arabic-form="medial" 
d="M617 856q93 0 167 -24.5t125 -72.5t78.5 -118.5t27.5 -163.5q1 -50 -16 -106.5t-63.5 -112.5t-129 -107t-212.5 -90h1q-38 -13 -82 -22t-83 -16q15 -47 54 -98.5t90 -98.5t108 -84.5t110 -56.5q-39 64 -46.5 130t9 128.5t55 116.5t91 94t117 61.5t133.5 18.5h137v-249
h-145q-47 -2 -81 -20t-56 -46t-30 -64t-3 -74t24.5 -75.5t54.5 -69.5l-82 -202q-138 0 -265 40.5t-230.5 114t-177 176.5t-103.5 227q-57 -4 -113 -5.5t-107 -1.5v249q42 0 93 1t117 6q3 57 8.5 104t13 88t17.5 77t23 71q33 81 78 134.5t95 84.5t101.5 43.5t96.5 12.5z
M617 608q-30 0 -64 -12t-63.5 -48t-48.5 -101.5t-19 -172.5q63 7 129.5 22.5t120.5 40.5t88 60t34 81q0 38 -15 63t-39.5 40t-56.5 21t-66 6z" />
    <glyph glyph-name="uniFBAF" unicode="&#x6d2;" horiz-adv-x="1314" arabic-form="final" 
d="M1294 -567h-805q-91 0 -168.5 29t-134.5 82.5t-89 129t-32 169.5q0 82 35 153.5t94 124.5t135.5 83t159.5 30h854v-249h-846q-37 0 -72 -11.5t-62.5 -32t-44 -49t-16.5 -61.5t16 -61t42.5 -47.5t60 -30.5t68.5 -11h805v-248z" />
    <glyph glyph-name="uniFBB1" unicode="&#x6d3;" horiz-adv-x="1320" arabic-form="final" 
d="M1294 -567h-805q-91 0 -168.5 29t-134.5 82.5t-89 129t-32 169.5q0 82 35 153.5t94 124.5t135.5 83t159.5 30h854v-249h-846q-37 0 -72 -11.5t-62.5 -32t-44 -49t-16.5 -61.5t16 -61t42.5 -47.5t60 -30.5t68.5 -11h805v-248zM166 274v149l124 40q-30 31 -49.5 70
t-19.5 83q0 34 12 67t33 61t49.5 49t60.5 30q17 5 34.5 7.5t34.5 2.5q36 0 63.5 -8.5t51.5 -17.5l17 -8l-30 -124q-14 3 -31 8t-34 8t-33.5 3.5t-29.5 -3.5q-14 -5 -27.5 -14t-22.5 -20.5t-12.5 -26.5t2.5 -32q8 -26 37.5 -44t82.5 -18q10 0 21.5 1t30.5 5.5t48.5 13
t75.5 23.5l8 -141z" />
    <glyph glyph-name="uniFBE6" unicode="&#x6d0;" horiz-adv-x="852" arabic-form="initial" 
d="M728 825q2 -7 8.5 -33t14.5 -63.5t16.5 -83.5t16 -92.5t12 -90.5t4.5 -77q0 -103 -34 -178.5t-89 -124.5t-123.5 -73t-137.5 -24h-431v249h438q12 0 34.5 3.5t45 18.5t39.5 45.5t17 83.5q0 22 -3.5 53.5t-9.5 67.5t-13.5 73.5t-14.5 71t-14 61t-11 42.5zM467 -893
l-165 167l163 171l170 -170zM634 -337l-167 -165l-171 163l170 170z" />
    <glyph glyph-name="uniFBE7" unicode="&#x6d0;" horiz-adv-x="1048" arabic-form="medial" 
d="M1061 234v-249h-148q-85 0 -155 23t-118 68q-56 -47 -132.5 -69t-174.5 -22h-346v249h346q61 0 97.5 11.5t55 28.5t24 38t5.5 41v324h248v-317q0 -45 20 -70.5t45.5 -38t50.5 -15t34 -2.5h148zM641 -897l-165 167l163 171l170 -170zM808 -341l-167 -165l-171 163l170 170
z" />
    <glyph glyph-name="uniFBE8" unicode="&#x649;" horiz-adv-x="688" arabic-form="initial" 
d="M552 825q2 -7 8.5 -33t14.5 -63.5t16.5 -83.5t16 -92.5t12 -90.5t4.5 -77q0 -103 -34 -178.5t-89 -124.5t-123.5 -73t-137.5 -24h-266v249h273q12 0 34.5 3.5t45 18.5t39.5 45.5t17 83.5q0 22 -3.5 53.5t-9.5 67.5t-13.5 73.5t-14.5 71t-14 61t-11 42.5z" />
    <glyph glyph-name="uniFBE9" unicode="&#x649;" horiz-adv-x="788" arabic-form="medial" 
d="M801 234v-249h-63q-85 0 -155 23t-118 68q-56 -47 -132.5 -69t-174.5 -22h-177v249h177q61 0 97.5 11.5t55 28.5t24 38t5.5 41v324h248v-317q0 -45 20 -70.5t45.5 -38t50.5 -15t34 -2.5h63z" />
    <glyph glyph-name="uniFBFD" unicode="&#x6cc;" horiz-adv-x="1778" arabic-form="final" 
d="M1533 -15q23 -33 38 -72.5t15 -71.5q0 -93 -51 -168.5t-138 -128.5t-202.5 -82t-245.5 -29h-256q-82 0 -157 19t-141 54.5t-121 86t-97 114.5q-99 160 -99 375q0 66 7.5 131t25 133.5t46 143t70.5 161.5l222 -107q-35 -74 -58 -135t-37.5 -115.5t-20.5 -105t-6 -101.5
q0 -145 64 -246q46 -76 125.5 -116.5t176.5 -40.5h256q75 0 142 14t118 39t83 57.5t37 70.5q-29 31 -73.5 52.5t-101 36t-122 22t-136.5 10.5l7 248h907v-249h-277z" />
    <glyph glyph-name="uniFBFE" unicode="&#x6cc;" horiz-adv-x="873" arabic-form="initial" 
d="M728 825q2 -7 8.5 -33t14.5 -63.5t16.5 -83.5t16 -92.5t12 -90.5t4.5 -77q0 -103 -34 -178.5t-89 -124.5t-123.5 -73t-137.5 -24h-431v249h438q12 0 34.5 3.5t45 18.5t39.5 45.5t17 83.5q0 22 -3.5 53.5t-9.5 67.5t-13.5 73.5t-14.5 71t-14 61t-11 42.5zM607 -559
l-168 170l166 172l172 -172zM188 -560l-168 170l165 172l172 -172z" />
    <glyph glyph-name="uniFBFF" unicode="&#x6cc;" horiz-adv-x="1048" arabic-form="medial" 
d="M1061 234v-249h-148q-85 0 -155 23t-118 68q-56 -47 -132.5 -69t-174.5 -22h-346v249h346q61 0 97.5 11.5t55 28.5t24 38t5.5 41v324h248v-317q0 -45 20 -70.5t45.5 -38t50.5 -15t34 -2.5h148zM654 -565l-168 170l166 172l172 -172zM235 -566l-168 170l165 172l172 -172z
" />
    <glyph glyph-name="uniFC5E" unicode="&#xfc5e;" arabic-form="isolated" 
d="M-130 1679q-92 0 -144.5 51.5t-52.5 142.5v108h115v-108q0 -42 19.5 -61t62.5 -19q6 0 17.5 2.5t22.5 10.5t19.5 24t8.5 43v108h116v-108q0 -42 19.5 -61.5t63.5 -19.5q6 0 17 3t21.5 11.5t18.5 24.5t8 42t-9.5 64t-20.5 79l109 37q3 -13 9 -32.5t12 -43.5t10.5 -50.5
t4.5 -53.5q0 -50 -16.5 -86.5t-42.5 -60.5t-58.5 -36t-64.5 -12q-43 0 -79 13t-61 35q-26 -24 -59 -35.5t-66 -11.5zM-277 2203q4 9 10.5 21t12 26t9.5 29t4 29q0 8 -4 18.5t-7 17.5q-14 17 -35 17q-18 0 -39 -9.5t-35 -20.5l-72 71q3 4 15.5 17t32.5 26t47 22.5t60 8.5
q37 -2 67.5 -22t48.5 -51q11 -21 16.5 -46.5t5.5 -48.5q0 -13 -1 -25t-3 -24q42 14 88.5 32.5t83.5 41.5q-35 13 -63.5 33t-49 44t-31.5 51.5t-11 56.5q0 33 16 65q12 25 32 47.5t44 39t51.5 26t54.5 9.5q34 0 63 -14q55 -26 79.5 -75.5t24.5 -105.5q0 -48 -15.5 -97.5
t-42.5 -90.5q-22 -32 -58 -59.5t-77.5 -49.5t-85 -38.5t-80 -28t-63 -17.5t-34.5 -7zM71 2589q-10 0 -23 -3.5t-26 -9.5t-24.5 -15t-18.5 -20q0 -21 13.5 -39t33 -32t42 -24.5t40.5 -17.5q5 19 8 39.5t3 41.5q0 24 -7 44q-5 14 -15.5 25t-25.5 11z" />
    <glyph glyph-name="uniFC5F" unicode="&#xfc5f;" arabic-form="isolated" 
d="M1 1741q-92 0 -144.5 51.5t-52.5 142.5v108h115v-108q0 -42 19.5 -61t62.5 -19q6 0 17.5 2.5t22.5 10.5t19.5 24t8.5 43v108h116v-108q0 -42 19.5 -61.5t63.5 -19.5q6 0 17 3t21.5 11.5t18.5 24.5t8 42t-9.5 64t-20.5 79l109 37q3 -13 9 -32.5t12 -43.5t10.5 -50.5
t4.5 -53.5q0 -50 -16.5 -86.5t-42.5 -60.5t-58.5 -36t-64.5 -12q-43 0 -79 13t-61 35q-26 -24 -59 -35.5t-66 -11.5zM-129 1265l504 187v-137l-504 -190v140zM-129 1506l504 188v-138l-504 -189v139z" />
    <glyph glyph-name="uniFC60" unicode="&#xfc60;" arabic-form="isolated" 
d="M-130 1679q-92 0 -144.5 51.5t-52.5 142.5v108h115v-108q0 -42 19.5 -61t62.5 -19q6 0 17.5 2.5t22.5 10.5t19.5 24t8.5 43v108h116v-108q0 -42 19.5 -61.5t63.5 -19.5q6 0 17 3t21.5 11.5t18.5 24.5t8 42t-9.5 64t-20.5 79l109 37q3 -13 9 -32.5t12 -43.5t10.5 -50.5
t4.5 -53.5q0 -50 -16.5 -86.5t-42.5 -60.5t-58.5 -36t-64.5 -12q-43 0 -79 13t-61 35q-26 -24 -59 -35.5t-66 -11.5zM-344 2223l504 187v-138l-504 -189v140z" />
    <glyph glyph-name="uniFC61" unicode="&#xfc61;" arabic-form="isolated" 
d="M-130 1679q-92 0 -144.5 51.5t-52.5 142.5v108h115v-108q0 -42 19.5 -61t62.5 -19q6 0 17.5 2.5t22.5 10.5t19.5 24t8.5 43v108h116v-108q0 -42 19.5 -61.5t63.5 -19.5q6 0 17 3t21.5 11.5t18.5 24.5t8 42t-9.5 64t-20.5 79l109 37q3 -13 9 -32.5t12 -43.5t10.5 -50.5
t4.5 -53.5q0 -50 -16.5 -86.5t-42.5 -60.5t-58.5 -36t-64.5 -12q-43 0 -79 13t-61 35q-26 -24 -59 -35.5t-66 -11.5zM-298 2182q33 10 70.5 22.5t75 27.5t72.5 32.5t63 38.5q-37 12 -67.5 32t-52.5 46t-34.5 55.5t-12.5 61.5q0 33 13 62q12 25 32 48t44.5 40t52.5 27t56 10
q36 0 67 -17q57 -31 81 -78.5t24 -103.5q0 -54 -19.5 -110t-53.5 -104q-33 -47 -86.5 -82.5t-109.5 -60.5t-106 -40.5t-76 -23.5zM16 2566q-23 0 -51.5 -11.5t-41.5 -35.5q-6 -11 3 -29.5t28.5 -37.5t46.5 -35t57 -20q6 15 10.5 38t4.5 47q0 31 -12.5 56t-45.5 28h1z" />
    <glyph glyph-name="uniFC62" unicode="&#xfc62;" arabic-form="isolated" 
d="M-16 1702q-92 0 -144.5 51.5t-52.5 142.5v108h115v-108q0 -42 19.5 -61t62.5 -19q6 0 17.5 2.5t22.5 10.5t19.5 24t8.5 43v108h116v-108q0 -42 19.5 -61.5t63.5 -19.5q6 0 17 3t21.5 11.5t18.5 24.5t8 42t-9.5 64t-20.5 79l109 37q3 -13 9 -32.5t12 -43.5t10.5 -50.5
t4.5 -53.5q0 -50 -16.5 -86.5t-42.5 -60.5t-58.5 -36t-64.5 -12q-43 0 -79 13t-61 35q-26 -24 -59 -35.5t-66 -11.5zM-139 1463l504 188v-138l-504 -189v139z" />
    <glyph glyph-name="uniFC63" unicode="&#xfc63;" arabic-form="isolated" 
d="M-130 1679q-92 0 -144.5 51.5t-52.5 142.5v108h115v-108q0 -42 19.5 -61t62.5 -19q6 0 17.5 2.5t22.5 10.5t19.5 24t8.5 43v108h116v-108q0 -42 19.5 -61.5t63.5 -19.5q6 0 17 3t21.5 11.5t18.5 24.5t8 42t-9.5 64t-20.5 79l109 37q3 -13 9 -32.5t12 -43.5t10.5 -50.5
t4.5 -53.5q0 -50 -16.5 -86.5t-42.5 -60.5t-58.5 -36t-64.5 -12q-43 0 -79 13t-61 35q-26 -24 -59 -35.5t-66 -11.5zM-71 2592h140v-408h-140v408z" />
    <glyph glyph-name="uniFE70" unicode="&#xfe70;" arabic-form="isolated" 
d="M-252 1711l504 187v-138l-504 -189v140zM-252 1952l504 187v-137l-504 -189v139z" />
    <glyph glyph-name="uniFE72" unicode="&#xfe72;" arabic-form="isolated" 
d="M-277 1664q4 9 10.5 21t12 26t9.5 29t4 29q0 8 -4 18.5t-7 17.5q-14 17 -35 17q-18 0 -39 -9.5t-35 -20.5l-72 71q3 4 15.5 17t32.5 26t47 22.5t60 8.5q37 -2 67.5 -22t48.5 -51q11 -21 16.5 -46.5t5.5 -48.5q0 -13 -1 -25t-3 -24q42 14 88.5 32.5t83.5 41.5
q-35 13 -63.5 33t-49 44t-31.5 51.5t-11 56.5q0 33 16 65q12 25 32 47.5t44 39t51.5 26t54.5 9.5q34 0 63 -14q55 -26 79.5 -75.5t24.5 -105.5q0 -48 -15.5 -97.5t-42.5 -90.5q-22 -32 -58 -59.5t-77.5 -49.5t-85 -38.5t-80 -28t-63 -17.5t-34.5 -7zM71 2050q-10 0 -23 -3.5
t-26 -9.5t-24.5 -15t-18.5 -20q0 -21 13.5 -39t33 -32t42 -24.5t40.5 -17.5q5 19 8 39.5t3 41.5q0 24 -7 44q-5 14 -15.5 25t-25.5 11z" />
    <glyph glyph-name="uniFE74" unicode="&#xfe74;" arabic-form="isolated" 
d="M-252 -681l504 187v-137l-504 -190v140zM-252 -440l504 188v-138l-504 -189v139z" />
    <glyph glyph-name="uniFE76" unicode="&#xfe76;" arabic-form="isolated" 
d="M-252 1711l504 187v-138l-504 -189v140z" />
    <glyph glyph-name="uniFE78" unicode="&#xfe78;" arabic-form="isolated" 
d="M-298 1635q33 10 70.5 22.5t75 27.5t72.5 32.5t63 38.5q-37 12 -67.5 32t-52.5 46t-34.5 55.5t-12.5 61.5q0 33 13 62q12 25 32 48t44.5 40t52.5 27t56 10q36 0 67 -17q57 -31 81 -78.5t24 -103.5q0 -54 -19.5 -110t-53.5 -104q-33 -47 -86.5 -82.5t-109.5 -60.5
t-106 -40.5t-76 -23.5zM16 2019q-23 0 -51.5 -11.5t-41.5 -35.5q-6 -11 3 -29.5t28.5 -37.5t46.5 -35t57 -20q6 15 10.5 38t4.5 47q0 31 -12.5 56t-45.5 28h1z" />
    <glyph glyph-name="uniFE7A" unicode="&#xfe7a;" arabic-form="isolated" 
d="M-252 -440l504 188v-138l-504 -189v139z" />
    <glyph glyph-name="uniFE7C" unicode="&#xfe7c;" arabic-form="isolated" 
d="M-130 1679q-92 0 -144.5 51.5t-52.5 142.5v108h115v-108q0 -42 19.5 -61t62.5 -19q6 0 17.5 2.5t22.5 10.5t19.5 24t8.5 43v108h116v-108q0 -42 19.5 -61.5t63.5 -19.5q6 0 17 3t21.5 11.5t18.5 24.5t8 42t-9.5 64t-20.5 79l109 37q3 -13 9 -32.5t12 -43.5t10.5 -50.5
t4.5 -53.5q0 -50 -16.5 -86.5t-42.5 -60.5t-58.5 -36t-64.5 -12q-43 0 -79 13t-61 35q-26 -24 -59 -35.5t-66 -11.5z" />
    <glyph glyph-name="uniFE7E" unicode="&#xfe7e;" arabic-form="isolated" 
d="M-2 1659q-54 0 -97 16t-74 45t-47.5 71t-16.5 95t16.5 96t47.5 73t74.5 46t96.5 16q51 0 95.5 -16t76.5 -46t50.5 -72.5t18.5 -94.5t-18 -95t-50 -73t-76.5 -46t-96.5 -15zM-2 1786q22 0 41.5 6.5t34.5 19.5t23.5 31.5t8.5 42.5t-8.5 43.5t-23.5 33t-34.5 21t-41.5 7.5
q-45 0 -77.5 -28t-32.5 -77q0 -51 29.5 -75.5t80.5 -24.5z" />
    <glyph glyph-name="uniFE82" unicode="&#x622;" horiz-adv-x="656" arabic-form="final" 
d="M675 -15q-79 0 -141 8.5t-111 25.5t-87 42.5t-69 60.5q-32 37 -52 81.5t-30.5 91t-14 94t-3.5 91.5v800h249v-800q0 -81 9 -127.5t29 -69.5q12 -12 29 -21.5t43 -15.5t62.5 -9t86.5 -3v-249zM713 1423h-490q-59 0 -99.5 -3.5t-69 -18t-47 -42t-33.5 -75.5l-186 55
q26 90 71 147t108 89q54 26 117 34.5t139 8.5h490v-195z" />
    <glyph glyph-name="uniFE84" unicode="&#x623;" horiz-adv-x="656" arabic-form="final" 
d="M675 -15q-79 0 -141 8.5t-111 25.5t-87 42.5t-69 60.5q-32 37 -52 81.5t-30.5 91t-14 94t-3.5 91.5v800h249v-800q0 -81 9 -127.5t29 -69.5q12 -12 29 -21.5t43 -15.5t62.5 -9t86.5 -3v-249zM-12 1355v149l124 40q-30 31 -49.5 70t-19.5 83q0 34 12 67t33 61t49.5 49
t60.5 30q17 5 34.5 7.5t34.5 2.5q36 0 63.5 -8.5t51.5 -17.5l17 -8l-30 -124q-14 3 -31 8t-34 8t-33.5 3.5t-29.5 -3.5q-14 -5 -27.5 -14t-22.5 -20.5t-12.5 -26.5t2.5 -32q8 -26 37.5 -44t82.5 -18q10 0 21.5 1t30.5 5.5t48.5 13t75.5 23.5l8 -141z" />
    <glyph glyph-name="uniFE86" unicode="&#x624;" horiz-adv-x="1064" arabic-form="final" 
d="M178 -303q80 0 142.5 5.5t111 16t85 27t63.5 39.5q42 34 63.5 79t25.5 121h-154q-50 0 -102 8t-100 27.5t-90.5 50.5t-74 76.5t-50 107.5t-18.5 142q0 69 12 122.5t30.5 94.5t41.5 71.5t44 53.5q60 60 136 92.5t164 32.5q109 0 186.5 -37.5t127 -103.5t72.5 -156.5
t23 -196.5v-136h170v-249h-171q-4 -137 -48.5 -231t-132.5 -164q-46 -36 -100 -62.5t-121 -44.5t-149.5 -26.5t-186.5 -8.5v249zM508 615q-85 0 -135 -53t-50 -165q0 -44 17.5 -75t45 -50.5t61.5 -28.5t68 -9h154v136q0 57 -9 97.5t-23.5 67.5t-33 43t-36 24t-33.5 10.5
t-26 2.5zM163 994v149l124 40q-30 31 -49.5 70t-19.5 83q0 34 12 67t33 61t49.5 49t60.5 30q17 5 34.5 7.5t34.5 2.5q36 0 63.5 -8.5t51.5 -17.5l17 -8l-30 -124q-14 3 -31 8t-34 8t-33.5 3.5t-29.5 -3.5q-14 -5 -27.5 -14t-22.5 -20.5t-12.5 -26.5t2.5 -32q8 -26 37.5 -44
t82.5 -18q10 0 21.5 1t30.5 5.5t48.5 13t75.5 23.5l8 -141z" />
    <glyph glyph-name="uniFE88" unicode="&#x625;" horiz-adv-x="647" arabic-form="final" 
d="M671 -15q-110 0 -189 13.5t-133 40t-86.5 67.5t-49.5 96t-22.5 124.5t-5.5 153.5v947h249v-947q0 -80 5.5 -128t29 -74.5t71 -35t131.5 -8.5v-249zM72 -692v149l124 40q-30 31 -49.5 70t-19.5 83q0 34 12 67t33 61t49.5 49t60.5 30q17 5 34.5 7.5t34.5 2.5
q36 0 63.5 -8.5t51.5 -17.5l17 -8l-30 -124q-14 3 -31 8t-34 8t-33.5 3.5t-29.5 -3.5q-14 -5 -27.5 -14t-22.5 -20.5t-12.5 -26.5t2.5 -32q8 -26 37.5 -44t82.5 -18q10 0 21.5 1t30.5 5.5t48.5 13t75.5 23.5l8 -141z" />
    <glyph glyph-name="uniFE8A" unicode="&#x626;" horiz-adv-x="1778" arabic-form="final" 
d="M1533 -15q23 -33 38 -72.5t15 -71.5q0 -93 -51 -168.5t-138 -128.5t-202.5 -82t-245.5 -29h-256q-82 0 -157 19t-141 54.5t-121 86t-97 114.5q-99 160 -99 375q0 66 7.5 131t25 133.5t46 143t70.5 161.5l222 -107q-35 -74 -58 -135t-37.5 -115.5t-20.5 -105t-6 -101.5
q0 -145 64 -246q46 -76 125.5 -116.5t176.5 -40.5h256q75 0 142 14t118 39t83 57.5t37 70.5q-29 31 -73.5 52.5t-101 36t-122 22t-136.5 10.5l7 248h907v-249h-277zM670 299v149l124 40q-30 31 -49.5 70t-19.5 83q0 34 12 67t33 61t49.5 49t60.5 30q17 5 34.5 7.5t34.5 2.5
q36 0 63.5 -8.5t51.5 -17.5l17 -8l-30 -124q-14 3 -31 8t-34 8t-33.5 3.5t-29.5 -3.5q-14 -5 -27.5 -14t-22.5 -20.5t-12.5 -26.5t2.5 -32q8 -26 37.5 -44t82.5 -18q10 0 21.5 1t30.5 5.5t48.5 13t75.5 23.5l8 -141z" />
    <glyph glyph-name="uniFE8B" unicode="&#x626;" horiz-adv-x="857" arabic-form="initial" 
d="M728 825q2 -7 8.5 -33t14.5 -63.5t16.5 -83.5t16 -92.5t12 -90.5t4.5 -77q0 -103 -34 -178.5t-89 -124.5t-123.5 -73t-137.5 -24h-431v249h438q12 0 34.5 3.5t45 18.5t39.5 45.5t17 83.5q0 22 -3.5 53.5t-9.5 67.5t-13.5 73.5t-14.5 71t-14 61t-11 42.5zM112 841v149
l124 40q-30 31 -49.5 70t-19.5 83q0 34 12 67t33 61t49.5 49t60.5 30q17 5 34.5 7.5t34.5 2.5q36 0 63.5 -8.5t51.5 -17.5l17 -8l-30 -124q-14 3 -31 8t-34 8t-33.5 3.5t-29.5 -3.5q-14 -5 -27.5 -14t-22.5 -20.5t-12.5 -26.5t2.5 -32q8 -26 37.5 -44t82.5 -18q10 0 21.5 1
t30.5 5.5t48.5 13t75.5 23.5l8 -141z" />
    <glyph glyph-name="uniFE8C" unicode="&#x626;" horiz-adv-x="1054" arabic-form="medial" 
d="M1061 234v-249h-148q-85 0 -155 23t-118 68q-56 -47 -132.5 -69t-174.5 -22h-346v249h346q61 0 97.5 11.5t55 28.5t24 38t5.5 41v324h248v-317q0 -45 20 -70.5t45.5 -38t50.5 -15t34 -2.5h148zM175 784v149l124 40q-30 31 -49.5 70t-19.5 83q0 34 12 67t33 61t49.5 49
t60.5 30q17 5 34.5 7.5t34.5 2.5q36 0 63.5 -8.5t51.5 -17.5l17 -8l-30 -124q-14 3 -31 8t-34 8t-33.5 3.5t-29.5 -3.5q-14 -5 -27.5 -14t-22.5 -20.5t-12.5 -26.5t2.5 -32q8 -26 37.5 -44t82.5 -18q10 0 21.5 1t30.5 5.5t48.5 13t75.5 23.5l8 -141z" />
    <glyph glyph-name="uniFE8E" unicode="&#x627;" horiz-adv-x="644" arabic-form="final" 
d="M671 -15q-110 0 -189 13.5t-133 40t-86.5 67.5t-49.5 96t-22.5 124.5t-5.5 153.5v947h249v-947q0 -80 5.5 -128t29 -74.5t71 -35t131.5 -8.5v-249z" />
    <glyph glyph-name="uniFE90" unicode="&#x628;" horiz-adv-x="2248" arabic-form="final" 
d="M2041 676v-293q0 -35 10.5 -59.5t27 -41t36.5 -26t39 -14.5t33.5 -6.5t21.5 -1.5h62v-249h-62q-34 0 -72.5 4.5t-77 15t-74.5 28.5t-64 44q-109 -91 -296 -92h-1154q-74 0 -140 25t-117 73q-20 19 -41.5 46t-38.5 64t-28 83.5t-11 104.5q0 50 10 108.5t22.5 110.5
t23.5 90t14 47l119 -38l118 -37q-9 -27 -19 -64.5t-19 -77.5t-15 -77t-6 -64q0 -48 13.5 -77.5t33 -45t42.5 -20.5t41 -5h1145q55 0 94 10.5t58 30.5q23 26 23 75v329h248zM898 -362l180 182l184 -184l-182 -182z" />
    <glyph glyph-name="uniFE91" unicode="&#x628;" horiz-adv-x="701" arabic-form="initial" 
d="M552 825q2 -7 8.5 -33t14.5 -63.5t16.5 -83.5t16 -92.5t12 -90.5t4.5 -77q0 -103 -34 -178.5t-89 -124.5t-123.5 -73t-137.5 -24h-266v249h273q12 0 34.5 3.5t45 18.5t39.5 45.5t17 83.5q0 22 -3.5 53.5t-9.5 67.5t-13.5 73.5t-14.5 71t-14 61t-11 42.5zM121 -363
l180 182l184 -184l-182 -182z" />
    <glyph glyph-name="uniFE92" unicode="&#x628;" horiz-adv-x="788" arabic-form="medial" 
d="M801 234v-249h-63q-85 0 -155 23t-118 68q-56 -47 -132.5 -69t-174.5 -22h-177v249h177q61 0 97.5 11.5t55 28.5t24 38t5.5 41v324h248v-317q0 -45 20 -70.5t45.5 -38t50.5 -15t34 -2.5h63zM194 -374l180 182l184 -184l-182 -182z" />
    <glyph glyph-name="uniFE94" unicode="&#x629;" horiz-adv-x="1268" arabic-form="final" 
d="M1278 -15h-28q-78 0 -150 14.5t-133 44t-108.5 75.5t-77.5 109q-24 -37 -61.5 -65.5t-81.5 -47.5t-91 -28.5t-90 -9.5q-80 0 -151.5 28t-125.5 79.5t-85.5 125.5t-31.5 167q0 108 41 190t109 143.5t156.5 105t183.5 75.5l-24 96l244 57l182 -708q16 -65 52 -104.5
t78.5 -61t87 -29t77.5 -7.5h28v-249zM662 482q6 28 4 56.5t-9 60.5t-18.5 69t-24.5 83q-160 -51 -242.5 -115.5t-82.5 -159.5q0 -37 16.5 -66t43 -48t59 -27.5t65.5 -3.5q75 11 125 44.5t64 106.5zM852 1298l-168 170l166 172l172 -172zM433 1297l-168 170l165 172l172 -172
z" />
    <glyph glyph-name="uniFE96" unicode="&#x62a;" horiz-adv-x="2252" arabic-form="final" 
d="M2041 676v-293q0 -35 10.5 -59.5t27 -41t36.5 -26t39 -14.5t33.5 -6.5t21.5 -1.5h62v-249h-62q-34 0 -72.5 4.5t-77 15t-74.5 28.5t-64 44q-109 -91 -296 -92h-1154q-74 0 -140 25t-117 73q-20 19 -41.5 46t-38.5 64t-28 83.5t-11 104.5q0 50 10 108.5t22.5 110.5
t23.5 90t14 47l119 -38l118 -37q-9 -27 -19 -64.5t-19 -77.5t-15 -77t-6 -64q0 -48 13.5 -77.5t33 -45t42.5 -20.5t41 -5h1145q55 0 94 10.5t58 30.5q23 26 23 75v329h248zM1269 760l-168 170l166 172l172 -172zM850 759l-168 170l165 172l172 -172z" />
    <glyph glyph-name="uniFE97" unicode="&#x62a;" horiz-adv-x="888" arabic-form="initial" 
d="M728 825q2 -7 8.5 -33t14.5 -63.5t16.5 -83.5t16 -92.5t12 -90.5t4.5 -77q0 -103 -34 -178.5t-89 -124.5t-123.5 -73t-137.5 -24h-431v249h438q12 0 34.5 3.5t45 18.5t39.5 45.5t17 83.5q0 22 -3.5 53.5t-9.5 67.5t-13.5 73.5t-14.5 71t-14 61t-11 42.5zM629 1020
l-168 170l166 172l172 -172zM210 1019l-168 170l165 172l172 -172z" />
    <glyph glyph-name="uniFE98" unicode="&#x62a;" horiz-adv-x="1049" arabic-form="medial" 
d="M718 943l-168 170l166 172l172 -172zM299 942l-168 170l165 172l172 -172zM1061 234v-249h-148q-85 0 -155 23t-118 68q-56 -47 -132.5 -69t-174.5 -22h-346v249h346q61 0 97.5 11.5t55 28.5t24 38t5.5 41v324h248v-317q0 -45 20 -70.5t45.5 -38t50.5 -15t34 -2.5h148z
" />
    <glyph glyph-name="uniFE9A" unicode="&#x62b;" horiz-adv-x="2243" arabic-form="final" 
d="M2041 676v-293q0 -35 10.5 -59.5t27 -41t36.5 -26t39 -14.5t33.5 -6.5t21.5 -1.5h62v-249h-62q-34 0 -72.5 4.5t-77 15t-74.5 28.5t-64 44q-109 -91 -296 -92h-1154q-74 0 -140 25t-117 73q-20 19 -41.5 46t-38.5 64t-28 83.5t-11 104.5q0 50 10 108.5t22.5 110.5
t23.5 90t14 47l119 -38l118 -37q-9 -27 -19 -64.5t-19 -77.5t-15 -77t-6 -64q0 -48 13.5 -77.5t33 -45t42.5 -20.5t41 -5h1145q55 0 94 10.5t58 30.5q23 26 23 75v329h248zM1035 887l-170 -172l-170 170l170 172zM1464 891l-168 -170l-175 168l172 172zM1243 1173l-160 -160
l-158 158l160 160z" />
    <glyph glyph-name="uniFE9B" unicode="&#x62b;" horiz-adv-x="878" arabic-form="initial" 
d="M728 825q2 -7 8.5 -33t14.5 -63.5t16.5 -83.5t16 -92.5t12 -90.5t4.5 -77q0 -103 -34 -178.5t-89 -124.5t-123.5 -73t-137.5 -24h-431v249h438q12 0 34.5 3.5t45 18.5t39.5 45.5t17 83.5q0 22 -3.5 53.5t-9.5 67.5t-13.5 73.5t-14.5 71t-14 61t-11 42.5zM369 1163
l-170 -172l-170 170l170 172zM798 1167l-168 -170l-175 168l172 172zM577 1449l-160 -160l-158 158l160 160z" />
    <glyph glyph-name="uniFE9C" unicode="&#x62b;" horiz-adv-x="1049" arabic-form="medial" 
d="M1061 234v-249h-148q-85 0 -155 23t-118 68q-56 -47 -132.5 -69t-174.5 -22h-346v249h346q61 0 97.5 11.5t55 28.5t24 38t5.5 41v324h248v-317q0 -45 20 -70.5t45.5 -38t50.5 -15t34 -2.5h148zM438 1101l-170 -172l-170 170l170 172zM867 1105l-168 -170l-175 168
l172 172zM646 1387l-160 -160l-158 158l160 160z" />
    <glyph glyph-name="uniFE9E" unicode="&#x62c;" horiz-adv-x="1583" arabic-form="final" 
d="M1358 351l-108 -45q27 -35 56 -53.5t51 -18.5h245v-249h-245q-129 0 -216.5 60t-135.5 160l-237 -97q-129 -49 -213.5 -84t-134 -69.5t-69 -73.5t-19.5 -95q0 -71 16 -121t46 -82.5t72.5 -51t95.5 -28t115 -11.5t131 -2h461v-249h-461q-159 0 -291 25.5t-227 87.5
t-148 166t-53 261q0 82 21.5 147t61 117.5t94 94t120.5 75t141 61t156 53.5l401 132q-116 40 -235.5 78.5t-234.5 75.5q-21 7 -40.5 12.5t-37.5 5.5q-23 0 -41.5 -4.5t-33.5 -16t-27.5 -32.5t-24.5 -54l-229 69q19 60 47.5 112.5t68.5 91.5t92.5 61.5t119.5 22.5
q55 0 120 -20q80 -26 146.5 -51.5t132.5 -52.5q38 -15 79 -34t93 -41.5t117.5 -49.5t152.5 -58zM669 -198l180 182l184 -184l-182 -182z" />
    <glyph glyph-name="uniFE9F" unicode="&#x62c;" horiz-adv-x="1439" arabic-form="initial" 
d="M1356 383q-6 -4 -52 -35t-122 -75.5t-178 -94.5t-220 -93t-247 -71.5t-259 -28.5h-303v249h303q98 0 209 20t219 51.5t205.5 70.5t169.5 77q-46 14 -99.5 30.5t-109.5 33t-111 32t-103 27.5t-86 19t-60 7q-23 0 -40.5 -5.5t-31.5 -18t-26 -32.5t-25 -48l-229 69
q19 60 46.5 112.5t67 91.5t91.5 61.5t119 22.5q26 0 74 -11t109 -29t130.5 -41t139.5 -48t136 -49t119 -43.5t89 -32.5t46 -16zM492 -358l180 182l184 -184l-182 -182z" />
    <glyph glyph-name="uniFEA0" unicode="&#x62c;" horiz-adv-x="1524" arabic-form="medial" 
d="M1341 383q-5 -3 -32 -21.5t-73 -47.5q10 -30 31 -46.5t43 -24t41.5 -8.5t27.5 -1h183v-249h-183q-119 1 -213.5 52.5t-147.5 154.5q-77 -38 -166 -75.5t-186 -66.5t-199 -47t-204 -18h-298v249h298q98 0 209 20t219 51.5t205.5 70.5t169.5 77q-45 14 -99 30.5t-110 33
t-111 32t-103 27.5t-86 19t-60 7q-23 0 -40.5 -5.5t-31.5 -18t-26 -32.5t-25 -48l-229 69q19 60 46.5 112.5t67 91.5t91.5 61.5t119 22.5q26 0 74 -11t109 -29t130.5 -41t139.5 -48t136 -49t119 -43.5t89 -32.5t46 -16zM509 -358l180 182l184 -184l-182 -182z" />
    <glyph glyph-name="uniFEA2" unicode="&#x62d;" horiz-adv-x="1575" arabic-form="final" 
d="M1358 351l-108 -45q27 -35 56 -53.5t51 -18.5h245v-249h-245q-129 0 -216.5 60t-135.5 160l-237 -97q-129 -49 -213.5 -84t-134 -69.5t-69 -73.5t-19.5 -95q0 -71 16 -121t46 -82.5t72.5 -51t95.5 -28t115 -11.5t131 -2h461v-249h-461q-159 0 -291 25.5t-227 87.5
t-148 166t-53 261q0 82 21.5 147t61 117.5t94 94t120.5 75t141 61t156 53.5l401 132q-116 40 -235.5 78.5t-234.5 75.5q-21 7 -40.5 12.5t-37.5 5.5q-23 0 -41.5 -4.5t-33.5 -16t-27.5 -32.5t-24.5 -54l-229 69q19 60 47.5 112.5t68.5 91.5t92.5 61.5t119.5 22.5
q55 0 120 -20q80 -26 146.5 -51.5t132.5 -52.5q38 -15 79 -34t93 -41.5t117.5 -49.5t152.5 -58z" />
    <glyph glyph-name="uniFEA3" unicode="&#x62d;" horiz-adv-x="1430" arabic-form="initial" 
d="M1356 383q-6 -4 -52 -35t-122 -75.5t-178 -94.5t-220 -93t-247 -71.5t-259 -28.5h-303v249h303q98 0 209 20t219 51.5t205.5 70.5t169.5 77q-46 14 -99.5 30.5t-109.5 33t-111 32t-103 27.5t-86 19t-60 7q-23 0 -40.5 -5.5t-31.5 -18t-26 -32.5t-25 -48l-229 69
q19 60 46.5 112.5t67 91.5t91.5 61.5t119 22.5q26 0 74 -11t109 -29t130.5 -41t139.5 -48t136 -49t119 -43.5t89 -32.5t46 -16z" />
    <glyph glyph-name="uniFEA4" unicode="&#x62d;" horiz-adv-x="1528" arabic-form="medial" 
d="M1341 383q-5 -3 -32 -21.5t-73 -47.5q10 -30 31 -46.5t43 -24t41.5 -8.5t27.5 -1h183v-249h-183q-119 1 -213.5 52.5t-147.5 154.5q-77 -38 -166 -75.5t-186 -66.5t-199 -47t-204 -18h-298v249h298q98 0 209 20t219 51.5t205.5 70.5t169.5 77q-45 14 -99 30.5t-110 33
t-111 32t-103 27.5t-86 19t-60 7q-23 0 -40.5 -5.5t-31.5 -18t-26 -32.5t-25 -48l-229 69q19 60 46.5 112.5t67 91.5t91.5 61.5t119 22.5q26 0 74 -11t109 -29t130.5 -41t139.5 -48t136 -49t119 -43.5t89 -32.5t46 -16z" />
    </font>
</defs>
</svg>
